<svg width="82" height="130" viewBox="0 0 82 130" fill="none" xmlns="http://www.w3.org/2000/svg">
<path d="M73.9272 72.1316C72.5082 77.0577 68.8018 81.274 64.0978 83.3116C65.0756 87.6117 64.2319 92.2942 61.8146 95.983C59.3973 99.6701 55.4396 102.313 51.1068 103.131C54.0309 109.449 56.9328 115.719 54.5701 121.277C53.2126 124.47 50.2656 126.79 47.0386 128.067C43.8111 129.343 40.298 129.693 36.8317 129.865C32.3782 130.086 27.9113 130.036 23.4638 129.716C19.8188 129.455 16.0587 128.968 12.9313 127.077C9.80435 125.185 7.46783 121.543 8.15904 117.955C8.96365 113.776 13.3613 111.134 14.6015 107.063C15.9697 102.572 13.1676 98.0197 11.1197 93.7956C7.17915 85.6653 5.79117 76.4867 5.82768 67.4526C5.86419 58.4171 7.2698 49.4495 8.67196 40.5241C7.0056 36.2682 6.40891 31.5427 7.67404 27.7529C5.78472 25.4929 3.86362 23.1792 2.79825 20.4333C1.73331 17.6873 1.65727 14.3813 3.34167 11.964C4.55697 10.2199 6.50728 9.15322 8.42667 8.2382C19.7303 2.85164 32.6767 0.658608 44.9946 2.90577C57.313 5.15335 68.8929 12.0005 76.1056 22.2358C79.5062 27.0626 81.9694 32.8461 81.502 38.7305C81.0334 44.6163 77.0361 50.4518 71.2689 51.713C72.6887 53.3824 75.3456 67.2051 73.9272 72.1316Z" fill="#BEC3C9"/>
<path d="M71.8955 70.0995C70.477 75.0259 66.7705 79.2423 62.0662 81.2803C63.0443 85.5791 62.2002 90.2629 59.7834 93.9513C57.3661 97.6389 53.4079 100.282 49.0751 101.1C51.9993 107.418 54.9011 113.686 52.5388 119.245C51.1809 122.439 48.2344 124.759 45.0069 126.035C41.7799 127.312 38.2663 127.661 34.8 127.833C30.3465 128.054 25.8801 128.005 21.4326 127.685C17.7872 127.423 14.027 126.937 10.9001 125.046C7.77268 123.154 5.43617 119.512 6.12737 115.922C6.93241 111.743 11.3301 109.103 12.5699 105.031C13.9381 100.54 11.1359 95.9884 9.0885 91.7643C5.14749 83.6335 3.75993 74.4555 3.79602 65.42C3.83253 56.3854 5.23813 47.4183 6.6403 38.4928C4.97394 34.2369 4.37724 29.5115 5.64237 25.7217C3.75349 23.4616 1.83196 21.1479 0.767015 18.402C-0.298355 15.6556 -0.373962 12.35 1.31001 9.93271C2.52573 8.1886 4.47562 7.12065 6.395 6.20692C17.6991 0.820362 30.6451 -1.37267 42.9634 0.874059C55.2813 3.12208 66.8612 9.9688 74.0743 20.2041C77.4745 25.0309 79.9382 30.8144 79.4695 36.6993C79.0021 42.585 75.0048 48.4201 69.2372 49.6818C70.6574 51.3511 73.3144 65.1734 71.8955 70.0995Z" fill="#F9F5ED"/>
<path d="M48.5355 61.563C47.7343 71.6595 45.1297 81.61 40.8811 90.8039C39.2281 98.3337 40.1955 105.863 43.9213 111.717C44.6147 112.805 45.4047 113.852 45.8463 115.065C46.2875 116.278 46.324 117.729 45.5623 118.771C36.3709 121.611 26.1361 122.24 16.4554 120.188C14.7289 119.822 12.8439 119.245 11.9482 117.724C11.0963 116.278 11.446 114.368 12.3692 112.967C13.2923 111.564 14.6937 110.561 16.0627 109.59C19.7052 101.778 18.553 92.579 13.5428 86.1795C8.92003 69.3642 8.56219 52.3041 12.7876 36.4348C14.8419 36.1316 16.8957 35.827 17.8343 35.2913C18.1101 39.4329 21.7449 43.0874 25.8856 43.3842C30.0264 43.6811 34.1457 40.5842 35.01 36.5242C35.9972 39.158 39.3475 40.6138 41.9465 39.5386C39.4541 40.9725 38.3019 44.3607 39.4025 47.0177C40.5031 49.6746 43.7134 51.2564 46.4902 50.5085C44.3195 51.2439 42.8246 53.6032 43.0862 55.8804C43.3482 58.1581 45.3398 60.1166 48.5355 61.563Z" fill="#FAF8EF"/>
<path d="M58.9667 42.5906C61.3088 43.0426 63.187 45.1222 63.5985 47.4711C64.0105 49.8201 63.0392 52.3143 61.2852 53.9299C59.5312 55.5465 57.0761 56.3077 54.6937 56.193C54.4342 58.728 52.2317 60.9274 49.6963 61.1826C47.1609 61.4391 44.5636 59.7246 43.8028 57.2919C43.042 54.8604 44.1989 51.9715 46.428 50.7364C43.2663 50.8945 40.5058 49.2617 39.458 46.7851C38.4102 44.3081 39.1603 41.1893 41.2197 39.4594C40.4894 40.4659 38.9605 40.6274 37.8466 40.0767C36.7327 39.5255 35.9835 38.4314 35.4809 37.2943C33.3051 41.3268 29.5651 43.4184 25.9579 43.0361C22.3502 42.6533 19.1326 39.8224 18.2932 36.2933C16.1144 36.3363 14.2573 36.5696 12.5776 37.2479C10.8219 34.6218 10.4971 31.0984 11.7425 28.1948C12.9879 25.2917 15.7656 23.0999 18.8783 22.5621C21.9911 22.0256 25.3427 23.1592 27.3283 24.8673C27.6809 21.5723 30.3568 18.6623 33.6105 18.0343C36.8637 17.4075 40.4297 19.1143 42.4505 22.5136C44.7917 21.1986 47.9376 21.5019 49.9837 23.2417C52.0298 24.9802 52.8374 28.0354 52.0148 31.6238C54.6932 30.1503 58.4104 30.9815 60.2057 33.4559C62.0005 35.9304 61.637 39.7223 58.9667 42.5906Z" fill="#FAF8EF"/>
<path d="M56.6636 68.1318C59.1281 67.3148 61.0926 65.1372 61.6537 62.6022C61.5377 63.6689 61.911 64.7798 62.6486 65.5595C63.3858 66.3392 64.4739 66.7735 65.5453 66.7176C64.1337 67.0484 62.9575 68.0601 62.1314 69.2522C61.3048 70.4434 60.7842 71.8147 60.2713 73.1717C60.5333 71.3563 59.2794 69.4446 56.6636 68.1318Z" fill="#4BBDE4"/>
<path d="M47.9119 86.5358C50.4602 85.5507 52.4672 83.2675 53.1189 80.6139C53.1069 81.706 53.7818 82.7133 54.6491 83.3753C55.5169 84.0386 56.5633 84.4145 57.5913 84.7809C54.8789 86.2883 52.7284 88.7816 51.6356 91.6861C51.6549 89.7976 50.3606 87.9676 48.5735 87.3576C48.5954 87.1759 48.6173 86.9946 47.9119 86.5358Z" fill="#EA6F7A"/>
<path d="M44.6661 60.4656C45.5592 68.2935 42.5221 75.9599 39.936 83.4028C37.3498 90.8458 35.168 99.0268 37.7163 106.483C38.1953 107.884 38.8427 109.268 38.8835 110.748C38.9238 112.228 38.133 113.873 36.6926 114.217C32.7627 114.92 28.7242 115.073 24.7493 114.638C22.6056 114.403 20.0522 113.614 19.5775 111.51C19.2106 109.885 20.3095 108.343 21.0918 106.871C23.1482 103.002 23.1856 98.3382 22.2972 94.0484C21.4084 89.7581 19.666 85.7003 18.2866 81.5419C14.0045 68.6333 13.2605 54.57 16.1563 41.2808C17.9631 41.13 19.7695 40.9784 21.5025 41.1266C23.6723 42.7555 26.5969 43.3316 29.2225 42.6477C31.8482 41.9647 34.1202 40.0358 35.2213 37.5558C36.2939 39.4572 38.4315 40.7099 40.6151 40.7154C38.4066 41.9887 37.9023 45.2463 39.1975 47.4423C40.4927 49.6388 43.1316 50.7836 45.6804 50.8549C44.0892 51.8116 42.989 53.5428 42.7991 55.3892C42.6093 57.2356 43.334 59.1545 44.6661 60.4656Z" fill="#F6BF4F"/>
<path d="M20.9327 51.631C18.8492 51.631 18.8458 54.8688 20.9327 54.8688C23.0166 54.8688 23.0201 51.631 20.9327 51.631Z" fill="white"/>
<path d="M34.5792 56.5931C32.4953 56.5931 32.4918 59.8317 34.5792 59.8317C36.6627 59.8317 36.6661 56.5931 34.5792 56.5931Z" fill="white"/>
<path d="M25.4816 67.3454C23.3981 67.3454 23.3942 70.5832 25.4816 70.5832C27.5651 70.5832 27.5685 67.3454 25.4816 67.3454Z" fill="white"/>
<path d="M36.0265 75.8223C33.9431 75.8223 33.9396 79.061 36.0265 79.061C38.11 79.061 38.1135 75.8223 36.0265 75.8223Z" fill="white"/>
<path d="M30.6508 89.2623C28.5669 89.2623 28.5639 92.5009 30.6508 92.5009C32.7343 92.5009 32.7377 89.2623 30.6508 89.2623Z" fill="white"/>
<path d="M26.8746 38.6081C26.8136 38.4629 26.7096 38.3233 26.5666 38.2473C26.3767 38.1472 26.2006 38.1407 25.9905 38.1716C26.0459 38.1639 26.1018 38.157 26.1572 38.1493C26.0068 38.1682 25.8509 38.1682 25.6967 38.1583C25.5579 38.133 25.4213 38.0999 25.289 38.0492C25.1829 38.0011 25.0837 37.9392 24.987 37.8744C24.9161 37.8121 24.85 37.7459 24.7877 37.6755C24.746 37.6119 24.7073 37.5457 24.6738 37.4774C24.6708 37.4676 24.6665 37.4577 24.6635 37.4469C24.5982 37.2201 24.4401 37.0101 24.2357 36.8902C24.0359 36.7738 23.7416 36.7244 23.5178 36.797C23.0427 36.9508 22.7231 37.4414 22.8679 37.9418C23.0732 38.6566 23.5956 39.2911 24.273 39.6065C24.6438 39.7783 25.0407 39.899 25.4557 39.8792C25.8526 39.8595 26.2337 39.7714 26.5666 39.5485C26.8802 39.3371 27.0258 38.9668 26.8746 38.6081Z" fill="#4F1239"/>
<path d="M59.873 46.3299C59.663 46.0086 59.2136 45.8436 58.8687 46.067C58.5499 46.2715 58.3781 46.729 58.6053 47.0709C58.6973 47.2097 58.7686 47.3549 58.8476 47.5001C58.8493 47.5031 58.8485 47.5001 58.8498 47.5031C58.8614 47.5327 58.873 47.5624 58.8837 47.5924C58.9133 47.6749 58.9395 47.7574 58.9623 47.8407C58.9829 47.9155 59.0006 47.9915 59.0156 48.0663C59.0233 48.1049 59.0298 48.1432 59.0366 48.1805C59.0371 48.184 59.0375 48.184 59.0379 48.1874C59.0379 48.1874 59.0379 48.1874 59.0379 48.1883C59.0478 48.3532 59.0603 48.516 59.056 48.6823C59.0534 48.7592 59.05 48.8361 59.0431 48.9143C59.0405 48.9396 59.0375 48.9658 59.0349 48.992C59.0336 48.9976 59.0332 49.001 59.0315 49.0096C58.9993 49.1716 58.9645 49.331 58.9133 49.4882C58.8639 49.6398 58.812 49.7893 58.754 49.938C58.7518 49.9423 58.7531 49.9401 58.7501 49.947C58.7291 49.9908 58.708 50.0338 58.6865 50.0776C58.6483 50.1558 58.6126 50.2348 58.5735 50.313C58.2642 50.9299 59.0001 51.5051 59.5221 51.0441C60.1823 50.4625 60.462 49.5664 60.5097 48.7106C60.5552 47.8871 60.325 47.0202 59.873 46.3299Z" fill="#4F1239"/>
<path d="M48.2864 26.8311C48.2027 26.7048 48.115 26.566 48.0008 26.4672C47.8818 26.3637 47.7546 26.267 47.6232 26.1798C47.4006 26.0325 47.1403 25.9204 46.8856 25.8448C46.361 25.6884 45.7953 25.6841 45.2647 25.8082C44.8936 25.8942 44.6384 26.3396 44.7561 26.7035C44.8815 27.0906 45.254 27.3041 45.6514 27.2117C45.6922 27.2018 45.7334 27.1962 45.7742 27.1885C45.9229 27.1752 46.0711 27.1765 46.2193 27.1885C46.3924 27.2194 46.5625 27.2667 46.727 27.3294C46.9607 27.4394 47.1828 27.5768 47.3972 27.7195C47.6262 27.8737 47.9995 27.8208 48.1851 27.6185C48.3728 27.414 48.4501 27.0764 48.2864 26.8311Z" fill="#4F1239"/>
<path d="M19.2167 70.6207C18.9344 69.3406 18.5714 68.0935 18.464 66.7802C18.3575 65.473 18.4361 64.1598 18.7089 62.8775C18.9306 61.8361 17.3415 61.3894 17.1074 62.4354C16.7835 63.8827 16.6572 65.3729 16.7646 66.8528C16.8716 68.3276 17.1602 69.8771 17.8905 71.1805C18.3042 71.9185 19.3898 71.406 19.2167 70.6207Z" fill="white"/>
<path d="M20.5258 75.9249C20.509 75.8248 20.4944 75.726 20.4764 75.6259C20.4407 75.4278 20.3974 75.2311 20.3578 75.0339C20.3282 74.8857 20.1959 74.7315 20.0687 74.658C19.9338 74.5785 19.7354 74.5459 19.5842 74.594C19.4317 74.6434 19.2847 74.7383 19.2078 74.8835C19.1258 75.0395 19.1099 75.1946 19.1447 75.3685C19.1834 75.5619 19.2199 75.7556 19.2607 75.9489C19.2809 76.0434 19.3045 76.1371 19.3268 76.2316C19.35 76.3295 19.3861 76.4232 19.4213 76.5177C19.4729 76.656 19.5524 76.7935 19.6894 76.8661C19.8071 76.9288 19.9287 76.9529 20.061 76.9357C20.1834 76.9189 20.3097 76.8682 20.3956 76.775C20.4983 76.6637 20.5726 76.5185 20.5666 76.3626C20.5606 76.2153 20.5499 76.0709 20.5258 75.9249Z" fill="white"/>
<path d="M24.3309 109.467C24.3546 109.341 24.3876 109.219 24.4297 109.099C24.4937 108.965 24.5642 108.834 24.6553 108.715L24.5827 108.809C24.7206 108.638 24.8164 108.463 24.8164 108.235C24.8164 108.029 24.7253 107.784 24.5715 107.643C24.2648 107.362 23.684 107.281 23.388 107.643C22.9442 108.185 22.6882 108.813 22.6732 109.52C22.6586 110.191 22.9249 111.006 23.5212 111.372C23.7445 111.51 24.044 111.478 24.2454 111.322C24.468 111.15 24.5225 110.904 24.4796 110.637C24.4439 110.413 24.3739 110.199 24.3305 109.977C24.3155 109.807 24.3155 109.636 24.3309 109.467Z" fill="white"/>
<path d="M29.528 115.501C27.0622 115.501 24.5951 115.248 22.2027 114.742C21.118 114.512 20.0166 114.178 19.3078 113.289C17.7385 111.322 19.3567 108.647 20.3237 107.049C22.75 103.041 22.7217 97.4078 20.2365 89.8321C20.0217 89.1774 19.7386 88.3681 19.41 87.429C17.3549 81.5519 13.5299 70.6142 13.4371 60.5581C13.3774 54.0541 14.2318 47.5206 15.0583 41.204C15.0957 40.9179 15.3105 40.6889 15.5927 40.6318C17.5426 40.2426 18.98 40.2426 20.3693 40.2426C20.74 40.2426 21.0407 40.5441 21.0407 40.9144C21.0407 41.2852 20.74 41.5855 20.3693 41.5855C19.1063 41.5855 17.9073 41.5855 16.3265 41.8604C15.5257 47.9824 14.722 54.2994 14.7795 60.5447C14.8697 70.3797 18.6475 81.1824 20.6773 86.9857C21.0094 87.9351 21.2946 88.7521 21.512 89.4141C24.1264 97.3838 24.1135 103.381 21.4724 107.745C20.4092 109.502 19.4474 111.312 20.3572 112.452C20.8238 113.037 21.698 113.263 22.4803 113.429C26.8676 114.356 31.5153 114.4 35.9224 113.558C36.8606 113.379 37.7962 113.124 38.283 112.483C39.1095 111.393 38.3839 109.68 37.7438 108.168L37.6648 107.98C34.323 100.06 36.5895 91.1638 39.2474 83.5065C39.4802 82.8363 39.7109 82.1799 39.9377 81.5342C42.3756 74.5952 44.301 69.1141 44.301 59.872C44.301 59.5013 44.6017 59.201 44.972 59.201C45.3428 59.201 45.6435 59.5013 45.6435 59.872C45.6435 69.3426 43.5857 75.1987 41.2037 81.9797C40.9777 82.6232 40.7475 83.2775 40.5159 83.9464C37.9414 91.3627 35.7359 99.9561 38.9011 107.458L38.9797 107.644C39.7234 109.401 40.6482 111.586 39.3522 113.294C38.5918 114.296 37.3757 114.646 36.1746 114.876C33.997 115.293 31.7631 115.501 29.528 115.501Z" fill="#F4AD29"/>
<path d="M26.8728 121.648C22.8107 121.648 18.6961 121.305 15.0588 120.364C13.4586 119.949 11.7253 119.311 11.0048 117.721C10.4687 116.537 10.6659 115.013 11.5324 113.644C12.0182 112.876 12.6356 112.234 13.2327 111.611C13.4805 111.353 13.7284 111.095 13.9655 110.829C16.9421 107.485 18.2936 102.513 17.5809 97.5268C17.1058 94.2035 15.7853 90.9945 14.509 87.8908C13.96 86.5569 13.3929 85.1779 12.8946 83.7977C7.74129 69.5265 9.25214 54.4601 11.7631 36.2482C11.7884 36.0657 11.8868 35.9007 12.0363 35.7929C12.1858 35.6842 12.3739 35.6425 12.5535 35.6743C14.2813 35.9845 16.1023 35.9634 17.8228 35.6129C18.1914 35.539 18.5471 35.7744 18.6214 36.1404C18.6961 36.5069 18.4594 36.8643 18.093 36.939C16.4365 37.2767 14.6937 37.336 13.0106 37.1147C10.5826 54.8351 9.18384 69.5329 14.1683 83.338C14.6567 84.6908 15.2182 86.0556 15.7612 87.3753C17.0693 90.5555 18.4225 93.8448 18.9212 97.3343C19.6902 102.711 18.2154 108.092 14.9772 111.73C14.7285 112.008 14.469 112.279 14.2096 112.549C13.6339 113.149 13.0896 113.716 12.6764 114.368C12.0548 115.35 11.8911 116.395 12.2386 117.163C12.7232 118.233 14.1077 118.719 15.3986 119.053C24.8568 121.502 38.1073 119.67 43.365 118.767C44.3844 118.592 45.0237 118.184 45.3188 117.519C45.9266 116.15 45.0305 113.894 44.28 112.712C44.024 112.309 43.7581 111.916 43.4892 111.52C41.663 108.823 39.5933 105.768 39.7737 98.0577C39.9099 92.2523 41.8632 86.6196 43.7525 81.1738C46.0817 74.4576 48.2821 68.1144 47.4091 61.4314C47.361 61.0606 47.6222 60.7208 47.9929 60.6723C48.3641 60.625 48.7035 60.8858 48.752 61.2565C49.6662 68.2562 47.3103 75.0483 45.0323 81.6167C43.1769 86.965 41.2588 92.4955 41.1273 98.09C40.9572 105.367 42.8143 108.108 44.6104 110.76C44.8871 111.168 45.1603 111.572 45.4236 111.986C45.5155 112.131 47.6665 115.568 46.5568 118.069C46.071 119.164 45.0735 119.848 43.594 120.102C39.5344 120.798 33.2689 121.648 26.8728 121.648Z" fill="#4E1138"/>
<path d="M48.7286 61.8721C47.8814 61.8721 47.0399 61.7106 46.2606 61.3742C43.7394 60.2852 42.1877 57.3885 42.7273 54.7801C43.0108 53.411 43.7681 52.276 44.6436 51.3554C43.2269 51.3563 41.8406 50.9374 40.7739 50.1027C38.9757 48.695 38.062 46.2494 38.446 43.8708C38.6157 42.8191 39.0341 41.7989 39.6484 40.8869C38.8232 40.9539 38.0293 40.8177 37.3463 40.4667C36.5009 40.0324 35.8526 39.2837 35.4802 38.4159C34.3031 40.3864 32.5843 41.9393 30.5322 42.8367C27.5298 44.1521 24.0313 43.9068 21.401 42.1988C18.631 40.3989 17.0815 37.0752 17.545 33.928C17.5996 33.5573 17.9449 33.3034 18.3135 33.3558C18.6834 33.4108 18.9394 33.754 18.8849 34.1248C18.503 36.7169 19.8411 39.5706 22.139 41.063C24.3556 42.5034 27.4388 42.7126 29.9896 41.5961C32.4293 40.5295 34.4019 38.2883 35.2864 35.5862C35.2989 35.5433 35.3131 35.5003 35.3272 35.4586C35.4475 35.1077 35.8281 34.9199 36.1795 35.0342C36.5314 35.1498 36.7251 35.5269 36.6138 35.8809C36.6022 35.9183 36.5902 35.9548 36.5782 35.9922C36.2199 37.2049 36.8385 38.6831 37.9653 39.2626C38.9435 39.7665 40.3465 39.5882 41.6082 38.8403C41.8067 38.693 42.0124 38.5534 42.2251 38.4236C42.5327 38.2355 42.9339 38.3214 43.1375 38.6182C43.3411 38.9164 43.2758 39.321 42.9889 39.5397C42.7827 39.6961 42.5713 39.84 42.357 39.971C40.9836 41.0102 40.0381 42.5081 39.7829 44.0873C39.4809 45.9555 40.2146 47.9449 41.6086 49.0369C43.0271 50.1466 45.2055 50.3248 46.9054 49.4704C47.222 49.311 47.6073 49.4219 47.7899 49.7269C47.9725 50.0301 47.89 50.4228 47.6009 50.6273C45.4972 52.1162 44.3704 53.5231 44.0534 55.0537C43.6388 57.0577 44.8443 59.2868 46.7976 60.1314C48.6826 60.9442 51.142 60.4192 52.6438 58.8809C54.1147 57.3752 54.6839 55.0185 54.0936 52.8774C53.994 52.5166 54.2058 52.1437 54.5666 52.0449C54.9262 51.9427 55.2999 52.157 55.3991 52.5179C56.1153 55.1143 55.4138 57.9835 53.6125 59.8277C52.3186 61.153 50.5118 61.8721 48.7286 61.8721Z" fill="#4E1138"/>
<path d="M56.6131 56.7101C56.0383 56.7101 55.464 56.6461 54.9042 56.5142C54.5399 56.4296 54.314 56.0653 54.399 55.7014C54.4841 55.3376 54.8488 55.1108 55.2127 55.1967C57.3275 55.6903 59.692 55.0205 61.2316 53.4865C62.7712 51.9512 63.4504 49.5914 62.9615 47.4732C62.4593 45.2956 60.7582 43.5175 58.5226 42.8311C58.2666 42.7533 58.081 42.5308 58.0492 42.2649C58.017 41.9985 58.145 41.7391 58.3757 41.6016C59.9587 40.6612 60.9764 38.8621 60.9678 37.0201C60.9597 35.178 59.9257 33.3901 58.3336 32.463C56.7356 31.5326 54.5881 31.5369 52.441 32.4759C52.185 32.5872 51.8868 32.5309 51.6905 32.3333C51.4933 32.1353 51.4379 31.8371 51.5509 31.582C52.8087 28.7394 51.6308 24.9694 48.979 23.3494C46.3271 21.7286 42.4351 22.4013 40.4801 24.8164C40.2442 25.1068 39.8177 25.1519 39.5277 24.9165C39.2369 24.6811 39.1917 24.2554 39.4272 23.9641C41.8272 20.9991 46.429 20.204 49.6852 22.1934C52.5256 23.9302 53.9476 27.5439 53.2392 30.7537C55.3373 30.1643 57.3864 30.3448 59.0149 31.2929C61.0134 32.4562 62.312 34.702 62.3219 37.0149C62.3305 38.8965 61.4859 40.7429 60.0992 42.002C62.2055 43.0291 63.7627 44.9227 64.2812 47.1686C64.8728 49.7319 64.051 52.5882 62.1878 54.4458C60.732 55.896 58.6683 56.7101 56.6131 56.7101Z" fill="#4E1138"/>
<path d="M12.5723 36.8149C12.3455 36.8149 12.1242 36.7015 11.9962 36.4949C10.2659 33.7013 10.0674 29.9819 11.4906 27.0204C12.9134 24.0588 15.9411 21.8903 19.2034 21.4955C22.0055 21.1557 24.9559 22.1309 27.0553 24.0227C27.8728 21.0457 30.5083 18.4317 33.5592 17.7684C37.2094 16.9754 41.217 18.8991 42.8808 22.2421C43.0475 22.5763 42.9113 22.9831 42.5766 23.1494C42.2411 23.3165 41.8352 23.179 41.6689 22.8457C40.2947 20.0856 36.8563 18.4381 33.8471 19.0915C30.8851 19.7359 28.3887 22.551 28.1636 25.5027C28.1426 25.7789 27.9562 26.0143 27.6928 26.0968C27.4291 26.1801 27.1417 26.0946 26.9655 25.8824C25.1639 23.6937 22.1821 22.4994 19.3658 22.8392C16.5511 23.1803 13.9392 25.052 12.7111 27.6068C11.4833 30.1624 11.6547 33.3714 13.1471 35.7822C13.3443 36.0988 13.2463 36.5168 12.928 36.7135C12.8172 36.7827 12.6939 36.8149 12.5723 36.8149Z" fill="#4E1138"/>
<path d="M12.2991 16.0606C12.0405 16.064 11.8291 16.198 11.6762 16.4004C11.6453 16.4279 11.6268 16.4455 11.6092 16.461C11.5623 16.4906 11.5117 16.5138 11.4618 16.5391C11.064 16.6392 10.1499 16.4652 9.2035 16.427C9.76496 15.3548 9.9746 14.0879 9.6348 12.9332C9.40025 12.0873 8.62914 11.379 7.71456 11.4739C6.6204 11.6157 5.75565 12.5822 5.40081 13.6291C5.00946 13.7335 4.67782 14.112 4.82216 14.5703C4.99013 15.027 5.17313 15.4776 5.36215 15.9253C5.7883 18.248 7.13075 21.5515 8.36795 21.2152C8.9741 21.0558 9.02951 20.3388 8.79883 19.8504C8.51229 19.2081 8.23221 18.5857 7.95813 17.9731C8.02815 17.9258 8.0956 17.8751 8.15488 17.8202C8.17163 17.8047 8.18581 17.7862 8.20256 17.7699C8.8972 17.6552 9.73146 17.7995 10.5649 17.9125C11.0357 17.9851 11.5379 18.0478 11.9911 17.8631C12.3803 17.7115 12.7725 17.4374 12.9546 17.0538C13.1797 16.6104 12.7871 16.0443 12.2991 16.0606ZM7.36616 13.0045C7.78329 12.6935 7.76568 12.6858 8.14543 12.8559C8.81257 13.3508 8.56943 15.4879 7.62305 16.5842C7.53886 16.6104 7.45723 16.6414 7.37905 16.6766C7.11099 16.0726 6.85968 15.4965 6.61911 14.9355C6.57272 14.1077 6.76131 13.3929 7.36616 13.0045Z" fill="#0B6E29"/>
<path d="M17.2918 13.9974C17.2789 13.9699 17.2669 13.9411 17.2544 13.9128C17.2132 13.8037 17.0293 13.3329 17.0065 13.2066C16.9215 12.8977 16.842 12.5875 16.7698 12.2752C16.7608 12.1442 16.7638 12.0132 16.7466 11.8834C16.6758 11.4603 16.7118 10.916 16.3067 10.654C15.9966 10.4649 15.5588 10.6003 15.3999 10.9246C15.3402 11.0423 15.317 11.1643 15.3067 11.2885C15.0871 11.1291 14.7963 11.0732 14.5257 11.2446C13.0269 12.0355 12.2605 14.9133 13.1042 16.3674C14.0785 17.6648 15.6267 16.5543 16.1491 15.4116C16.183 15.3476 16.2028 15.2776 16.2337 15.2127C16.3463 15.3949 16.4889 15.5645 16.6891 15.6371C17.1582 15.8756 17.7587 15.4589 17.7416 14.9429C17.6208 14.2328 17.4825 14.5726 17.2918 13.9974ZM14.3199 15.3369C14.2044 14.8377 14.2452 14.5022 14.5038 13.6224C14.5777 13.3616 14.85 12.8294 14.9823 12.7117C15.0674 12.6657 15.3054 12.5149 15.4231 12.4015C15.4377 12.4874 15.4519 12.5733 15.4669 12.658C15.4605 12.7679 15.4536 12.8668 15.4497 12.9252C15.2508 14.1778 14.8135 14.9528 14.3199 15.3369Z" fill="#0B6E29"/>
<path d="M20.1215 13.3409C20.0193 12.7811 20.0193 12.7261 19.9162 11.8244C19.8333 11.0988 19.7946 10.3686 19.7405 9.64041C19.7418 9.4239 19.6516 9.20911 19.4986 9.0566C19.0141 8.53852 18.0664 8.92988 18.09 9.64041C18.2597 11.1208 18.1454 12.8528 18.6966 14.2284C19.0149 14.7069 19.8058 14.6386 20.0751 14.1437C20.2186 13.8907 20.2074 13.6106 20.1215 13.3409Z" fill="#0B6E29"/>
<path d="M19.3417 5.85589C19.1549 5.07834 18.0143 4.92885 17.6324 5.6325C17.3914 6.05479 16.9614 6.47406 17.1238 6.99944C17.2681 7.57251 17.9778 7.85432 18.4821 7.55189C18.9096 7.17901 19.5016 6.4586 19.3417 5.85589Z" fill="#0B6E29"/>
<path d="M24.5964 11.5077C24.3447 11.0841 23.8597 10.9135 23.3996 10.8246C22.5563 10.5991 22.5443 10.6377 22.2732 10.377C22.2724 10.374 22.2719 10.3714 22.2711 10.3684C22.2711 10.365 22.2715 10.3607 22.2715 10.3572C22.2823 10.3035 22.2973 10.2516 22.3153 10.2C22.3347 10.1815 22.3549 10.1639 22.375 10.1472C22.5245 10.035 22.6861 9.94397 22.8523 9.8602C22.9533 9.92077 23.0662 9.96244 23.1784 9.94268C23.8124 9.96588 24.1617 9.11917 23.6995 8.68571C23.312 8.03575 22.1435 8.33474 21.2422 9.21582C20.6125 9.9139 20.6979 11.1262 21.5326 11.6241C22.1117 12.0343 23.001 12.1267 23.4232 12.2281C23.4228 12.2818 23.4198 12.3368 23.4168 12.3819C23.4061 12.4433 23.3932 12.5039 23.3751 12.5644C23.2063 12.8888 23.2462 12.7943 23.1281 12.9438C23.1083 12.9648 23.0873 12.9846 23.0658 13.0043C23.0641 13.0056 23.0641 13.0056 23.0628 13.0065C23.0598 13.0086 23.0568 13.0108 23.0534 13.0134C22.7492 12.8703 22.3476 12.9296 22.1555 13.2187C21.5984 13.9228 22.5744 14.7076 23.2845 14.4868C24.4328 14.1273 25.0771 12.5941 24.5964 11.5077Z" fill="#0B6E29"/>
<path d="M28.5104 10.6631C29.1123 10.4737 29.7545 10.1515 29.9452 9.50068C30.3439 7.96878 28.6784 6.55889 27.2535 7.3519C26.3969 7.75184 25.8629 8.58008 25.6343 9.51701C25.4707 9.71719 25.4397 9.99771 25.5248 10.2374C25.3908 12.0309 26.2968 13.9327 28.2187 13.9843C28.6672 13.9546 29.181 13.9392 29.5586 13.6732C30.0028 13.3773 29.9401 12.6435 29.48 12.3931C29.3133 12.2225 28.6934 12.3368 28.6707 12.3557C28.2823 12.3961 28.1693 12.3763 28.1431 12.3763C27.5494 12.3084 27.1611 11.6671 27.0898 10.8513C27.5675 10.8818 28.0439 10.8414 28.5104 10.6631ZM28.3382 8.65182C28.3729 8.6892 28.4228 8.73731 28.4589 8.77039C28.4808 8.80561 28.4988 8.84299 28.5169 8.88036C28.5237 8.90012 28.5289 8.91559 28.5375 8.94437C28.5465 8.98046 28.5508 9.00022 28.556 9.02341C28.5564 9.03201 28.5577 9.04403 28.5577 9.05306C28.5572 9.05434 28.5568 9.05649 28.5564 9.05864C28.5409 9.07411 28.5263 9.09043 28.51 9.10461C28.4825 9.12007 28.455 9.13554 28.4297 9.14756C27.7943 9.38727 27.4966 9.43925 27.2874 9.43023C27.5615 8.7618 27.9782 8.57235 28.3382 8.65182Z" fill="#0B6E29"/>
<path d="M40.3569 7.16027C40.0128 7.68479 40.179 7.83772 39.9496 8.18182C39.4861 8.92114 38.7472 9.5479 37.9241 10.0759C37.8326 10.1175 37.785 10.1394 37.7519 10.1549C37.7325 10.1613 37.6904 10.1768 37.5899 10.2163C37.5474 10.2309 37.5031 10.2374 37.4593 10.2486C37.455 10.2464 37.4507 10.2438 37.4464 10.2408C37.4288 10.2241 37.4104 10.2056 37.3919 10.1867C37.3867 10.1781 37.3781 10.1613 37.3713 10.1506C37.3635 10.1188 37.3558 10.09 37.3519 10.0737C37.3438 9.85247 37.3773 9.46671 37.388 9.33568C37.5113 8.52506 37.7802 7.74536 38.0706 6.97984C38.12 6.79985 38.0943 6.60181 37.9997 6.44114C37.7154 5.91533 36.8605 6.02445 36.7196 6.60825C36.1633 8.11395 34.9643 11.2546 37.3579 11.6847C38.2261 11.6297 39.0557 11.0665 39.7155 10.3959C39.6055 10.8556 39.4732 11.3208 39.3027 11.7813C39.1296 12.2929 38.4508 13.6058 37.9894 14.0018C37.8979 14.092 37.8039 14.1801 37.7055 14.2626C37.6681 14.2866 37.6277 14.3064 37.5878 14.3262C37.5384 14.3429 37.4877 14.3528 37.437 14.3635C37.4142 14.3648 37.391 14.3635 37.3683 14.3614C37.3253 14.3515 37.2832 14.3373 37.242 14.3227C37.2415 14.3227 37.242 14.3227 37.2415 14.3227C37.2359 14.3184 37.2342 14.3176 37.2291 14.3141C37.2046 14.2922 37.1797 14.269 37.1569 14.2437C37.0435 14.0646 36.9937 13.8382 36.7999 13.7256C36.397 13.366 35.692 13.6191 35.5674 14.1337C35.4265 15.1995 36.705 16.0398 37.6844 15.8065C38.4018 15.6613 38.9246 15.1059 39.3418 14.5397C40.7895 12.6053 41.2324 10.1308 41.4545 7.77844C41.512 7.1912 40.8208 6.69846 40.3569 7.16027Z" fill="#0B6E29"/>
<path d="M46.2293 9.23747C46.198 9.0055 46.146 8.77782 46.0407 8.56431C45.6936 7.88385 44.8736 7.30864 44.0947 7.5694C43.5556 7.74724 43.2394 8.18284 43.1776 8.65238C42.0323 9.82472 41.2728 11.7626 42.6737 12.7347C44.2906 13.4242 45.7916 11.8416 46.1176 10.6439C46.1314 10.5924 46.1387 10.5374 46.1511 10.4846C46.1868 10.4803 46.2268 10.4846 46.262 10.4781C46.8492 10.2689 46.7448 9.41661 46.2293 9.23747ZM43.4959 11.4206C43.4834 11.3686 43.4667 11.3184 43.4576 11.2655C43.4542 11.2204 43.4516 11.1697 43.4529 11.1268C43.4529 11.1246 43.4534 11.1212 43.4534 11.1191C43.471 11.0465 43.5028 10.9133 43.5393 10.8166C43.6282 10.6804 43.9001 10.2363 44.0028 10.0666C44.0049 10.0623 44.0075 10.0588 44.0105 10.0545C44.2399 10.1877 44.4865 10.2955 44.7541 10.3724C44.5067 10.9279 44.0299 11.3863 43.4959 11.4206Z" fill="#0B6E29"/>
<path d="M50.5184 10.0604C50.1829 10.1472 50.0347 10.4595 49.8818 10.74C49.5609 11.2942 49.2662 11.8694 48.88 12.3832C48.8284 12.4425 48.7391 12.5413 48.6592 12.6173C48.6154 12.6392 48.5415 12.6822 48.4873 12.7161C48.474 12.7196 48.4611 12.7239 48.4478 12.7281C48.4465 12.6964 48.4448 12.6568 48.4448 12.6096C48.4036 11.9377 49.1107 10.8964 49.6468 9.63256C49.7941 8.88165 48.6746 8.50104 48.3147 9.17291C47.6187 10.5188 46.2651 12.3312 47.3219 13.8038C49.1768 15.3808 50.5356 12.6581 51.2796 11.2701C51.7329 10.728 51.2148 9.8568 50.5184 10.0604Z" fill="#0B6E29"/>
<path d="M54.0678 11.6987C53.8685 11.7198 53.6877 11.7803 53.5137 11.8551C53.5648 11.7331 53.6185 11.6119 53.6692 11.4899C53.7401 11.2468 53.6597 10.9895 53.4888 10.8082C53.1837 10.4881 52.6038 10.5616 52.389 10.9499C51.9092 12.0673 51.3962 13.1705 50.8803 14.2711C50.6522 14.6474 50.547 15.1762 50.8911 15.5181C51.4499 16.068 52.0733 15.4589 52.4088 14.9751C52.9114 14.3724 53.4123 13.7556 54.0201 13.2551C54.0468 13.2375 54.0777 13.2186 54.1082 13.201C54.1117 13.2031 54.1151 13.2044 54.1181 13.2065C54.1198 13.2065 54.1211 13.2078 54.1228 13.2087C54.1606 13.2495 54.2173 13.3079 54.2603 13.3483C54.6559 14.0709 55.7209 13.9953 55.7806 13.0833C55.6762 12.3169 54.8312 11.6789 54.0678 11.6987Z" fill="#0B6E29"/>
<path d="M62.5131 17.1698C62.5526 16.8489 62.5208 16.5169 62.4207 16.2299C61.7227 14.5008 59.2397 15.0464 58.2671 16.2441C57.3692 17.0942 57.2477 19.0364 58.5961 19.4926C58.7869 19.53 58.9759 19.5411 59.1628 19.5377C58.3869 20.1314 57.6425 20.5086 56.8031 20.4987C56.7528 20.4845 56.6926 20.4682 56.6458 20.457C56.6411 20.4549 56.6372 20.4527 56.6329 20.4493C56.7107 20.3436 56.8185 20.3363 56.8808 19.8612C56.8125 18.8293 55.5568 18.8568 55.2106 19.728C54.7161 20.5958 55.2815 21.6865 56.2321 21.8966C57.1012 22.1418 57.975 21.7956 58.7658 21.4502C60.2848 20.7388 61.8515 18.7868 62.5251 18.3061C62.5483 18.2962 62.5719 18.2842 62.5951 18.2743C62.6476 18.2541 62.6123 18.2666 62.5591 18.2829C62.6248 18.2391 62.6841 18.2047 62.7296 18.1961C63.1347 17.919 62.9526 17.2721 62.5131 17.1698ZM60.824 16.7192C60.8343 16.7222 60.8356 16.7235 60.8446 16.7256C60.8854 16.7454 60.9236 16.7695 60.9623 16.794C60.9687 16.8171 60.9752 16.8399 60.9795 16.8554C60.979 16.9138 60.9752 16.9731 60.9713 17.0182C60.9666 17.0414 60.9614 17.0633 60.9563 17.0843C60.7612 17.2721 60.7037 17.5032 60.7471 17.7231C60.5855 17.7859 60.4232 17.8451 60.2591 17.8945C59.5554 18.1192 59.3625 18.1686 59.1194 18.1278C59.1082 18.0234 59.103 17.9177 59.1073 17.8134C59.1078 17.8035 59.1091 17.7936 59.1095 17.7837C59.1254 17.7068 59.152 17.5934 59.1842 17.5307C59.3703 17.2295 60.2256 16.5246 60.824 16.7192Z" fill="#0B6E29"/>
<path d="M65.8816 17.1164C64.7613 18.1414 62.957 19.129 61.5428 20.5742C61.3022 20.8775 61.0359 21.2589 61.1042 21.6649C61.1485 22.326 62.0484 22.6117 62.4943 22.1379C62.6065 22.03 62.667 21.8913 62.707 21.7452C62.7435 21.6769 62.7856 21.612 62.8307 21.5506C62.8376 21.5416 62.8393 21.5394 62.8479 21.5296C64.2793 19.9865 65.6166 19.5642 67.0892 17.9292C67.438 17.2165 66.4199 16.5378 65.8816 17.1164Z" fill="#0B6E29"/>
<path d="M68.1373 23.7972C68.3216 23.32 68.4161 22.8238 68.1931 22.3323C67.7249 21.1699 66.1144 20.9809 65.1001 21.5032C64.2019 21.8912 63.3998 22.7435 63.4578 23.7762C63.5296 24.8583 63.9944 25.3029 64.6276 25.4215C64.6177 25.4301 64.6057 25.437 64.5962 25.4468C64.1477 25.9572 64.5885 26.8159 65.2561 26.7962C65.3871 26.8434 65.6517 26.6896 65.7656 26.6157C66.6698 25.9108 68.0071 25.0718 68.121 24.6396C68.3465 24.4055 68.3572 24.0271 68.1373 23.7972ZM66.6913 22.9514C66.6939 22.9591 66.6956 22.9668 66.6978 22.9746C66.6978 22.9845 66.6973 22.9935 66.6973 23.0042C66.6917 23.033 66.6879 23.0626 66.681 23.0901C66.6741 23.1185 66.666 23.1473 66.6565 23.1748C66.6505 23.1902 66.6488 23.1945 66.6449 23.2044C66.5405 23.4738 66.3751 23.7268 66.2733 23.9974C65.9404 24.0644 65.4451 24.0777 65.2879 24.0799C65.2569 24.0756 65.2264 24.0709 65.1955 24.0657C65.1534 24.0567 65.1134 24.0412 65.0718 24.0292C65.064 23.9996 65.0567 23.9686 65.0499 23.9368C65.052 23.8733 65.0494 23.7332 65.0439 23.6486C65.0507 23.6189 65.0559 23.5893 65.0653 23.5605C65.0924 23.518 65.1281 23.4574 65.1564 23.4067C65.5671 23.0021 65.5044 23.0528 66.1371 22.8457C66.5083 22.8238 66.5994 22.926 66.6913 22.9514Z" fill="#0B6E29"/>
<path d="M65.7942 26.5979C65.7864 26.6035 65.7773 26.6091 65.766 26.6156C65.7422 26.6347 65.7154 26.6546 65.692 26.6723C65.7409 26.6368 65.7734 26.6122 65.7942 26.5979Z" fill="#DE7746"/>
<path d="M65.7934 26.5988C65.8264 26.5771 65.8345 26.5699 65.7934 26.5988V26.5988Z" fill="#DE7746"/>
<path d="M69.0091 25.6223C68.3175 25.8061 67.8132 26.4505 67.7444 27.1546C67.7101 27.2963 67.6954 27.8694 67.7002 28.0408C67.6877 28.0473 67.6778 28.0528 67.6637 28.0606C67.6632 28.0606 67.6624 28.0606 67.6619 28.0606C67.6435 28.0619 67.6237 28.0606 67.6022 28.0606C67.585 28.0563 67.5666 28.0494 67.5442 28.043C67.5249 28.0318 67.5064 28.0219 67.4781 28.0069C67.4605 27.9944 67.4527 27.9893 67.4394 27.9802C67.3814 27.9317 67.3277 27.8793 67.2783 27.823C66.9991 27.2293 66.0686 27.25 65.8933 27.9197C65.7413 28.6422 66.551 29.1461 67.1477 29.3317C67.8553 29.5156 68.7243 29.1822 68.9795 28.4652C69.211 27.4141 69.0461 27.2654 69.3042 27.03C69.3133 27.0244 69.3223 27.0193 69.3326 27.0124C69.333 27.0124 69.3335 27.0124 69.3339 27.0124C69.3631 27.0214 69.3957 27.0313 69.4301 27.042C69.4748 27.0622 69.5547 27.1017 69.6217 27.1421C69.6548 27.1709 69.6977 27.2096 69.7364 27.2491C69.754 27.2753 69.7691 27.3041 69.7845 27.3324C69.7605 27.4437 69.7386 27.5953 69.7639 27.6636C69.8189 28.4116 70.9723 28.4816 71.1429 27.7569C71.554 26.5673 70.1389 25.4002 69.0091 25.6223Z" fill="#0B6E29"/>
<path d="M70.7299 29.0229C69.9863 29.2966 69.4072 30.0127 69.4278 30.8242C69.4321 30.944 69.4257 31.3521 69.4304 31.4861C69.4304 31.4874 69.4304 31.4874 69.4304 31.4887C69.4214 31.4909 69.4128 31.4939 69.4038 31.496C69.3793 31.4973 69.3548 31.4973 69.3303 31.496C69.2762 31.4797 69.2057 31.4612 69.1525 31.4488C69.1181 31.4312 69.085 31.4114 69.0524 31.3908C69.0515 31.3886 69.0498 31.3861 69.0489 31.3839C69.0399 31.3534 69.03 31.316 69.0206 31.2709C68.9867 31.0488 68.8492 30.8486 68.655 30.7352C68.1 30.3843 67.3474 30.9629 67.5424 31.591C67.7898 32.8488 69.5683 33.314 70.4734 32.4596C70.9112 32.0627 70.9254 31.4642 70.9761 30.9144C70.9804 30.8959 70.9816 30.8869 70.9872 30.8585C70.9928 30.8362 71.0014 30.8164 71.0079 30.7958C71.0079 30.7945 71.0079 30.7945 71.0079 30.7937C71.0246 30.776 71.0409 30.7571 71.0697 30.7232C71.0916 30.7022 71.1157 30.6837 71.1389 30.6626C71.172 30.6407 71.208 30.6231 71.2424 30.6034C71.2553 30.6034 71.2686 30.6034 71.2819 30.6042C71.3236 30.6132 71.3708 30.6261 71.4172 30.6416C71.425 30.6437 71.4258 30.645 71.4327 30.6472C71.4645 30.6626 71.4976 30.6781 71.5281 30.6944C71.7064 30.767 71.7755 30.9792 71.8404 31.0806C71.9847 31.4337 71.7802 31.2598 71.9628 31.8766C72.2541 32.7006 73.575 32.4265 73.542 31.5579C73.7048 30.0831 72.2253 28.5478 70.7299 29.0229Z" fill="#0B6E29"/>
<path d="M70.4893 36.2579C70.2242 35.0199 68.3341 35.4894 68.661 36.709C68.9256 37.9471 70.8158 37.4775 70.4893 36.2579Z" fill="#0B6E29"/>
<path d="M69.2782 40.6541C69.1433 42.0055 71.1082 42.1967 71.1778 40.8353C71.3131 39.4839 69.3482 39.2936 69.2782 40.6541Z" fill="#0B6E29"/>
<path d="M59.5782 76.3171C59.5413 76.3171 59.5035 76.3137 59.4665 76.3072C59.1293 76.251 58.887 75.9528 58.9012 75.6122C58.9274 74.982 59.0163 74.3595 59.1624 73.7512C59.1319 71.9113 58.1773 70.0143 55.8576 69.006C55.6166 68.9016 55.4581 68.6662 55.4508 68.4033C55.4439 68.1404 55.5899 67.8973 55.8249 67.78C58.2478 66.569 60.2338 64.44 61.2729 61.9381C61.4108 61.6047 61.7867 61.4389 62.1265 61.5609C62.4659 61.6829 62.6502 62.0489 62.5458 62.3943C62.2262 63.4502 62.5445 64.6741 63.3384 65.4405C64.0699 66.1467 65.1757 66.4358 66.1616 66.1974C66.2574 66.1678 66.3528 66.139 66.4494 66.1128C66.8012 66.0157 67.1685 66.2159 67.2768 66.5656C67.3846 66.9152 67.1952 67.2881 66.8489 67.4058C66.7458 67.441 66.6414 67.472 66.5366 67.4995C63.6292 68.4175 61.2699 71.0165 60.5074 73.9746C60.4988 74.619 60.4009 75.2479 60.2264 75.833C60.1401 76.1234 59.8729 76.3171 59.5782 76.3171ZM57.5291 68.3694C58.7736 69.1766 59.5855 70.2488 60.043 71.4035C60.9056 69.744 62.2073 68.3088 63.7851 67.3036C63.2713 67.0991 62.7967 66.8001 62.398 66.4152C61.904 65.9379 61.5367 65.3382 61.3159 64.6883C60.3214 66.1544 59.0215 67.4213 57.5291 68.3694Z" fill="#4E1138"/>
<path d="M51.6163 94.0098C51.5849 94.0098 51.5532 94.0077 51.5214 94.0034C51.1708 93.954 50.9174 93.6438 50.9397 93.2907C50.9642 92.9015 51.0149 92.5166 51.0901 92.1368C51.1463 90.5667 50.5398 88.497 47.4687 87.2443C47.2397 87.1506 47.0799 86.9406 47.0515 86.6957C47.0232 86.4504 47.1306 86.2081 47.3325 86.0655C49.7635 84.3386 51.716 81.9995 52.9785 79.3C53.1203 78.995 53.4631 78.8412 53.7857 78.937C54.1075 79.0336 54.3098 79.3502 54.2621 79.6823C54.0963 80.8362 54.5297 82.1086 55.4229 83.0851C56.316 84.0615 57.5437 84.6092 58.7079 84.5456C59.0666 84.5203 59.3725 84.7853 59.4163 85.1385C59.4592 85.4912 59.2221 85.8181 58.8728 85.8859C55.7059 86.5007 53.1018 89.1589 52.4398 92.2911C52.4201 92.6781 52.3655 93.0742 52.2766 93.4789C52.2074 93.792 51.929 94.0098 51.6163 94.0098ZM49.0177 86.4878C50.4337 87.2761 51.4389 88.3518 51.9819 89.622C52.9261 87.8152 54.4378 86.2996 56.2532 85.3747C55.5844 85.0513 54.9615 84.5873 54.4232 83.9988C53.8291 83.3488 53.3952 82.6091 53.1396 81.8345C52.0373 83.6018 50.6424 85.178 49.0177 86.4878Z" fill="#4E1138"/>
</svg>
