<svg width="107" height="117" viewBox="0 0 107 117" fill="none" xmlns="http://www.w3.org/2000/svg">
<path d="M89.9914 62.9272C92.3143 56.0045 94.6592 48.967 94.9449 41.6706C95.2315 34.3753 93.1808 26.6548 87.8697 21.644C82.7935 16.8548 74.9963 15.1738 68.3983 17.4457C69.466 13.7806 69.0172 9.09162 66.5757 6.16517C64.1342 3.23831 60.1615 1.92301 56.3495 1.91895C52.538 1.91611 48.8258 3.06827 45.2375 4.35313C35.198 7.94596 25.5725 12.6605 16.4705 18.2115C12.667 20.5316 8.79174 23.1736 6.76461 27.1402C4.7387 31.1076 5.30483 36.7438 9.2832 40.5038C5.91399 43.285 2.27855 46.5535 1.94292 50.9085C1.69171 54.1645 3.44328 57.3178 5.84094 59.5349C8.23778 61.7532 11.232 63.1951 13.6487 64.9365C7.84088 67.8069 6.94236 76.2856 10.1257 81.9279C13.3091 87.5705 19.2163 91.027 24.8533 94.2205C35.1586 100.057 45.4639 105.895 55.7688 111.732C59.6834 113.95 63.7186 116.208 68.1747 116.829C74.0905 117.65 80.1069 115.435 84.9907 111.999C89.8761 108.562 93.8115 103.971 97.6916 99.431C101.977 94.4181 106.512 88.7227 106.247 82.1316C105.93 74.2089 98.9197 68.4291 89.9914 62.9272Z" fill="#BEC3C9"/>
<path d="M88.0721 61.0079C90.3955 54.0856 92.7404 47.0477 93.0261 39.7516C93.3126 32.456 91.2619 24.7359 85.9508 19.7251C80.8747 14.9354 73.0774 13.2545 66.4782 15.5267C67.5471 11.8613 67.0983 7.17268 64.6568 4.24623C62.2153 1.31856 58.2426 0.00406895 54.4307 1.06818e-05C50.6187 -0.00404769 46.907 1.14892 43.3174 2.43419C33.2791 6.02661 23.6536 10.7403 14.5512 16.2925C10.7477 18.6123 6.87286 21.2542 4.84573 25.2208C2.81982 29.1887 3.38596 34.8248 7.36392 38.5849C3.9947 41.3648 0.359669 44.6346 0.0240465 48.9896C-0.227569 52.2456 1.52441 55.3989 3.92125 57.616C6.3189 59.8338 9.31313 61.2762 11.7299 63.0172C5.922 65.888 5.02227 74.3654 8.20683 80.0089C11.3898 85.6512 17.2975 89.1081 22.9337 92.3016C33.2398 98.1383 43.5446 103.976 53.8499 109.813C57.7646 112.031 61.7998 114.29 66.2558 114.91C72.1716 115.731 78.1881 113.516 83.0718 110.08C87.9568 106.643 91.8926 102.052 95.7728 97.5117C100.058 92.4988 104.594 86.8026 104.328 80.2127C104.01 72.2896 97.0008 66.5102 88.0721 61.0079Z" fill="#F9F5ED"/>
<path d="M51.4666 44.8353C52.3188 56.1482 57.6048 67.0692 65.988 74.002C70.6912 71.2488 74.6911 67.3029 77.6687 62.7807C81.3764 65.8484 85.0844 68.9165 88.7913 71.9846C90.2052 73.1542 91.6577 74.3729 92.4795 76.0133C93.7116 78.4746 93.3046 81.4023 92.8691 84.1202C92.516 86.3259 92.1617 88.5316 91.6025 90.2365C86.2731 95.8093 80.1942 100.665 73.7496 104.933C67.9348 105.641 61.8644 103.955 57.2472 100.349C57.2472 100.349 24.9917 80.6377 24.8079 80.3881C21.5807 78.7924 19.1124 75.7361 18.2293 72.2463C17.3471 68.7566 18.0674 64.8939 19.6019 62.0324C24.303 54.923 31.007 49.4167 37.6074 44.0236C39.1451 42.7675 40.7928 41.4628 42.7615 41.2018C45.8397 40.7936 48.5787 43.0179 51.4666 44.8353Z" fill="#6E89A4"/>
<path d="M83.3877 30.7857C82.2494 28.5602 80.4446 26.7108 78.3534 25.3415C73.1003 21.9029 65.9349 21.6367 60.442 24.6755C56.0444 27.1089 52.8785 31.5816 51.8136 37.7072C51.6829 37.7206 51.551 37.7234 51.4212 37.7393C50.0507 44.4696 51.5052 51.4771 54.4361 57.5962C57.3658 63.7157 61.696 69.0536 66.262 74.0718C75.8535 66.5237 82.5006 55.3284 84.5358 43.2943C84.4766 43.2797 84.4173 43.2643 84.3593 43.2488C84.593 42.0776 84.7769 40.8987 84.8735 39.708C85.1206 36.6638 84.7789 33.5044 83.3877 30.7857ZM76.7857 41.255C76.8437 44.3738 74.8239 47.4305 71.9315 48.5981C69.0391 49.7669 65.4633 48.9723 63.3388 46.6874C61.2139 44.403 60.6798 40.7789 62.0556 37.9791C61.804 37.9385 61.5507 37.919 61.2991 37.8837C62.25 35.7235 64.0795 33.9346 66.3359 33.2167C69.9121 32.0779 74.1757 33.752 76.0231 37.0181C76.7605 38.322 77.0754 39.8232 77.017 41.3163C76.9403 41.2956 76.8624 41.2757 76.7857 41.255Z" fill="#EA6F7A"/>
<path d="M84.1855 76.1704C80.6791 73.7589 77.1727 71.3487 73.6663 68.9372C71.2646 70.1507 68.9063 72.1319 66.5468 74.1144C60.6383 67.5148 56.2269 60.6437 52.753 53.3265C50.5712 51.3493 48.5961 49.7775 46.4176 48.5742C39.5659 52.7693 33.8372 57.9733 28.9956 65.1671C41.9295 73.7934 54.8629 82.4206 68.5196 90.7154C74.3481 86.5678 79.7566 81.8325 84.1855 76.1704Z" fill="#F6BF4F"/>
<path d="M44.6002 69.0243C43.6124 68.2256 42.6295 67.5597 41.6673 66.7147C40.7282 65.8889 39.839 65.009 39.0172 64.0655C38.7096 63.7124 38.1061 63.7497 37.7904 64.0655C37.4401 64.4157 37.4815 64.9384 37.7904 65.2927C38.6223 66.2472 39.518 67.149 40.4891 67.9627C41.4761 68.7885 42.5329 69.6331 43.6956 70.1964C44.03 70.3583 44.4257 70.3157 44.6587 70.004C44.8612 69.7321 44.8932 69.2613 44.6002 69.0243Z" fill="white"/>
<path d="M50.8576 74.1869C50.7984 73.9799 50.7091 73.7868 50.6117 73.5956C50.5439 73.4657 50.4368 73.3472 50.3508 73.2287C50.1296 72.9256 49.8914 72.6326 49.6621 72.3355C49.5675 72.2336 49.4563 72.1618 49.3273 72.1204C49.2027 72.0551 49.0696 72.0246 48.9263 72.0311C48.783 72.0246 48.6499 72.0551 48.5253 72.1204C48.3967 72.1618 48.2855 72.2336 48.1909 72.3355C48.0091 72.5327 47.874 72.7937 47.8866 73.0709C47.8987 73.1626 47.9113 73.2547 47.9239 73.3472C47.9726 73.523 48.0619 73.6756 48.1909 73.8054C48.378 74.0311 48.5598 74.2596 48.753 74.4799C48.8443 74.5838 48.9304 74.7043 49.0342 74.7957C49.1986 74.9409 49.3711 75.0781 49.563 75.182C49.6341 75.2112 49.7035 75.2413 49.7741 75.2705C49.852 75.2806 49.9299 75.2924 50.0078 75.3025C50.0858 75.2924 50.1637 75.2806 50.2416 75.2705C50.3569 75.2433 50.4567 75.1913 50.5419 75.1134C50.6085 75.0741 50.6604 75.0209 50.6998 74.9547C50.755 74.9008 50.7923 74.835 50.813 74.7603C50.8524 74.6918 50.8735 74.6179 50.8735 74.538C50.8994 74.4215 50.8942 74.3042 50.8576 74.1869Z" fill="white"/>
<path d="M81.2373 31.5832C81.0494 31.1875 80.4841 31.0836 80.129 31.2922C79.7268 31.5272 79.6448 32.0061 79.8368 32.401C80.6005 33.9654 80.7264 35.7304 80.4593 37.4791C80.4033 37.8468 80.5527 38.221 80.9414 38.3277C81.3217 38.4316 81.6663 38.1991 81.7892 37.846C82.5019 35.8055 82.1529 33.4979 81.2373 31.5832Z" fill="white"/>
<path d="M18.6977 69.3654C18.4899 69.3654 18.2939 69.2388 18.2159 69.033C18.1129 68.766 18.2468 68.4665 18.513 68.365L21.4821 67.2271C21.7459 67.1264 22.0482 67.2583 22.1501 67.5254C22.2532 67.7924 22.1192 68.0915 21.8522 68.1934L18.8827 69.3309C18.8227 69.3541 18.7602 69.3654 18.6977 69.3654Z" fill="#4E1138"/>
<path d="M18.6261 72.3137C18.4297 72.3137 18.2418 72.2005 18.1545 72.0094C18.0368 71.7496 18.1521 71.4432 18.413 71.3259L22.8958 69.2988C23.1556 69.1815 23.4624 69.2968 23.5805 69.5573C23.6982 69.8171 23.5829 70.1239 23.322 70.242L18.8391 72.2679C18.7693 72.2991 18.6975 72.3137 18.6261 72.3137Z" fill="#4E1138"/>
<path d="M19.6348 75.0254C19.4425 75.0254 19.2574 74.917 19.1681 74.7332C19.0443 74.4755 19.1515 74.1662 19.4092 74.0424L24.9561 71.366C25.2146 71.2426 25.5235 71.3506 25.6468 71.607C25.7706 71.8648 25.6635 72.1736 25.4058 72.2982L19.8593 74.9742C19.7862 75.0087 19.7095 75.0254 19.6348 75.0254Z" fill="#4E1138"/>
<path d="M70.308 99.734C67.8206 99.734 65.5829 98.37 63.7733 97.2678L41.8754 83.9289C34.7494 79.5882 27.3815 75.0988 21.848 68.5467C20.4735 66.9185 18.7126 64.4417 19.2884 61.7445C19.6841 59.885 21.094 58.5044 22.2275 57.3948L34.1886 45.685C36.3557 43.5625 39.0516 40.9225 42.5012 40.134C45.3416 39.4867 47.3063 41.3454 49.2064 43.1424C49.682 43.5925 50.1747 44.0588 50.6702 44.4723C50.9413 44.7 50.9766 45.103 50.7514 45.3741C50.5245 45.6452 50.1215 45.6817 49.8492 45.4553C49.3249 45.0158 48.8168 44.5357 48.3265 44.0714C46.5206 42.3624 44.9622 40.8852 42.7869 41.3815C39.6896 42.0893 37.1349 44.59 35.083 46.5981L23.1219 58.308C22.1122 59.2978 20.855 60.5291 20.5392 62.0108C20.1902 63.6471 20.9162 65.4607 22.8249 67.7216C28.2253 74.1151 35.5026 78.5484 42.5414 82.836L64.4393 96.1749C66.1584 97.2232 68.2955 98.5226 70.4959 98.4512C72.9345 98.3668 75.0258 96.6879 76.9592 94.9749C81.5512 90.9052 85.9427 86.5137 90.0123 81.9205C91.4088 80.3434 92.6543 78.6438 92.3061 76.8975C92.0723 75.7246 91.1259 74.7543 90.1755 73.8594C86.2702 70.1858 81.9834 66.8844 77.4352 64.0448C77.1349 63.8569 77.0444 63.4628 77.2303 63.1629C77.4174 62.8634 77.813 62.7713 78.1125 62.9592C82.7325 65.843 87.0855 69.1968 91.0525 72.9276C92.1535 73.9633 93.2537 75.1041 93.5613 76.6471C94.0183 78.9473 92.5078 81.0325 90.9693 82.7695C86.8663 87.4 82.4387 91.8289 77.8082 95.9326C75.7924 97.7175 73.4029 99.6314 70.5397 99.73C70.4626 99.732 70.3847 99.734 70.308 99.734Z" fill="#531639"/>
<path d="M68.0333 91.7428C67.9108 91.7428 67.7882 91.7074 67.681 91.6368C64.0586 89.2481 60.1874 86.8253 56.444 84.4824C46.7779 78.4331 36.7835 72.1784 28.6652 65.121C28.4095 64.8986 28.3714 64.5163 28.5767 64.2485C34.0863 57.0819 42.7885 50.1491 45.3246 48.1958C45.5198 48.0452 45.7836 48.0205 46.0027 48.1304C49.0229 49.6515 51.4591 51.3345 53.242 53.1352C53.4903 53.3864 53.4883 53.7914 53.2371 54.0398C52.9867 54.2894 52.5813 54.2861 52.3321 54.0357C50.7177 52.4047 48.5173 50.8649 45.7856 49.4563C43.0036 51.6202 35.1751 57.9516 29.963 64.5516C37.9242 71.3826 47.6808 77.4895 57.1225 83.3988C60.7316 85.6565 64.4583 87.9888 67.9733 90.2976C73.1553 85.6557 78.4953 80.8648 83.6298 75.9632L73.4378 68.9236C73.1468 68.7232 73.0742 68.3242 73.2746 68.0341C73.4763 67.7435 73.874 67.6704 74.165 67.8713L85.0024 75.3565C85.1602 75.4657 85.2609 75.6402 85.2763 75.8313C85.2909 76.0225 85.2203 76.2116 85.0811 76.3447C79.6381 81.5661 73.9552 86.6569 68.4602 91.5784C68.3397 91.6863 68.1871 91.7428 68.0333 91.7428Z" fill="#531639"/>
<path d="M65.9242 75.0706C65.7343 75.0706 65.5464 74.9854 65.4206 74.8255C60.3006 68.2916 54.4992 60.8872 51.826 52.3327C48.8525 42.8277 50.6459 32.9453 56.3932 27.1565C60.0388 23.4837 65.3447 21.3759 70.5966 21.5418C74.6577 21.6624 78.3094 23.0743 80.8787 25.519C83.7784 28.2774 86.8513 33.7971 85.0304 44.4267C82.7946 57.4786 76.137 68.3229 66.2805 74.9619C66.1718 75.0353 66.048 75.0706 65.9242 75.0706ZM70.0446 22.8125C65.3134 22.8125 60.5831 24.7512 57.3011 28.0571C51.8832 33.5135 50.2136 42.893 53.0459 51.9516C55.5901 60.0885 60.8761 66.9483 66.0573 73.5642C75.3505 67.0948 81.6307 56.6962 83.769 44.2104C84.549 39.6578 85.0957 31.2976 79.9968 26.4459C77.656 24.2195 74.3042 22.9322 70.558 22.8198C70.3867 22.8157 70.2163 22.8125 70.0446 22.8125Z" fill="#531639"/>
<path d="M68.7079 49.3388C68.1458 49.3388 67.5825 49.2796 67.029 49.157C62.7848 48.2106 59.6806 43.6154 60.3871 39.3237C61.0945 35.032 65.5132 31.6742 69.8328 32.1417C73.1388 32.4968 74.9995 34.2983 75.978 35.7475C77.4182 37.8805 77.8939 40.6889 77.2186 43.0764C76.1902 46.7155 72.4553 49.3388 68.7079 49.3388ZM69.007 33.3766C65.5558 33.3766 62.2146 36.1038 61.6492 39.5315C61.0478 43.1876 63.6918 47.1023 67.3074 47.9082C70.927 48.7167 74.9808 46.2938 75.9877 42.7282C76.5632 40.693 76.1529 38.2921 74.9175 36.4634C74.0904 35.2398 72.5134 33.7167 69.6957 33.4132C69.466 33.3884 69.2355 33.3766 69.007 33.3766Z" fill="#531639"/>
<path d="M70.2307 106.01C64.6274 106.01 48.5358 96.1184 32.9632 86.5469C31.5448 85.6751 30.1374 84.8099 28.7503 83.9601C15.6005 75.9039 16.7048 71.6496 18.7092 63.9274C18.8679 63.3175 19.031 62.686 19.1954 62.0261C19.2806 61.6824 19.6264 61.4734 19.9693 61.5586C20.313 61.6438 20.522 61.9896 20.4368 62.3325C20.2725 62.9977 20.1073 63.6344 19.9474 64.2484C18.0367 71.6123 17.0769 75.3078 29.4183 82.8692C30.8062 83.719 32.2141 84.5843 33.6332 85.4572C48.6019 94.6578 65.5617 105.063 70.4487 104.723C76.4099 104.278 87.7042 93.5442 90.362 90.0679C91.5142 88.5594 93.088 82.5117 92.2974 77.8637C92.2382 77.5155 92.4719 77.1851 92.8202 77.1259C93.17 77.0666 93.4995 77.3016 93.5575 77.6486C94.3794 82.4751 92.8023 88.981 91.379 90.8438C88.8109 94.2037 77.2963 105.495 70.5432 105.999C70.4434 106.006 70.3387 106.01 70.2307 106.01Z" fill="#531639"/>
<path d="M18.3237 30.7636C17.9102 30.5124 17.4021 30.6889 17.1123 31.0432C16.6906 31.4596 16.2678 31.8751 15.8542 32.3013C15.6659 32.505 15.3794 32.7935 15.0945 33.1158C14.6521 32.4393 14.2033 31.766 13.7731 31.0826C13.2476 30.4653 12.9659 29.2656 12.2086 28.9755C11.47 28.7462 10.7874 29.6313 11.1997 30.2887C12.1149 31.8958 13.1871 33.4055 14.1753 34.9672C14.2491 35.2415 14.5044 35.4615 15.0438 35.5759C15.396 35.58 15.6785 35.3702 15.823 35.0885C15.823 35.093 15.8303 35.0812 15.8542 35.0386C16.148 34.5609 16.7974 33.867 17.5786 33.0719C18.1873 32.4466 19.432 31.5667 18.3237 30.7636Z" fill="#0B6E29"/>
<path d="M22.2369 25.9368C23.1306 24.8845 21.7759 23.8894 21.1047 24.8764C21.0787 24.8346 21.0548 24.7899 21.028 24.7494C20.3409 23.9961 19.2853 23.2782 18.2257 23.5586C17.3365 23.8821 16.7992 24.9636 17.158 25.8548C17.2221 26.0407 17.3093 26.2018 17.4071 26.3504C17.6608 28.1697 18.0719 30.0759 19.5049 31.2573C20.8169 32.1704 22.1882 31.2646 22.448 29.8141C22.6286 28.6567 22.3587 27.4619 21.8871 26.3629C22.0178 26.231 22.1383 26.0906 22.2369 25.9368ZM19.9038 25.8581C19.5203 25.9701 19.1348 25.9754 18.8836 25.8402C18.8576 25.5679 18.8742 25.3001 18.8012 25.001C18.8357 25.0103 18.8689 25.0196 18.9022 25.0322C18.9988 25.0797 19.1461 25.1548 19.2046 25.2002C19.4505 25.2668 19.6875 25.5192 19.9038 25.8581ZM20.6351 29.9554C20.6246 29.9586 20.6165 29.9619 20.6059 29.9647C20.5905 29.9647 20.5864 29.9647 20.5767 29.9647C20.0418 29.7987 19.5544 28.7586 19.1981 27.3459C19.6347 27.38 20.0897 27.3179 20.5219 27.1807C20.7078 27.703 20.8376 28.2038 20.8823 28.5061C20.9342 29.5223 20.9748 29.33 20.6351 29.9554Z" fill="#0B6E29"/>
<path d="M28.0273 23.3015C27.352 23.931 26.8253 25.3595 26.5014 25.532C26.4608 25.5705 26.4077 25.6172 26.361 25.6578C26.3009 25.7024 26.2352 25.7398 26.1698 25.7759C25.6005 25.5506 24.7226 23.2285 25.262 21.8458C25.2754 21.8085 25.2835 21.7866 25.2928 21.7618C25.3074 21.7293 25.3221 21.6973 25.3399 21.666C25.3594 21.634 25.3699 21.6173 25.3821 21.5974C25.3906 21.5881 25.3988 21.578 25.4081 21.5682C25.5311 21.5662 25.7169 21.5455 25.7896 21.4935C26.6102 21.2026 26.3362 19.8873 25.4726 19.9205C21.3753 20.1024 24.0599 30.4961 27.8135 26.6947C28.4242 25.9382 28.9603 25.0519 29.2732 24.1355C29.408 23.4695 28.5935 22.948 28.0273 23.3015Z" fill="#0B6E29"/>
<path d="M34.7774 20.4325C33.734 19.4573 32.7783 18.3924 31.7645 17.3863C31.644 17.2784 31.5283 17.1477 31.409 17.0239C31.409 17.0207 31.409 17.0187 31.409 17.0158C31.2167 16.4765 30.5872 16.4172 30.1863 16.683C29.7601 16.9119 29.5649 17.4935 29.8186 17.9224C29.7362 20.1375 29.6875 22.417 30.2029 24.5655C30.5905 25.3439 31.836 25.0383 31.8185 24.1678C31.836 24.1041 31.7974 23.9742 31.7572 23.8683C31.7446 23.8082 31.7341 23.7469 31.7248 23.6857C31.7146 23.6025 31.702 23.5026 31.6947 23.4393C31.6688 23.2875 31.6541 23.1337 31.6335 22.9823C32.2101 22.6143 33.1505 22.2145 33.5015 21.6731C33.6926 21.8217 33.9012 21.9296 34.1516 21.9414C34.9122 21.9674 35.3322 20.9532 34.7774 20.4325ZM31.4809 21.0084C31.4671 20.547 31.4598 20.0855 31.4577 19.6245C31.7455 19.9203 32.0336 20.2154 32.3213 20.5116C32.1468 20.5883 31.9772 20.6902 31.8278 20.7921C31.7175 20.8692 31.5994 20.9386 31.4809 21.0084Z" fill="#0B6E29"/>
<path d="M39.0534 18.3806C38.5827 17.0486 38.1066 15.7179 37.6736 14.3734C37.7755 14.3174 37.8749 14.2581 37.9768 14.2021C38.297 14.0256 38.6947 13.875 38.7872 13.4789C38.937 12.9806 38.5255 12.4494 38.0072 12.4546C36.9776 12.7257 36.0819 13.4542 35.1384 13.9497C34.612 14.3612 33.7691 14.541 33.5086 15.1997C33.3016 15.8644 34.0986 16.4772 34.6887 16.1067C35.1542 15.823 35.6225 15.5454 36.0925 15.2703C36.5754 16.7256 37.0697 18.1781 37.633 19.6038C37.9354 20.3598 39.1155 20.2766 39.3087 19.4853C39.3753 18.7016 39.2227 18.9905 39.0534 18.3806Z" fill="#0B6E29"/>
<path d="M43.3959 16.1004C43.2067 15.238 43.0314 14.3716 42.8796 13.5023C42.7344 12.5652 42.7384 12.6971 42.6706 11.7888C42.6719 11.5831 42.5866 11.3798 42.4414 11.2353C41.9811 10.7426 41.0814 11.1135 41.1029 11.7888C41.1748 13.1707 41.4385 14.5347 41.6962 15.8926C41.8606 16.4892 41.7888 17.477 42.596 17.5614C43.4563 17.6714 43.6649 16.7538 43.3959 16.1004Z" fill="#0B6E29"/>
<path d="M51.0913 10.8389C50.7163 10.808 50.6303 10.8421 50.5211 10.8993C50.4412 10.3206 50.2634 9.76585 49.8113 9.37016C48.9254 8.59381 47.3171 8.56581 46.5992 9.57876C46.2136 10.0942 46.195 10.707 46.4089 11.2431C46.2376 12.0422 46.1658 12.8607 46.1503 13.6817C46.1171 14.6001 46.1982 15.6013 46.8244 16.3265C47.3918 17.0351 48.4847 17.0964 49.1381 16.471C50.2509 15.452 50.5439 13.9017 50.5905 12.4399C50.6323 12.4297 50.675 12.4245 50.7155 12.4131C51.0706 12.2885 51.511 12.1655 51.61 11.7512C51.7232 11.3709 51.4757 10.9379 51.0913 10.8389ZM48.968 11.213C48.6572 11.2337 48.3808 11.213 48.1357 11.1278C48.229 10.8454 48.3114 10.5637 48.3021 10.2727C48.4806 10.2999 48.6624 10.3758 48.7955 10.5077C48.8171 10.5398 48.8402 10.5718 48.8589 10.6063C48.8763 10.6615 48.8942 10.7163 48.9067 10.7727C48.9347 10.8973 48.9542 11.0479 48.968 11.213ZM48.0517 15.1423C48.0237 15.0965 47.9944 15.0425 47.9705 14.9938C47.9165 14.8525 47.8727 14.7069 47.8447 14.5595C47.8439 14.5084 47.8134 14.4317 47.8147 13.9143C47.796 13.6793 47.8374 13.0052 47.8719 12.521C47.9104 12.5304 47.9486 12.5417 47.9871 12.5482C48.3029 12.6042 48.6231 12.6237 48.9441 12.6282C48.867 13.4447 48.6917 14.2625 48.4246 14.6582C48.1657 15.0352 48.1576 15.0652 48.0517 15.1423Z" fill="#0B6E29"/>
<path d="M59.6168 7.84202C59.3477 7.35665 58.6371 7.27061 58.2516 7.6663C57.6022 8.84361 57.4845 10.2324 57.28 11.5736C56.9444 11.094 56.5674 10.5047 56.1883 9.91663C55.7301 9.11268 54.6514 7.83675 53.8276 8.97023C53.4205 10.1277 53.5204 11.4304 53.3394 12.6418C53.3726 13.3991 52.8844 14.5273 53.3946 15.1332C53.8702 15.6413 54.7991 15.2578 54.7764 14.5598C54.8604 13.6276 54.9611 12.3695 55.0528 11.3139C55.5698 12.139 56.2049 13.126 56.7958 13.7481C57.2987 14.3301 58.2483 14.2136 58.618 13.5468C59.0182 12.6272 58.9549 11.5716 59.1825 10.6013C59.3039 9.94991 59.4658 9.30667 59.6561 8.67114C59.76 8.40288 59.7702 8.09323 59.6168 7.84202Z" fill="#0B6E29"/>
<path d="M13.3022 46.7164C13.0717 46.2509 12.6882 45.6709 12.0859 45.854C10.5795 46.4501 12.0348 47.7886 12.1492 48.2841C12.7973 49.8559 13.0571 50.5884 12.8318 51.7418C12.8119 51.7844 12.79 51.8331 12.7754 51.8716C12.7746 51.8716 12.7746 51.8724 12.7746 51.8724C12.7661 51.8785 12.7539 51.8891 12.7466 51.8944C12.7446 51.8952 12.7413 51.8964 12.7381 51.8976C12.2718 51.911 12.2957 51.8996 11.3875 51.1911C10.7548 50.685 9.80108 49.4196 9.59533 48.9947C9.51538 48.7776 9.34817 48.5978 9.13917 48.4992C8.45047 48.1469 7.62664 48.9054 7.92289 49.6221C8.88877 51.3238 10.3124 53.1837 12.2986 53.6707C14.0879 53.9276 14.8545 52.2507 14.6727 50.7069C14.5367 49.2918 14.012 47.9403 13.3022 46.7164Z" fill="#0B6E29"/>
<path d="M19.0721 42.3261C18.4426 41.5322 18.5092 41.1106 17.9106 40.7149C17.4962 40.51 16.9484 40.7096 16.7592 41.1313C16.5255 41.6061 16.8562 42.0509 17.0876 42.4539C17.4492 43.0813 17.8826 43.658 18.3249 44.2266C18.0112 44.1775 17.6975 44.1267 17.3871 44.0663C15.924 43.7992 15.6424 43.7006 14.5475 43.3435C13.6096 43.2457 13.2654 44.6616 14.1299 45.0293C14.1611 45.0431 14.1932 45.0532 14.2244 45.067C14.2025 46.4696 16.3721 49.1562 16.9009 49.8283C17.2479 50.1505 17.842 50.1119 18.1383 49.7398C18.4102 49.4159 18.3822 48.9212 18.0977 48.6148C18.1338 48.6534 18.1557 48.6741 18.0977 48.6075C17.6736 48.0828 17.2811 47.5345 16.8903 46.9846C16.4455 46.3085 16.2637 46.0467 16.0685 45.6311C17.3059 45.8917 18.5899 46.0069 19.8087 46.3146C19.8813 46.3312 19.9406 46.3466 19.9791 46.3584C19.9499 46.3491 19.9093 46.3365 19.848 46.3158C19.8959 46.3332 19.9471 46.3466 19.9957 46.3633C20.0225 46.3706 20.0331 46.375 20.0225 46.3718C20.0558 46.3823 20.0871 46.3957 20.1216 46.4039C20.7064 46.5191 21.2745 46.0021 21.1905 45.4128C20.8111 44.214 19.7121 43.3889 19.0721 42.3261Z" fill="#0B6E29"/>
<path d="M19.979 46.3584C20.001 46.3657 20.0164 46.3698 20.0225 46.3718C20.0132 46.3686 20.005 46.3657 19.9957 46.3633C19.9904 46.3612 19.9843 46.3604 19.979 46.3584Z" fill="#DE7746"/>
<path d="M25.2223 38.6793C24.8059 38.485 24.385 38.7353 23.9796 38.8465C23.8291 38.8993 23.6752 38.9492 23.5218 38.9991C23.6286 38.5742 23.7304 38.1485 23.8002 37.7151C24.1854 36.6867 22.7901 36.1121 22.4732 37.1843C22.3766 37.7898 22.2394 38.3884 22.086 38.9825C22.0556 39.0604 22.0288 39.1436 22.0036 39.2288C21.8624 38.9878 21.7212 38.7479 21.5799 38.5077C21.5341 38.4151 21.2983 38.0113 21.1343 38.0061C20.513 37.6879 19.7711 38.3705 20.037 39.0178C20.7602 40.3676 21.5454 41.6837 22.3052 43.0136C22.6927 43.5477 22.9119 44.5201 23.7264 44.4568C24.4877 44.3249 24.7641 43.5818 24.437 42.7101C24.3217 42.4576 24.0795 42.3156 23.8218 42.2852C23.5093 41.773 23.2029 41.258 22.896 40.7414C23.4301 40.6854 24.4037 40.355 25.1622 40.1813C25.8249 39.9581 25.8635 38.9577 25.2223 38.6793Z" fill="#0B6E29"/>
<path d="M29.7875 32.958C29.5225 32.4925 29.3853 31.941 29.0822 31.5075C28.7684 31.1167 28.0858 31.2364 27.8902 31.6881C27.719 32.0404 27.9162 32.3894 28.0627 32.7116C28.4535 33.5854 28.9145 34.4259 29.3873 35.2582C29.4125 35.3037 29.432 35.339 29.4551 35.3808C29.3561 35.3402 29.2587 35.2943 29.158 35.2558C28.0907 34.9246 26.5201 34.1016 25.4719 34.0842C24.9731 34.1673 24.788 34.6584 24.8846 35.0752C24.7945 35.2643 24.7714 35.4948 24.866 35.7525C25.3802 36.884 25.8862 38.0195 26.4515 39.1258C26.7612 39.6392 26.9385 40.3206 27.4913 40.6274C28.0753 40.9244 28.8212 40.403 28.7413 39.7524C28.4024 38.9172 27.7056 37.7046 27.0092 36.1933C27.7742 36.4704 28.6499 36.802 29.2668 37.0552C29.7696 37.261 30.255 37.5228 30.7818 37.6644C31.324 37.7659 31.8102 37.2862 31.7623 36.748C31.2607 35.2217 30.2445 34.0342 29.7875 32.958Z" fill="#0B6E29"/>
<path d="M36.9153 28.8662C36.7636 28.4247 36.2579 28.2972 35.8825 28.4652C35.7352 28.3086 35.5753 28.1609 35.3943 28.0269C34.7336 27.4949 33.618 27.0059 32.8668 27.6041C32.7044 27.7372 32.6216 27.9097 32.5985 28.0894C32.2028 28.029 31.754 28.2295 31.6874 28.697C31.4942 30.8008 31.9492 33.2642 33.6374 34.6822C35.7912 36.4557 37.2915 34.4164 37.169 32.1981C37.141 31.3787 37.0099 30.5411 36.7076 29.7858C36.8979 29.5054 37.0379 29.201 36.9153 28.8662ZM34.4499 29.5086C34.5765 29.6239 34.6711 29.7164 34.745 29.7931C34.0063 30.4964 33.4763 30.3325 33.5003 29.2643C33.5068 29.2071 33.5214 29.1519 33.5335 29.0959C33.54 29.0878 33.5461 29.0805 33.5534 29.072C33.5615 29.0699 33.5701 29.072 33.5794 29.0699C33.6127 29.0647 33.646 29.0659 33.6792 29.0626C33.7032 29.0679 33.7206 29.0712 33.7572 29.0793C33.7839 29.0858 33.8099 29.0939 33.8359 29.1024C33.8943 29.1239 33.9791 29.1592 34.0469 29.197C34.1882 29.2915 34.3253 29.393 34.4499 29.5086ZM35.4588 32.748C35.3829 33.3494 35.2518 33.5146 35.1479 33.6238C34.4511 33.3048 34.5445 33.3502 33.9816 32.5857C33.8099 32.3499 33.6654 31.9935 33.5473 31.5853C34.1135 31.7164 34.7648 31.5593 35.3362 31.2164C35.441 31.8596 35.5035 32.6149 35.4588 32.748ZM43.659 26.2867C43.5105 25.3963 43.4046 24.6119 43.3932 23.3384C43.3981 23.2791 43.3993 23.2113 43.3827 23.1626C43.3733 22.9703 43.2613 22.7791 43.101 22.6732C42.5142 22.1996 41.7431 22.8355 41.8961 23.5202C41.9249 24.5737 42.0394 25.6228 42.2325 26.6577C42.2857 26.9507 42.3377 27.2137 42.3823 27.4523C41.9935 26.9608 41.9801 27.0221 41.4753 26.2202C41.4586 26.1776 41.4253 26.1256 41.3941 26.0822C41.3766 26.053 41.358 26.025 41.3413 25.9949C41.3328 25.973 41.3369 25.9856 41.3454 26.0063C41.2902 25.8846 41.2082 25.7754 41.093 25.7072C40.0455 25.2758 40.0715 26.5591 40.0082 27.2404C39.9221 28.1661 39.8824 28.7189 39.7858 29.3475C39.7184 29.2258 39.6413 29.1105 39.5845 28.9839C39.4887 28.7489 38.7627 27.0659 38.6348 26.7502C38.5123 26.4458 38.4563 26.0769 38.1393 25.9097C37.5606 25.5449 36.7749 26.1463 36.9786 26.8009C37.4754 27.919 39.2164 33.2277 40.7655 31.3077C41.0938 30.3418 41.1855 29.3175 41.2476 28.2907C41.6944 28.8654 42.1912 29.4035 42.7001 29.9023C44.6355 30.5216 43.8376 27.2725 43.659 26.2867Z" fill="#0B6E29"/>
<path d="M50.5667 22.7534C50.4868 22.1532 50.6645 21.5067 50.4912 20.9312C50.3021 20.3757 49.5018 20.2365 49.1073 20.6561C48.7319 21.0518 48.8642 21.6439 48.8423 22.1426C48.8444 22.7047 48.8975 23.2648 48.947 23.8248C48.5233 23.3987 48.1037 22.9697 47.6963 22.527C47.0356 21.8849 47.1955 21.7311 46.8059 21.3647C46.381 20.9897 45.6091 21.2989 45.575 21.8716C45.5084 22.9937 45.5539 24.1251 45.6237 25.2469C45.6744 26.0273 45.7316 26.8085 45.7535 27.5897C45.7515 27.8008 45.8396 28.0085 45.9885 28.1571C46.4589 28.6599 47.3793 28.2809 47.3566 27.5897C47.3131 26.4887 47.2401 25.3893 47.1853 24.2883C47.3192 24.4356 47.4511 24.5833 47.5737 24.7359C48.2551 25.3593 48.7985 26.2204 49.613 26.66C51.4303 26.9497 50.4628 23.7915 50.5667 22.7534Z" fill="#0B6E29"/>
</svg>
