<svg width="17" height="19" viewBox="0 0 17 19" fill="none" xmlns="http://www.w3.org/2000/svg">
<mask id="mask0_129_9388" style="mask-type:alpha" maskUnits="userSpaceOnUse" x="-6" y="-7" width="29" height="29">
<rect x="-5.68187" y="-6.70088" width="28.3635" height="28.3635" fill="#D9D9D9"/>
</mask>
<g mask="url(#mask0_129_9388)">
<path d="M3.22727 18.7416V10.3406C2.3091 10.1325 1.54168 9.70666 0.925006 9.06306C0.308335 8.41946 0 7.58697 0 6.56561C0 5.71604 0.243562 4.95395 0.730686 4.27934C1.21781 3.60474 1.88106 3.12715 2.72045 2.84658C3.09772 2.00489 3.64355 1.32004 4.35794 0.792025C5.07235 0.264008 5.90758 0 6.86362 0C7.41665 0 7.94052 0.0992964 8.43523 0.297889C8.92992 0.496502 9.42347 0.808592 9.9159 1.23416C10.0674 1.17742 10.2129 1.13368 10.3523 1.10295C10.4916 1.07221 10.647 1.05684 10.8182 1.05684C11.8151 1.05684 12.6477 1.44379 13.3159 2.21769C13.9841 2.9916 14.3182 3.89712 14.3182 4.93426C14.3182 5.29046 14.2839 5.60832 14.2155 5.88783C14.1471 6.16734 14.048 6.4169 13.9182 6.63652H15.2727C15.747 6.63652 16.1534 6.81266 16.492 7.16495C16.8307 7.51722 17 7.94003 17 8.43338V14.7696C17 15.263 16.8307 15.6858 16.492 16.0381C16.1534 16.3904 15.747 16.5665 15.2727 16.5665H13.1818V18.7416H3.22727ZM0.999992 6.56561C0.999992 7.32584 1.27184 7.97299 1.81553 8.50705C2.35923 9.04111 2.99647 9.30815 3.72727 9.30815C4.34242 9.30815 4.87058 9.1353 5.31175 8.78961C5.75291 8.44389 6.18914 8.01464 6.62047 7.50185C7.09168 6.95072 7.58271 6.47957 8.09357 6.08841C8.60441 5.69725 9.23988 5.50167 9.99998 5.50167H13.3182C13.3939 4.55649 13.1908 3.75276 12.7087 3.09049C12.2266 2.42824 11.5964 2.09712 10.8182 2.09712C10.5793 2.09712 10.356 2.12273 10.1485 2.17396C9.94089 2.22518 9.7765 2.28494 9.65531 2.35324L9.13484 1.90877C8.88685 1.67602 8.56829 1.47308 8.17916 1.29996C7.79001 1.12684 7.3515 1.04028 6.86362 1.04028C6.20403 1.04028 5.5885 1.21864 5.01704 1.57538C4.44557 1.93214 4.02044 2.42812 3.74165 3.06332L3.44168 3.70167L2.79165 3.92155C2.2558 4.1149 1.82322 4.45732 1.49393 4.94883C1.16464 5.44033 0.999992 5.97926 0.999992 6.56561ZM13.1818 15.5262H15.2727C15.4848 15.5262 15.6591 15.4553 15.7955 15.3134C15.9318 15.1716 16 14.9903 16 14.7696V8.43338C16 8.21272 15.9318 8.03146 15.7955 7.88961C15.6591 7.74775 15.4848 7.67682 15.2727 7.67682H13.1818V15.5262Z" fill="white"/>
</g>
</svg>
