<svg width="41" height="34" viewBox="0 0 41 34" fill="none" xmlns="http://www.w3.org/2000/svg">
<mask id="mask0_146_18139" style="mask-type:luminance" maskUnits="userSpaceOnUse" x="-1" y="-1" width="43" height="36">
<path d="M-0.609646 -0.788175H41.049V34.4337H-0.609646V-0.788175Z" fill="white"/>
</mask>
<g mask="url(#mask0_146_18139)">
<path d="M0.294004 0.740067C5.88294 1.88909 11.6281 3.72232 16.3729 5.84932C18.7453 6.9091 20.8686 8.04696 22.594 9.19971C24.3194 10.3524 25.6432 11.5312 26.4241 12.6505L26.4389 12.6691C26.4389 12.6691 26.5431 12.7992 26.7327 13.0372C27.3872 13.859 29.0493 15.96 30.7115 18.1465C31.5445 19.2434 32.3737 20.359 33.0802 21.3518C33.7867 22.341 34.3631 23.2111 34.6829 23.7838L34.6978 23.8061C34.6978 23.8061 35.8951 25.6356 37.1966 27.599C37.8474 28.5769 38.5241 29.5921 39.0931 30.425C39.3757 30.8415 39.6323 31.2134 39.8479 31.5146C40.0599 31.8158 40.2272 32.0426 40.3462 32.1876L40.6288 31.9496L40.283 31.8232C40.2756 31.8418 40.1417 32.1913 39.8665 32.5074C39.7327 32.671 39.5653 32.8198 39.3645 32.9313C39.1674 33.0392 38.9406 33.1098 38.6617 33.1098C38.3233 33.1098 37.8994 33.002 37.364 32.6859C36.8322 32.3661 36.1963 31.8344 35.4638 31.0051L35.4266 30.9679C35.3039 30.8564 34.2181 29.8375 32.9538 28.3315C31.6932 26.8292 30.2579 24.8398 29.4398 22.8132C29.4212 22.7612 29.384 22.7128 29.3431 22.6719C29.3431 22.6719 29.332 22.6645 29.3059 22.6385C29.12 22.4711 28.2461 21.6791 27.1864 20.5895C26.1229 19.5 24.8697 18.113 23.9252 16.7706C23.8062 16.5996 23.5757 16.5624 23.4121 16.6814C23.2447 16.8004 23.2038 17.0309 23.3228 17.202C24.3714 18.6931 25.751 20.1954 26.8703 21.3295C27.9896 22.4674 28.8523 23.2297 28.856 23.2334L29.1014 22.9545L28.7593 23.0958C29.6555 25.3121 31.1987 27.4093 32.515 28.9637C33.8351 30.518 34.932 31.5257 34.9395 31.5332L35.1886 31.2543L34.9135 31.5034C35.6832 32.3735 36.3674 32.9536 36.9884 33.3255C37.6057 33.6973 38.1634 33.8572 38.6617 33.8572C39.0819 33.8572 39.4501 33.742 39.7513 33.5672C40.1975 33.3106 40.4987 32.9388 40.692 32.6376C40.8854 32.3326 40.9709 32.0947 40.9784 32.0761C41.023 31.9534 40.997 31.8121 40.9152 31.7117C40.8222 31.6001 40.6549 31.3733 40.4466 31.0795C39.7141 30.042 38.4275 28.1196 37.3268 26.4574C36.7802 25.6281 36.2744 24.8621 35.91 24.3044C35.7241 24.0255 35.5791 23.7986 35.475 23.6387C35.3708 23.4826 35.3151 23.3933 35.3151 23.3933L35.0064 23.6016L35.3262 23.4156C34.932 22.7054 34.2181 21.6605 33.3666 20.478C30.8156 16.9417 27.0153 12.2006 27.0116 12.2006L26.7253 12.4348L27.0265 12.2191C26.1601 10.9846 24.773 9.76492 23.003 8.57871C20.3443 6.80126 16.8228 5.09818 12.9035 3.61449C8.98419 2.13451 4.67071 0.88137 0.442745 0.00751739C0.241945 -0.0333866 0.0485812 0.0967624 0.00767812 0.297562C-0.0332259 0.502081 0.0932037 0.699163 0.294004 0.740067Z" fill="#343434"/>
</g>
</svg>
