<svg width="38" height="34" viewBox="0 0 38 34" fill="none" xmlns="http://www.w3.org/2000/svg">
<mask id="mask0_146_18123" style="mask-type:luminance" maskUnits="userSpaceOnUse" x="-1" y="-1" width="40" height="36">
<path d="M-0.0110235 -0.014943H38.1065V34.6861H-0.0110235V-0.014943Z" fill="white"/>
</mask>
<g mask="url(#mask0_146_18123)">
<path d="M0.364074 0.371142H0V19.1706C0 19.303 0.0698729 19.4281 0.187554 19.4942C2.62943 20.866 4.90213 21.8111 4.90949 21.8148L5.04923 21.4728L4.7109 21.6199C5.63396 23.7786 7.24471 25.621 9.13128 27.1766C11.9593 29.5081 15.4125 31.2035 18.1596 32.3214C20.9104 33.4431 22.9551 33.9837 22.9661 33.9874C23.0764 34.0131 23.1904 33.991 23.2824 33.9212L37.8564 22.7452C37.9446 22.679 37.9998 22.5723 37.9998 22.4583C38.0035 22.3443 37.952 22.2377 37.8637 22.1678C23.6832 10.5836 7.64556 3.06676 0.507498 0.0291325C0.393494 -0.018675 0.264782 -0.00764195 0.161811 0.0622302C0.0625185 0.128426 0 0.246107 0 0.371142H0.364074L0.224329 0.709474C7.32562 3.7324 23.3155 11.2272 37.4041 22.7415L37.6357 22.4546L37.4151 22.1604L22.8374 33.3364L23.0617 33.627L23.1537 33.2702C23.1537 33.2702 23.139 33.2666 23.1132 33.2629C22.7013 33.1489 19.09 32.1376 15.1661 30.1554C13.206 29.1661 11.1723 27.9342 9.42181 26.4631C7.67131 24.9885 6.21133 23.2747 5.38389 21.3293C5.34711 21.2411 5.27356 21.1675 5.1853 21.1344C5.1853 21.1344 5.17795 21.1307 5.16324 21.1234C4.91317 21.0167 2.79124 20.1121 0.540595 18.847L0.364074 19.1706H0.731826V0.371142H0.364074Z" fill="#343434"/>
</g>
</svg>
