<svg width="18" height="10" viewBox="0 0 18 10" fill="none" xmlns="http://www.w3.org/2000/svg">
<mask id="mask0_146_18057" style="mask-type:luminance" maskUnits="userSpaceOnUse" x="-1" y="-1" width="20" height="11">
<path d="M-0.172107 -0.0881554H18.4322V9.8872H-0.172107V-0.0881554Z" fill="white"/>
</mask>
<g mask="url(#mask0_146_18057)">
<path d="M12.6337 9.87974C6.97281 9.87974 2.15342 6.24607 0.351891 1.1666C0.229494 0.822356 0.122397 0.470463 0.0267744 0.110922C0.019124 0.0726728 0.011475 0.0344239 0 0C0.363366 0 0.726733 0.00382491 1.08627 0.00382491C1.64854 2.03103 2.71951 3.84403 4.15767 5.29367C6.33022 7.47769 9.3213 8.82789 12.6337 8.82789C13.5134 8.82789 14.3702 8.73226 15.1925 8.55249C15.8925 8.67489 16.6116 8.73609 17.346 8.73609C17.5678 8.73609 17.7858 8.73226 18 8.72079C16.3668 9.46665 14.5461 9.87974 12.6337 9.87974Z" fill="#231F20"/>
</g>
</svg>
