<svg width="8" height="9" viewBox="0 0 8 9" fill="none" xmlns="http://www.w3.org/2000/svg">
<mask id="mask0_146_17858" style="mask-type:luminance" maskUnits="userSpaceOnUse" x="-1" y="-1" width="9" height="11">
<path d="M-0.538695 -0.873498H7.84947V9.96186H-0.538695V-0.873498Z" fill="white"/>
</mask>
<g mask="url(#mask0_146_17858)">
<path d="M0 0C0.707992 1.58144 1.10431 3.33603 1.10431 5.18296C1.10431 6.5143 0.900382 7.79561 0.523298 8.99996C2.97049 8.94609 4.47882 8.86529 4.71353 8.7614C4.80588 8.71908 4.89823 8.6729 4.99057 8.62288C6.52199 7.74174 7.24922 5.54466 7.41083 3.88626C7.44546 3.51687 7.47624 0 6.78749 0C6.78749 0 4.92516 0 1.73535 0C1.19281 0 0.615645 0 0 0Z" fill="#BDBCBC"/>
</g>
</svg>
