<svg width="33" height="50" viewBox="0 0 33 50" fill="none" xmlns="http://www.w3.org/2000/svg">
<mask id="mask0_146_18042" style="mask-type:luminance" maskUnits="userSpaceOnUse" x="-1" y="-1" width="35" height="52">
<path d="M-0.444401 -0.261074H33.4081V50.1062H-0.444401V-0.261074Z" fill="white"/>
</mask>
<g mask="url(#mask0_146_18042)">
<path d="M31.9424 50C31.5898 50 31.2335 50 30.8772 50C31.362 48.6409 31.7367 47.2965 31.7624 45.8492C31.7624 45.728 31.7624 45.6068 31.7624 45.4819C31.7624 43.6526 31.5236 41.8197 31.2298 39.9831C30.9065 37.9922 30.5943 36.0013 30.2931 34.0067C29.9148 31.4943 29.5401 28.9781 29.1875 26.4583C29.5144 26.2636 29.8266 26.0505 30.1131 25.8154C30.4841 28.4969 30.8845 31.1747 31.2886 33.8525C31.5898 35.8434 31.902 37.8306 32.2216 39.8215C32.5191 41.6765 32.7689 43.5645 32.7689 45.4819C32.7689 45.6105 32.7689 45.739 32.7689 45.8676C32.7395 47.3516 32.3869 48.7033 31.9424 50ZM1.55378 44.8648C1.23053 43.1164 0.962386 41.3569 0.753012 39.5827C0.238759 35.2226 0 30.7963 0 26.3738C0 24.4417 0.0477527 22.5132 0.132236 20.5884C0.613429 20.0632 0.96606 19.4314 1.23788 18.7555C1.08728 21.2864 1.00646 23.8282 1.00646 26.3738C1.00646 28.1075 1.0432 29.845 1.12033 31.5751C0.947694 31.8175 0.844843 32.115 0.844843 32.4383C0.844843 32.8166 0.984425 33.1619 1.21584 33.4227C1.33705 35.4467 1.51337 37.4633 1.75213 39.4652C1.94314 41.0998 2.18924 42.7196 2.47943 44.3322C2.15986 44.4975 1.85131 44.6738 1.55378 44.8648ZM28.9744 2.91287C28.6659 2.88348 28.3243 2.85777 27.968 2.82839C28.0414 2.39495 28.1222 1.9615 28.203 1.52806C26.2305 1.24522 24.2176 1.10931 22.2561 1.03218C21.6169 1.01014 20.9815 0.995445 20.3497 0.995445C17.5691 0.995445 14.8472 1.23053 12.1878 1.72642C15.2806 0.775051 18.4506 0.21672 21.7014 0C21.8998 0.00734599 22.0981 0.0146934 22.2928 0.0220394H22.2965C23.156 0.0550991 24.0266 0.0991765 24.9045 0.161622C26.2232 0.257126 27.5566 0.396709 28.8752 0.609756C29.0112 0.628122 29.1324 0.70526 29.2095 0.81913C29.2867 0.929326 29.316 1.07258 29.2903 1.20482C29.2609 1.36644 29.2279 1.52806 29.1985 1.68601C29.1177 2.09741 29.0442 2.50514 28.9744 2.91287Z" fill="#220905"/>
</g>
</svg>
