<svg width="7" height="10" viewBox="0 0 7 10" fill="none" xmlns="http://www.w3.org/2000/svg">
<mask id="mask0_146_17933" style="mask-type:luminance" maskUnits="userSpaceOnUse" x="-1" y="-1" width="8" height="12">
<path d="M-0.879404 -0.654897H6.48946V10.1303H-0.879404V-0.654897Z" fill="white"/>
</mask>
<g mask="url(#mask0_146_17933)">
<path d="M4.23742 0.00765994C2.67862 0.451937 0.870873 1.31368 0.273397 2.96823C-0.427487 4.92534 0.246588 7.41482 1.98156 8.60212C3.25311 9.47535 4.7468 9.8775 6.2673 10.0001C6.28645 9.83154 6.3056 9.65536 6.32092 9.47535C6.32475 9.42556 6.32858 9.37577 6.33241 9.32598C6.34007 9.1881 6.35156 9.05022 6.35922 8.91234C6.36305 8.85872 6.36305 8.8051 6.36688 8.75148C6.37454 8.58297 6.37837 8.41445 6.3822 8.23827V8.18082C6.38603 7.98549 6.38603 7.7825 6.3822 7.58334C6.3822 7.54504 6.37837 7.50674 6.37837 7.46844C6.37454 7.30376 6.36688 7.13523 6.35922 6.96672C6.35539 6.92076 6.35539 6.87097 6.35156 6.82501C6.34007 6.64117 6.32858 6.46116 6.31326 6.27732L6.3056 6.20838C6.2673 5.78326 6.21368 5.3543 6.14091 4.92917C6.13708 4.8947 6.12942 4.86406 6.12559 4.82959C6.09112 4.6381 6.05665 4.4466 6.01835 4.2551L6.00686 4.19765C5.91494 3.76869 5.80388 3.34356 5.67749 2.9261L5.66217 2.88397C5.60089 2.68864 5.53961 2.49714 5.47067 2.30947L5.45152 2.25968C5.29832 1.84988 5.1298 1.45539 4.93447 1.08005C4.84255 0.900044 4.74297 0.723864 4.63956 0.551516L4.60509 0.501726C4.50168 0.329377 4.39062 0.160858 4.27572 0L4.23742 0.00765994Z" fill="white"/>
</g>
</svg>
