<svg width="22" height="11" viewBox="0 0 22 11" fill="none" xmlns="http://www.w3.org/2000/svg">
<mask id="mask0_146_18035" style="mask-type:luminance" maskUnits="userSpaceOnUse" x="-1" y="-1" width="32" height="13">
<path d="M-0.0226156 -0.255633H30.2513V11.0361H-0.0226156V-0.255633Z" fill="white"/>
</mask>
<g mask="url(#mask0_146_18035)">
<path d="M0.339764 10.6279C0.362652 10.1053 0.374097 9.57886 0.374097 9.05624C0.374097 8.81209 0.370282 8.56414 0.366467 8.31999C0.351207 7.67148 0.286357 7.06494 0.175729 6.45076C0.129952 6.19898 0.0765456 5.9434 0.0155095 5.68399C-0.0378967 5.47037 0.049843 5.24529 0.229136 5.12322C2.17848 3.80713 4.36434 2.93355 6.65701 2.11719C6.67989 2.10956 6.70278 2.10193 6.72567 2.09049L6.74093 2.08667C11.208 0.648508 15.8277 0 20.5961 0H20.6C21.0654 0 21.5308 0.00381452 22 0.015259C18.6239 0.240329 15.3318 0.820173 12.1197 1.8082C10.4107 2.12864 8.72842 2.55207 7.06519 3.08614C4.8984 3.85672 2.88039 4.66164 1.11416 5.79843C1.28964 6.62242 1.39264 7.43115 1.4079 8.2971C1.41171 8.44588 1.41553 8.59465 1.41553 8.74343C1.28964 8.93035 1.16757 9.1249 1.04549 9.32327L1.03405 9.34235C0.923423 9.52546 0.812794 9.72001 0.705981 9.91456L0.683092 9.95652C0.580095 10.1511 0.477096 10.3494 0.377912 10.5516L0.351208 10.6088C0.347394 10.6165 0.343579 10.6203 0.339764 10.6279Z" fill="#231F20"/>
</g>
</svg>
