<svg width="6" height="8" viewBox="0 0 6 8" fill="none" xmlns="http://www.w3.org/2000/svg">
<mask id="mask0_146_18016" style="mask-type:luminance" maskUnits="userSpaceOnUse" x="-1" y="-1" width="7" height="10">
<path d="M-0.0827798 -0.124076H5.44125V8.54579H-0.0827798V-0.124076Z" fill="white"/>
</mask>
<g mask="url(#mask0_146_18016)">
<path d="M0.635941 8.00006C0.376296 8.00006 0.154281 7.80062 0.124178 7.54098C0.0376294 6.80344 0 6.07718 0 5.36975C0 3.82317 0.188149 2.34809 0.511763 0.933215C0.553156 0.74883 0.598311 0.57197 0.643467 0.391348V0.387585C0.707438 0.154281 0.910637 0 1.14018 0C1.17404 0 1.20791 0.00376248 1.24178 0.0112889C1.41864 0.0451553 1.59926 0.0865481 1.77988 0.131704C2.42335 0.297274 3.06681 0.526814 3.65384 0.839141C4.30859 1.1891 4.89938 1.64065 5.32459 2.2352C5.27944 2.55881 5.24557 2.88619 5.21547 3.21733C5.21547 3.24744 5.2117 3.27754 5.20794 3.31141C5.18536 3.58234 5.17031 3.85327 5.16278 4.13173L5.15902 4.18065C5.15902 4.21452 5.15902 4.24838 5.15902 4.28225L4.92195 4.27473C4.92195 4.24838 4.92195 4.22204 4.92195 4.19194C4.92195 3.74791 4.81283 3.37538 4.61339 3.03671C4.41772 2.69804 4.12797 2.39324 3.76673 2.12607C3.16089 1.67828 2.35185 1.34714 1.524 1.13641C1.21167 2.49484 1.03105 3.89843 1.02729 5.36975C1.02729 5.87775 1.04987 6.38951 1.09502 6.91256C1.3208 6.87493 1.55787 6.81849 1.77988 6.75075C2.16747 6.63786 2.51742 6.49487 2.72062 6.39704C3.1195 6.21265 3.54095 5.99816 3.90596 5.74981C4.27096 5.50145 4.56447 5.21923 4.73757 4.92195C4.85046 4.72252 4.91443 4.51555 4.92195 4.27473L5.15902 4.28225C5.1515 4.53437 5.14773 4.78649 5.15526 5.04237C5.15902 5.32835 5.17031 5.62187 5.18913 5.91538L5.19289 5.97935C5.19289 5.99064 5.19289 6.00192 5.19289 6.01321C5.10258 6.10729 5.01227 6.1976 4.91443 6.28038C4.36127 6.75075 3.71028 7.07813 3.15713 7.33778C2.90124 7.45819 2.51742 7.61247 2.07339 7.74418C1.80246 7.82696 1.51271 7.89846 1.21544 7.94361C1.02729 7.97372 0.835377 7.99253 0.64723 8.00006C0.643466 8.00006 0.639703 8.00006 0.635941 8.00006Z" fill="#231F20"/>
</g>
</svg>
