<svg width="7" height="13" viewBox="0 0 7 13" fill="none" xmlns="http://www.w3.org/2000/svg">
<mask id="mask0_146_17995" style="mask-type:luminance" maskUnits="userSpaceOnUse" x="-1" y="-1" width="9" height="15">
<path d="M-0.0823008 -0.0978994H7.67771V13.9485H-0.0823008V-0.0978994Z" fill="white"/>
</mask>
<g mask="url(#mask0_146_17995)">
<path d="M6.61561 13H2.13988C1.92041 13 1.72445 12.8667 1.64606 12.6629C1.60295 12.5571 1.55984 12.4513 1.51673 12.3455C0.442869 9.59028 0 7.02712 0 4.62857C0 3.01386 0.19988 1.47362 0.53693 0C0.19988 1.47362 0.0039192 3.00994 0.0039192 4.62073C0.0039192 5.35754 0.0431109 6.11395 0.133253 6.88211C0.164606 7.15254 0.395839 7.36025 0.666264 7.36025C0.670183 7.36025 0.674101 7.36025 0.678021 7.36025C0.873981 7.35242 1.07386 7.33282 1.26982 7.30147C1.48146 8.77117 1.8773 10.3036 2.50437 11.9183H6.84684C6.74102 12.0946 6.66656 12.5062 6.61561 13Z" fill="#231F20"/>
</g>
</svg>
