<svg width="6" height="21" viewBox="0 0 6 21" fill="none" xmlns="http://www.w3.org/2000/svg">
<mask id="mask0_146_18147" style="mask-type:luminance" maskUnits="userSpaceOnUse" x="-1" y="-1" width="8" height="22">
<path d="M-0.0518252 -0.921392H6.57937V21H-0.0518252V-0.921392Z" fill="white"/>
</mask>
<g mask="url(#mask0_146_18147)">
<path d="M5.58397 0.373745V0H0.366344C0.270133 0 0.17392 0.0407046 0.107313 0.111013C0.0370042 0.177621 0 0.273832 0 0.373745V4.97339C0 5.0326 0.0111013 5.09181 0.0407049 5.14361L0.954714 6.89762L0.484758 7.31577C0.407049 7.38608 0.362643 7.48969 0.362643 7.59701V11.3974C0.362643 11.4936 0.395947 11.5824 0.458855 11.649L0.877005 12.1041L0.484758 12.452C0.407049 12.5223 0.362643 12.6259 0.362643 12.7332V16.5336C0.362643 16.6298 0.395947 16.7186 0.458855 16.7889L1.14714 17.5401L1.41727 17.2885L1.05093 17.3033C1.06203 17.5364 1.09533 17.8583 1.15084 18.2247C1.23225 18.7686 1.35436 19.394 1.51348 19.9084C1.59489 20.1674 1.68 20.3968 1.79471 20.5856C1.85022 20.6818 1.91313 20.7706 2.00194 20.8483C2.04634 20.889 2.09815 20.926 2.16476 20.9556C2.22767 20.9852 2.30537 21.0037 2.38308 21.0037H3.58203C3.68564 21.0037 3.78555 20.9704 3.85956 20.926C4.00018 20.8409 4.08159 20.7336 4.15189 20.6189C4.27771 20.4153 4.37022 20.1711 4.45533 19.8936C4.58485 19.4754 4.68846 18.987 4.76617 18.5281C4.84758 18.0693 4.89568 17.6437 4.91419 17.3477L4.54784 17.3292L4.82538 17.5697L5.49886 16.7778C5.55806 16.7112 5.58767 16.6261 5.58767 16.5336V12.7332C5.58767 12.6259 5.54326 12.5223 5.46555 12.452L5.09181 12.1226L5.49886 11.6416C5.55806 11.575 5.58767 11.4862 5.58767 11.3974V7.59701C5.58767 7.48969 5.54326 7.38608 5.46555 7.31577L5.0622 6.95683L5.91701 5.12881C5.93921 5.08071 5.95031 5.0252 5.95031 4.97339V0.373745C5.95031 0.273832 5.9133 0.177621 5.843 0.111013C5.77639 0.0407046 5.68018 0 5.58397 0V0.373745H5.21762V4.88828L4.28141 6.89392C4.2111 7.04194 4.24811 7.21956 4.37022 7.33057L4.85128 7.76353V11.2604L4.29991 11.9154C4.1667 12.0671 4.1852 12.3003 4.33322 12.4335L4.85128 12.8997V16.3967L4.26661 17.0849C4.2148 17.1478 4.1852 17.2256 4.1815 17.307C4.1704 17.5105 4.13339 17.8213 4.08159 18.1618C4.00388 18.6761 3.88546 19.2682 3.74485 19.7085C3.67454 19.9269 3.60053 20.1082 3.53762 20.2118C3.50802 20.2599 3.48211 20.2895 3.48211 20.2895L3.51172 20.3228L3.48582 20.2858L3.48211 20.2895L3.51172 20.3228L3.48582 20.2858L3.58203 20.4338V20.2599C3.53392 20.2599 3.49692 20.2784 3.48582 20.2858L3.58203 20.4338V20.2599H2.38308V20.4412L2.47559 20.2858C2.46449 20.2747 2.42749 20.2599 2.38308 20.2599V20.4412L2.47559 20.2858L2.44599 20.3376L2.4867 20.2895L2.47559 20.2858L2.44599 20.3376L2.4867 20.2895C2.483 20.2895 2.44599 20.2488 2.40529 20.1748C2.33498 20.0453 2.25727 19.8307 2.18326 19.579C2.07225 19.2016 1.97604 18.739 1.90943 18.3135C1.83912 17.8916 1.79471 17.4994 1.78361 17.27C1.77991 17.1811 1.74661 17.0997 1.6874 17.0368L1.09533 16.3893V12.8997L1.643 12.4113C1.71701 12.3447 1.76141 12.2485 1.76511 12.1485C1.77251 12.0523 1.73551 11.9524 1.6689 11.8784L1.09533 11.253V7.76353L1.6578 7.26027C1.78361 7.14555 1.81692 6.96053 1.73921 6.80881L0.732687 4.88088V0.743789H5.58397V0.373745Z" fill="#343434"/>
</g>
</svg>
