<svg width="90" height="50" viewBox="0 0 90 50" fill="none" xmlns="http://www.w3.org/2000/svg">
<mask id="mask0_146_17895" style="mask-type:luminance" maskUnits="userSpaceOnUse" x="-1" y="-1" width="91" height="52">
<path d="M-0.696466 -0.158474H89.8764V50.106H-0.696466V-0.158474Z" fill="white"/>
</mask>
<g mask="url(#mask0_146_17895)">
<path d="M68.5418 31.576C66.1591 32.3091 63.9487 31.686 63.2118 30.2087C59.5571 30.3443 55.8071 30.4286 52.31 29.2006C48.3473 27.8076 46.1479 24.3802 45.0262 20.4762C43.7725 16.1249 43.3802 11.3778 43.3729 6.86897C43.3692 5.93788 43.3399 4.33229 43.3729 3.40486C44.6889 3.72377 46.3202 4.44226 47.5189 5.0691C51.1883 6.98627 54.645 9.21504 57.3503 12.4079C60.8181 16.5025 63.3438 21.2973 66.709 25.4689C67.8087 26.8325 68.978 27.8626 70.2574 29.0613C70.2977 29.0943 70.3344 29.1273 70.3673 29.1639C70.5616 29.3436 70.7523 29.5268 70.9502 29.7175C70.8256 29.7285 70.7009 29.7395 70.5763 29.7505C70.2684 30.3773 69.7735 31.1984 68.5418 31.576ZM49.8173 32.8517H47.2659C46.7344 32.8517 46.3018 32.4191 46.3018 31.8839C46.3018 31.3487 46.7344 30.9162 47.2659 30.9162H49.8173C50.3488 30.9162 50.7777 31.3487 50.7777 31.8839C50.7777 32.4191 50.3488 32.8517 49.8173 32.8517ZM40.8619 23.3171C39.8941 26.9425 35.1324 27.9396 31.9835 28.1632C28.5817 28.4015 25.0076 27.9982 21.7488 26.9755C20.0699 26.4476 18.3396 25.6632 17.3829 24.1016C16.1072 22.0231 16.6571 18.9989 16.9467 16.7225C17.2949 13.9548 17.4305 11.2202 17.2326 8.43057C17.1776 7.67177 17.108 6.90929 17.0017 6.15415C16.9797 6.00019 19.3367 5.21573 19.5713 5.13508C20.4474 4.83082 21.3419 4.55956 22.24 4.32862C24.0545 3.86307 25.9094 3.54049 27.7569 3.25823C29.3295 3.01995 31.8405 2.77802 33.4315 2.77435C36.2944 2.77435 39.7878 3.15559 39.7768 3.2509C39.4396 5.27438 39.3516 7.34552 39.4029 9.39099C39.4652 11.9057 39.7548 14.4424 40.2167 16.9131C40.609 19.0135 41.4374 21.1726 40.8619 23.3171ZM18.5046 32.8517H15.9533C15.4217 32.8517 14.9928 32.4191 14.9928 31.8839C14.9928 31.3487 15.4217 30.9162 15.9533 30.9162H18.5046C19.0361 30.9162 19.4687 31.3487 19.4687 31.8839C19.4687 32.4191 19.0361 32.8517 18.5046 32.8517ZM89.6638 47.1663C88.2085 47.049 86.7788 46.6641 85.5618 45.8283C83.9012 44.692 83.2561 42.3092 83.9269 40.4361C84.4987 38.8525 86.229 38.0277 87.7209 37.6024L87.7576 37.5951C87.8675 37.7491 87.9738 37.9104 88.0728 38.0753C87.7979 37.6208 87.4826 37.1992 87.1234 36.8326C84.6344 34.2776 80.5507 33.3282 77.4569 31.7703C71.2655 28.4601 67.981 23.0092 64.1136 17.5582C60.4369 12.4959 56.1846 6.65636 50.5761 3.3462C46.3202 0.816851 40.9059 0.230334 35.8802 0.0360504C30.6565 -0.158233 25.6308 0.424618 20.7957 1.98255C16.7121 3.43418 13.0757 5.03611 10.6526 9.04641C10.9935 8.48556 11.3528 7.97236 11.7377 7.49948C11.7413 7.69009 11.745 7.88071 11.7487 8.07133C11.778 11.0076 11.6204 13.9512 10.9605 16.8214C10.528 18.7019 9.86448 20.6631 8.03895 21.5759C7.819 21.6859 7.59173 21.7628 7.36079 21.8178C6.05578 26.9498 2.10046 31.9169 0.571854 37.9434C2.62466 38.3503 4.82043 39.4683 4.75445 41.6164C4.71413 42.9068 3.37614 43.6326 2.32407 44.1274C1.86952 44.3401 0.894437 44.703 0.0769803 44.725C0.0439881 44.4317 0.0183284 44.1421 0 43.8525C0.124634 45.777 0.571853 47.8152 1.45529 49.9999C1.48462 49.9999 5.12102 49.9999 10.8982 49.9999C12.7714 45.7954 16.965 42.8701 21.8368 42.8701C26.7085 42.8701 30.8984 45.7954 32.7753 49.9999C33.5231 49.9999 34.2746 49.9999 35.0297 49.9999C43.4462 49.9999 52.3906 49.9999 60.5212 49.9999C62.3981 45.7954 66.588 42.8701 71.4597 42.8701C76.3315 42.8701 80.5214 45.7954 82.3983 49.9999C82.9848 49.9999 83.5347 49.9999 84.0515 49.9999C87.0904 49.9999 88.8646 49.9999 88.8646 49.9999C89.2752 49.3584 89.5868 48.1414 89.7151 46.6641C89.7004 46.8364 89.6821 47.005 89.6638 47.1663Z" fill="#F35B5C"/>
</g>
</svg>
