<svg width="18" height="11" viewBox="0 0 18 11" fill="none" xmlns="http://www.w3.org/2000/svg">
<mask id="mask0_146_18070" style="mask-type:luminance" maskUnits="userSpaceOnUse" x="-1" y="-1" width="20" height="12">
<path d="M-0.132733 -0.375592H18.3109V10.4843H-0.132733V-0.375592Z" fill="white"/>
</mask>
<g mask="url(#mask0_146_18070)">
<path d="M12.6762 10.4769C6.87087 10.4769 1.9604 6.6244 0.329893 1.31578C0.223721 0.970719 0.132716 0.618076 0.0568781 0.261639C0.037919 0.174426 0.0189591 0.0872123 0 0C0.356435 0.0568774 0.720456 0.0872123 1.08448 0.106172C1.585 2.35096 2.71498 4.35686 4.27723 5.93049C6.42722 8.09565 9.39626 9.43418 12.6762 9.43418C13.5484 9.43418 14.3977 9.33938 15.2168 9.16116C15.9069 9.2825 16.6236 9.34317 17.3516 9.34317C17.5677 9.34317 17.7839 9.33938 18 9.328C16.3771 10.0674 14.576 10.4769 12.6762 10.4769Z" fill="#231F20"/>
</g>
</svg>
