<svg width="18" height="7" viewBox="0 0 18 7" fill="none" xmlns="http://www.w3.org/2000/svg">
<mask id="mask0_146_18004" style="mask-type:luminance" maskUnits="userSpaceOnUse" x="-1" y="-1" width="20" height="9">
<path d="M-0.923524 -0.433639H18.3764V7.82912H-0.923524V-0.433639Z" fill="white"/>
</mask>
<g mask="url(#mask0_146_18004)">
<path d="M17.5282 6.99998C16.3597 6.26492 15.1497 5.58641 13.917 4.94183C13.1669 4.5498 12.2471 4.12007 11.3425 3.77328C9.42377 2.77059 7.28646 2.11469 5.05868 1.68497C4.84382 1.64351 4.62519 1.60204 4.40656 1.56435C4.43671 1.40226 4.47064 1.2364 4.50079 1.07054C4.52718 0.934838 4.49702 0.787827 4.41786 0.674742C4.3387 0.557887 4.21431 0.478727 4.07484 0.45988C2.72158 0.241249 1.35325 0.0980067 0 0C1.74905 0.128163 3.52072 0.327947 5.25469 0.663434C7.87827 1.17232 10.4227 1.9903 12.6769 3.32848C14.4184 4.35755 16.0279 5.60903 17.5282 6.99998Z" fill="#220905"/>
</g>
</svg>
