<svg width="121" height="121" viewBox="0 0 121 121" fill="none" xmlns="http://www.w3.org/2000/svg">
<path d="M43.0681 24.2955C44.2407 53.6671 39.8598 51.5931 43.198 56.8678C49.5344 66.8785 49.0685 89.375 49.1907 95.532C49.2289 97.3997 50.7567 98.8969 52.6282 98.8969H72.4893C74.3608 98.8969 75.8886 97.3997 75.9268 95.532C76.049 89.375 75.5831 66.8785 81.9195 56.8678C85.2615 51.5931 80.8806 53.6671 82.0494 24.2955H43.0681Z" fill="#EDEDED"/>
<path d="M45.9174 30.6129C44.1872 30.6129 42.774 32.0261 42.774 33.7602C42.774 35.4942 44.1872 36.9036 45.9174 36.9036C47.6552 36.9036 49.0646 35.4942 49.0646 33.7602C49.0646 32.0261 47.6552 30.6129 45.9174 30.6129ZM45.9174 37.8355C43.6716 37.8355 41.842 36.006 41.842 33.7602C41.842 31.5143 43.6716 29.6848 45.9174 29.6848C48.167 29.6848 49.9966 31.5143 49.9966 33.7602C49.9966 36.006 48.167 37.8355 45.9174 37.8355Z" fill="white"/>
<path d="M57.6929 28.1684C55.6381 28.1684 53.9613 29.8413 53.9613 31.8962C53.9613 33.9549 55.6381 35.6278 57.6929 35.6278C58.0138 35.6278 58.327 35.5896 58.6363 35.5094C58.411 35.0014 58.2964 34.4552 58.2964 33.8937C58.2964 32.1788 59.3888 30.6701 60.9662 30.1087C60.3207 28.9285 59.0641 28.1684 57.6929 28.1684ZM57.6929 36.5597C55.1224 36.5597 53.0332 34.4667 53.0332 31.8962C53.0332 29.3257 55.1224 27.2365 57.6929 27.2365C59.6217 27.2365 61.3749 28.4472 62.0547 30.25C62.1044 30.376 62.0929 30.5212 62.0242 30.6396C61.9592 30.758 61.8447 30.842 61.7072 30.8687C60.2711 31.1514 59.2283 32.4233 59.2283 33.8937C59.2283 34.4743 59.3888 35.0396 59.6943 35.5285C59.7669 35.643 59.786 35.7844 59.744 35.918C59.702 36.0479 59.6065 36.151 59.4804 36.2045C58.9113 36.4413 58.3117 36.5597 57.6929 36.5597Z" fill="white"/>
<path d="M62.3105 30.8113C62.1081 30.8113 61.9056 30.8304 61.707 30.8686C60.2709 31.1513 59.2282 32.4231 59.2282 33.8936C59.2282 34.4742 59.3886 35.0395 59.6942 35.5284C60.2633 36.4374 61.2411 36.9759 62.3105 36.9759C62.9598 36.9759 63.5824 36.7773 64.1056 36.403C63.7466 35.8492 63.5518 35.1999 63.5518 34.5315C63.5518 33.5384 63.9758 32.6065 64.7129 31.9572C64.1286 31.2353 63.2577 30.8113 62.3105 30.8113ZM62.3105 37.9079C60.9164 37.9079 59.6445 37.2051 58.9074 36.0211C58.5063 35.387 58.2963 34.6499 58.2963 33.8936C58.2963 31.9801 59.656 30.3263 61.5275 29.9558C61.7872 29.9061 62.047 29.8794 62.3105 29.8794C63.7275 29.8794 65.0108 30.6051 65.7442 31.8159C65.874 32.0297 65.8129 32.3086 65.6029 32.4461C64.9001 32.912 64.4799 33.6912 64.4799 34.5315C64.4799 35.1349 64.6977 35.7193 65.0949 36.17C65.2591 36.361 65.2438 36.6436 65.0643 36.8155C64.3157 37.5221 63.3379 37.9079 62.3105 37.9079Z" fill="white"/>
<path d="M66.9817 32.0336C66.489 32.0336 66.0116 32.1749 65.6029 32.4461C64.9001 32.9121 64.48 33.6913 64.48 34.5315C64.48 35.135 64.6977 35.7194 65.0949 36.1701C65.5685 36.7201 66.256 37.0333 66.9817 37.0333C67.8144 37.0333 68.5897 36.6208 69.0557 35.9295C69.3345 35.517 69.4835 35.0319 69.4835 34.5315C69.4835 33.6454 69.0251 32.8434 68.2651 32.385C67.8793 32.1559 67.4363 32.0336 66.9817 32.0336ZM66.9817 37.9652C65.9887 37.9652 65.0453 37.5336 64.3922 36.7812C63.8498 36.1586 63.5519 35.3604 63.5519 34.5315C63.5519 33.3781 64.1248 32.3086 65.0911 31.6708C65.6526 31.2965 66.3057 31.1017 66.9817 31.1017C67.6043 31.1017 68.2116 31.2697 68.7425 31.5868C69.7738 32.2055 70.4116 33.3322 70.4116 34.5315C70.4116 35.219 70.2092 35.8798 69.8272 36.4489C69.1894 37.3961 68.1238 37.9652 66.9817 37.9652Z" fill="white"/>
<path d="M52.0285 33.6913C50.6497 33.6913 49.5306 34.8142 49.5306 36.193C49.5306 37.5719 50.6497 38.691 52.0285 38.691C53.4073 38.691 54.5302 37.5719 54.5302 36.193C54.5302 34.8142 53.4073 33.6913 52.0285 33.6913ZM52.0285 39.6229C50.1379 39.6229 48.5986 38.0837 48.5986 36.193C48.5986 34.2986 50.1379 32.7632 52.0285 32.7632C53.9191 32.7632 55.4584 34.2986 55.4584 36.193C55.4584 38.0837 53.9191 39.6229 52.0285 39.6229Z" fill="white"/>
<path d="M70.0411 36.0823C70.6102 36.5025 71.2939 36.7278 72.0081 36.7278C73.8376 36.7278 75.3272 35.2382 75.3272 33.4087C75.3272 31.5792 73.8376 30.0896 72.0081 30.0896C70.7744 30.0896 69.6668 30.7618 69.0901 31.8275C69.9151 32.473 70.4116 33.4775 70.4116 34.5316C70.4116 35.0778 70.2855 35.6049 70.0411 36.0823ZM72.0081 37.6598C70.9348 37.6598 69.9112 37.2587 69.1244 36.5292C68.9564 36.3764 68.9258 36.1205 69.0557 35.9296C69.3345 35.5171 69.4835 35.032 69.4835 34.5316C69.4835 33.6455 69.0251 32.8434 68.2651 32.3851C68.0664 32.2667 67.9862 32.0261 68.0741 31.8122C68.7272 30.2004 70.2703 29.1615 72.0081 29.1615C74.3532 29.1615 76.2591 31.0674 76.2591 33.4087C76.2591 35.7539 74.3532 37.6598 72.0081 37.6598Z" fill="white"/>
<path d="M42.1093 35.4978C41.968 53.2124 39.577 52.3836 42.052 56.8676C47.5749 66.8784 47.1701 82.5037 47.277 88.6645C47.3076 90.5322 48.6405 92.0294 50.2714 92.0294H67.5812C69.2121 92.0294 70.5412 90.5322 70.5756 88.6645C70.6825 82.5037 70.2777 66.8784 75.8006 56.8676C78.2756 52.3836 75.8846 53.2124 75.7395 35.4978H42.1093Z" fill="#F6BF4F"/>
<path d="M69.9456 39.5505C69.7508 39.5505 69.5942 39.7071 69.5942 39.9057C69.5942 40.1005 69.7508 40.2571 69.9456 40.2571C70.1442 40.2571 70.3008 40.1005 70.3008 39.9057C70.3008 39.7071 70.1442 39.5505 69.9456 39.5505ZM69.9456 41.189C69.239 41.189 68.6622 40.6123 68.6622 39.9057C68.6622 39.1953 69.239 38.6185 69.9456 38.6185C70.656 38.6185 71.2327 39.1953 71.2327 39.9057C71.2327 40.6123 70.656 41.189 69.9456 41.189Z" fill="white"/>
<path d="M64.522 42.3653C64.4991 42.3653 64.48 42.3844 64.48 42.4073C64.48 42.4302 64.4991 42.4455 64.522 42.4455C64.5449 42.4455 64.5602 42.4302 64.5602 42.4073C64.5602 42.3844 64.5449 42.3653 64.522 42.3653ZM64.522 43.3774C63.9873 43.3774 63.5519 42.942 63.5519 42.4073C63.5519 41.8726 63.9873 41.4371 64.522 41.4371C65.0567 41.4371 65.4922 41.8726 65.4922 42.4073C65.4922 42.942 65.0567 43.3774 64.522 43.3774Z" fill="white"/>
<path d="M61.7338 37.9194C61.3136 37.9194 60.9737 38.2593 60.9737 38.6794C60.9737 39.0996 61.3136 39.4395 61.7338 39.4395C62.1501 39.4395 62.4938 39.0996 62.4938 38.6794C62.4938 38.2593 62.1501 37.9194 61.7338 37.9194ZM61.7338 40.3676C60.8018 40.3676 60.0417 39.6114 60.0417 38.6794C60.0417 37.7475 60.8018 36.9874 61.7338 36.9874C62.6657 36.9874 63.422 37.7475 63.422 38.6794C63.422 39.6114 62.6657 40.3676 61.7338 40.3676Z" fill="white"/>
<path d="M49.1942 39.4894C48.2928 39.4894 47.5595 40.2227 47.5595 41.1241C47.5595 42.0255 48.2928 42.7627 49.1942 42.7627C50.0956 42.7627 50.829 42.0255 50.829 41.1241C50.829 40.2227 50.0956 39.4894 49.1942 39.4894ZM49.1942 43.6908C47.781 43.6908 46.6276 42.5411 46.6276 41.1241C46.6276 39.7109 47.781 38.5613 49.1942 38.5613C50.6112 38.5613 51.7609 39.7109 51.7609 41.1241C51.7609 42.5411 50.6112 43.6908 49.1942 43.6908Z" fill="white"/>
<path d="M57.2266 99.5003C54.2283 99.5003 51.2224 99.4392 48.2356 99.2711C48.1822 99.2673 48.1325 99.2558 48.0829 99.2367C46.4558 98.5607 45.5353 97.5447 45.3481 96.2232C45.3481 96.2156 45.3481 96.2079 45.3443 96.2041C45.1648 94.3517 45.203 92.5145 45.2374 90.7423C45.2603 89.5697 45.2832 88.3551 45.245 87.152C45.1954 86.3614 45.1724 85.5631 45.1457 84.7916C45.1228 84.0201 45.0999 83.2256 45.0502 82.4503C45.0006 81.7169 44.9509 81.0027 44.9013 80.2923C44.8554 79.5819 44.8058 78.8714 44.7561 78.1381C44.5804 76.1291 44.3322 74.2155 44.0648 72.1912L43.9731 71.4999C43.4652 68.6468 42.9801 66.0763 42.2238 63.5135C41.4103 60.8093 40.1002 58.4565 38.7138 55.9662L38.4349 55.4659C38.4273 55.4506 38.4235 55.4392 38.4158 55.4277C38.011 54.5187 37.8697 53.5714 37.9881 52.5364C37.9881 52.5326 37.9881 52.5249 37.9881 52.5173C38.4846 49.2478 38.7787 46.1885 39.0575 43.0871C39.0804 42.8312 39.3096 42.644 39.5617 42.6669C39.8176 42.6899 40.0086 42.9152 39.9856 43.1711C39.703 46.284 39.4089 49.3548 38.9086 52.6471C38.8169 53.5065 38.9315 54.2857 39.2599 55.0305L39.5273 55.5155C40.9405 58.0478 42.2735 60.4426 43.1138 63.2499C43.8891 65.8624 44.378 68.4635 44.8936 71.3471C44.8936 71.3548 44.8936 71.3624 44.8974 71.3701L44.9891 72.069C45.2565 74.1048 45.5086 76.0298 45.6843 78.0617C45.6843 78.0655 45.6843 78.0694 45.6843 78.0694C45.7339 78.8065 45.7836 79.5169 45.8332 80.2274C45.879 80.9416 45.9287 81.652 45.9783 82.3892C46.028 83.1836 46.0547 83.9857 46.0777 84.761C46.1006 85.5287 46.1273 86.3232 46.177 87.1024C46.177 87.1062 46.177 87.11 46.177 87.1138C46.2152 88.3437 46.1922 89.5735 46.1693 90.7576C46.1349 92.5031 46.0968 94.3096 46.2724 96.101C46.4138 97.0673 47.0974 97.8044 48.3693 98.3468C55.3856 98.7326 62.528 98.534 69.4374 98.343C70.6176 98.259 71.8398 97.4225 71.8398 96.1583C71.8398 96.1506 71.8398 96.143 71.8398 96.1353C71.9658 93.6603 72.0384 91.1395 72.1072 88.7027C72.2027 85.4447 72.302 82.076 72.5273 78.7569C72.9245 74.1315 73.6311 68.0548 75.5905 61.9666C75.9648 60.7444 76.4575 59.5336 77.0877 58.2694C77.0915 58.2579 77.0992 58.2503 77.103 58.2426C77.7752 57.0892 78.4704 55.9013 79.0509 54.7364C79.494 53.8503 79.3794 52.8496 79.2075 51.994C79.2075 51.9864 79.2037 51.9787 79.2037 51.9711C77.7638 42.2086 77.8478 32.893 78.1495 24.2763C78.161 24.0204 78.3711 23.8218 78.6308 23.8294C78.8905 23.8371 79.0891 24.0548 79.0815 24.3107C78.7797 32.8777 78.6957 42.1399 80.1242 51.8221C80.3113 52.7732 80.4527 54.0107 79.8836 55.1527C79.2915 56.3367 78.5926 57.536 77.9127 58.6971C77.3092 59.9117 76.8395 61.0728 76.4766 62.2454C74.5478 68.2496 73.8488 74.2614 73.4554 78.8294C73.2301 82.1218 73.1346 85.4791 73.0391 88.7294C72.9665 91.1662 72.894 93.6871 72.7679 96.1697C72.7603 97.9763 71.0988 99.1642 69.4908 99.2711C69.4832 99.2711 69.4756 99.2711 69.4718 99.2711C65.4461 99.3857 61.3402 99.5003 57.2266 99.5003Z" fill="#2C3C4D"/>
<path d="M39.6573 41.6015C39.6497 41.6015 39.6421 41.6015 39.6306 41.5977C39.3747 41.5824 39.1799 41.3647 39.1952 41.105C39.3441 38.6414 39.4014 36.2352 39.3709 33.955C39.3709 33.699 39.5733 33.489 39.833 33.4852C40.0851 33.4813 40.299 33.6876 40.3028 33.9435C40.3334 36.2466 40.2723 38.6758 40.1233 41.1622C40.108 41.4105 39.9056 41.6015 39.6573 41.6015Z" fill="#2C3C4D"/>
<path d="M39.8176 31.5715C39.5656 31.5715 39.3555 31.3691 39.3555 31.1132C39.3249 28.9476 39.2638 26.7209 39.1683 24.3146C39.1683 24.3108 39.1683 24.3108 39.1683 24.3108C39.1683 24.307 39.1683 24.307 39.1683 24.307V24.3031C39.1683 24.3031 39.1683 24.3031 39.1683 24.2993V24.2955C39.1683 24.2955 39.1683 24.2955 39.1683 24.2917C39.1683 24.2879 39.1683 24.2879 39.1683 24.2879V24.284V24.2802C39.1683 24.2802 39.1683 24.2802 39.1683 24.2764C39.1683 24.2764 39.1683 24.2764 39.1683 24.2726V24.2688C39.1683 24.2688 39.1683 24.2688 39.1683 24.2649V24.2611V24.2573C39.1683 24.2573 39.1683 24.2573 39.1683 24.2535C39.1683 24.2497 39.1683 24.2497 39.1683 24.2497C39.1683 24.2459 39.1683 24.2459 39.1683 24.2459C39.1683 24.2459 39.1683 24.2459 39.1722 24.2459C39.1722 24.242 39.1722 24.242 39.1722 24.242C39.1722 24.2382 39.1722 24.2382 39.1722 24.2382C39.1722 24.2344 39.1722 24.2344 39.1722 24.2344C39.1722 24.2306 39.1722 24.2306 39.1722 24.2306C39.1722 24.2268 39.1722 24.2268 39.1722 24.2268C39.1722 24.2268 39.1722 24.2268 39.1722 24.2229C39.1722 24.2229 39.1722 24.2229 39.1722 24.2191H39.176C39.176 24.2153 39.176 24.2153 39.176 24.2153C39.176 24.2115 39.176 24.2115 39.176 24.2115C39.176 24.2115 39.176 24.2115 39.176 24.2077C39.176 24.2038 39.176 24.2038 39.176 24.2038C39.176 24.2 39.176 24.2 39.176 24.2C39.176 24.1962 39.176 24.1962 39.1798 24.1962C39.1798 24.1924 39.1798 24.1924 39.1798 24.1924V24.1886V24.1847V24.1809C39.1798 24.1809 39.1798 24.1809 39.1836 24.1809V24.1771C39.1836 24.1771 39.1836 24.1771 39.1836 24.1733C39.1836 24.1733 39.1836 24.1733 39.1836 24.1695C39.1836 24.1695 39.1836 24.1695 39.1836 24.1656C39.1874 24.1656 39.1874 24.1656 39.1874 24.1656C39.1874 24.1618 39.1874 24.1618 39.1874 24.1618C39.1874 24.158 39.1874 24.158 39.1874 24.158V24.1542H39.1913C39.1913 24.1542 39.1913 24.1542 39.1913 24.1504C39.1913 24.1465 39.1913 24.1465 39.1913 24.1465C39.1913 24.1427 39.1913 24.1427 39.1913 24.1427C39.1951 24.1427 39.1951 24.1427 39.1951 24.1427V24.1389C39.1951 24.1389 39.1951 24.1389 39.1951 24.1351C39.1951 24.1351 39.1951 24.1351 39.1951 24.1313H39.1989C39.1989 24.1274 39.1989 24.1274 39.1989 24.1274V24.1236C39.1989 24.1236 39.1989 24.1236 39.2027 24.1236C39.2027 24.1198 39.2027 24.1198 39.2027 24.1198C39.2027 24.116 39.2027 24.116 39.2027 24.116C39.2027 24.116 39.2027 24.116 39.2027 24.1122C39.2027 24.1122 39.2027 24.1122 39.2065 24.1122C39.2065 24.1084 39.2065 24.1084 39.2065 24.1084V24.1045C39.2103 24.1045 39.2103 24.1045 39.2103 24.1045C39.2103 24.1045 39.2103 24.1045 39.2103 24.1007V24.0969H39.2142C39.2142 24.0931 39.2142 24.0931 39.2142 24.0931C39.2142 24.0893 39.2142 24.0893 39.2142 24.0893H39.218C39.218 24.0854 39.218 24.0854 39.218 24.0854C39.218 24.0854 39.218 24.0854 39.218 24.0816C39.2218 24.0816 39.2218 24.0816 39.2218 24.0816C39.2218 24.0778 39.2218 24.0778 39.2218 24.0778C39.2218 24.0778 39.2218 24.0778 39.2218 24.074H39.2256V24.0702C39.2256 24.0663 39.2256 24.0663 39.2256 24.0663C39.2294 24.0663 39.2294 24.0663 39.2294 24.0663V24.0625V24.0587C39.2294 24.0587 39.2294 24.0587 39.2333 24.0587V24.0549C39.2371 24.0511 39.2371 24.0511 39.2371 24.0511C39.2371 24.0472 39.2371 24.0472 39.2371 24.0472C39.2409 24.0472 39.2409 24.0472 39.2409 24.0472C39.2409 24.0472 39.2409 24.0472 39.2409 24.0434C39.2409 24.0434 39.2409 24.0434 39.2409 24.0396C39.2409 24.0396 39.2409 24.0396 39.2447 24.0396C39.2447 24.0358 39.2447 24.0358 39.2447 24.0358C39.2485 24.0358 39.2485 24.0358 39.2485 24.0358C39.2485 24.0358 39.2485 24.0358 39.2485 24.032C39.2485 24.032 39.2485 24.032 39.2485 24.0281H39.2524V24.0243H39.2562C39.2562 24.0243 39.2562 24.0243 39.2562 24.0205C39.2562 24.0205 39.26 24.0205 39.26 24.0167C39.26 24.0129 39.26 24.0129 39.26 24.0129C39.26 24.0129 39.26 24.0129 39.2638 24.0129C39.2638 24.0129 39.2638 24.0129 39.2638 24.009C39.2638 24.009 39.2638 24.009 39.2676 24.009V24.0052C39.2715 24.0052 39.2715 24.0052 39.2715 24.0014C39.2715 24.0014 39.2715 24.0014 39.2715 23.9976H39.2753C39.2753 23.9976 39.2753 23.9976 39.2753 23.9938H39.2791C39.2791 23.9938 39.2791 23.9938 39.2791 23.9899H39.2829C39.2829 23.9861 39.2829 23.9861 39.2829 23.9861H39.2867C39.2867 23.9823 39.2867 23.9823 39.2867 23.9823C39.2906 23.9823 39.2906 23.9823 39.2906 23.9823C39.2906 23.9785 39.2906 23.9785 39.2906 23.9785C39.2944 23.9785 39.2944 23.9747 39.2944 23.9747C39.2944 23.9747 39.2982 23.9747 39.2982 23.9709C39.3058 23.967 39.3097 23.9594 39.3173 23.9518C39.3211 23.9518 39.3211 23.9518 39.3211 23.9479C39.3211 23.9479 39.3211 23.9479 39.3249 23.9479C39.3249 23.9479 39.3249 23.9479 39.3249 23.9441H39.3288V23.9403C39.3288 23.9403 39.3288 23.9403 39.3326 23.9403C39.3326 23.9365 39.3326 23.9365 39.3326 23.9365C39.3364 23.9365 39.3364 23.9365 39.3364 23.9365H39.3402V23.9327H39.344V23.9288C39.3478 23.9288 39.3478 23.9288 39.3478 23.9288C39.3478 23.9288 39.3478 23.9288 39.3478 23.925C39.3478 23.925 39.3478 23.925 39.3517 23.925C39.3517 23.9212 39.3517 23.9212 39.3517 23.9212C39.3555 23.9212 39.3555 23.9212 39.3555 23.9212C39.3555 23.9212 39.3555 23.9212 39.3593 23.9212V23.9174C39.3631 23.9174 39.3631 23.9174 39.3631 23.9174V23.9136C39.3631 23.9136 39.3631 23.9136 39.3669 23.9136C39.3669 23.9136 39.3669 23.9136 39.3669 23.9097C39.3708 23.9097 39.3708 23.9097 39.3708 23.9097H39.3746C39.3746 23.9059 39.3746 23.9059 39.3746 23.9059H39.3784C39.4204 23.8754 39.4701 23.8563 39.5197 23.841C39.5235 23.841 39.5235 23.841 39.5235 23.841C39.5274 23.841 39.5274 23.841 39.5274 23.841C39.5274 23.841 39.5274 23.841 39.5312 23.841H39.535C39.5388 23.841 39.5388 23.841 39.5388 23.841C39.5388 23.8372 39.5388 23.8372 39.5388 23.8372C39.5388 23.8372 39.5388 23.8372 39.5426 23.8372C39.5732 23.8334 39.6038 23.8257 39.6343 23.8295C47.9798 23.8601 62.085 23.8601 70.4381 23.8295C70.694 23.8295 70.9041 24.0358 70.9041 24.2917C70.9041 24.5514 70.6978 24.7577 70.4419 24.7615C62.2492 24.792 48.5222 24.792 40.1232 24.7615C40.1308 24.9792 40.1385 25.2427 40.1423 25.2924C40.1423 25.3077 40.1385 25.3268 40.1385 25.3459C40.211 27.3549 40.2607 29.2493 40.2836 31.1018C40.2874 31.3577 40.0812 31.5715 39.8253 31.5715C39.8253 31.5715 39.8215 31.5715 39.8176 31.5715Z" fill="#2C3C4D"/>
<path d="M73.8874 39.7565C73.6353 39.7565 73.4291 39.5579 73.4214 39.3059C73.4061 38.8972 73.3947 38.4885 73.3871 38.076C73.3794 37.8201 73.5818 37.6062 73.8377 37.6024C74.0936 37.5947 74.3075 37.7972 74.3152 38.0531C74.3266 38.4618 74.3381 38.8666 74.3534 39.2753C74.361 39.5312 74.1586 39.7489 73.9027 39.7565C73.8989 39.7565 73.8912 39.7565 73.8874 39.7565Z" fill="white"/>
<path d="M74.1547 44.6494C73.914 44.6494 73.7116 44.4661 73.6925 44.2216C73.6238 43.3431 73.5627 42.4265 73.5168 41.4907C73.5015 41.2348 73.7002 41.0171 73.9561 41.0018C74.2081 40.9904 74.4335 41.1852 74.4449 41.4449C74.4946 42.3692 74.5519 43.2782 74.6206 44.149C74.6397 44.4049 74.4488 44.6303 74.1929 44.6494C74.1814 44.6494 74.1661 44.6494 74.1547 44.6494Z" fill="white"/>
<path d="M75.0636 52.4601C74.8344 52.4601 74.6358 52.292 74.6015 52.0628C74.4563 51.0278 74.3265 49.9736 74.2004 48.9576C74.1164 48.2549 74.0285 47.5292 73.9331 46.8149C73.8987 46.5628 74.0782 46.326 74.3341 46.2955C74.59 46.2611 74.823 46.4406 74.8574 46.6927C74.949 47.4108 75.0407 48.1403 75.1247 48.843C75.2508 49.8552 75.3768 50.9055 75.5258 51.9292C75.5601 52.1851 75.3844 52.4219 75.1285 52.4562C75.1056 52.4601 75.0865 52.4601 75.0636 52.4601Z" fill="white"/>
<path d="M69.132 81.4459C69.1205 81.4459 69.1091 81.4459 69.1014 81.4459C68.8455 81.4306 68.6507 81.2091 68.666 80.9494C68.792 78.9747 68.9716 76.8397 69.2122 74.4181C69.2389 74.1622 69.4643 73.9751 69.7202 74.0018C69.9761 74.0285 70.1632 74.2539 70.1403 74.5098C69.8959 76.9199 69.7202 79.0473 69.5941 81.0105C69.5788 81.2549 69.3726 81.4459 69.132 81.4459Z" fill="white"/>
<path d="M65.3507 95.4365C65.3392 95.4365 65.3316 95.4365 65.324 95.4365C65.0681 95.4365 64.8618 95.2265 64.8618 94.9706C64.8618 94.7146 65.0719 94.5084 65.3278 94.5084C65.3354 94.5084 65.3392 94.5084 65.3469 94.5084C66.8747 94.5084 68.0511 93.5115 68.2115 92.0831C68.3757 90.6584 68.3833 89.2872 68.391 87.8396C68.3986 86.7626 68.4063 85.6511 68.4826 84.5244C68.5017 84.2685 68.7233 84.0775 68.9792 84.0928C69.2351 84.1119 69.4299 84.3334 69.4146 84.5893C69.3382 85.6855 69.3306 86.7855 69.3229 87.8473C69.3153 89.2567 69.3038 90.7157 69.1358 92.19C68.9219 94.1035 67.3674 95.4365 65.3507 95.4365Z" fill="white"/>
<path d="M75.793 24.7615H72.5274C72.2715 24.7615 72.0614 24.5515 72.0614 24.2956C72.0614 24.0397 72.2715 23.8296 72.5274 23.8296H75.793C76.0489 23.8296 76.259 24.0397 76.259 24.2956C76.259 24.5515 76.0489 24.7615 75.793 24.7615Z" fill="#2C3C4D"/>
<mask id="mask0_142_13439" style="mask-type:luminance" maskUnits="userSpaceOnUse" x="0" y="0" width="121" height="121">
<path d="M0 0H121V121H0V0Z" fill="white"/>
</mask>
<g mask="url(#mask0_142_13439)">
<path d="M22.4698 31.3767L89.6233 98.534C70.8583 112.926 43.7976 111.539 26.6292 94.3708C9.46458 77.2063 8.07812 50.1455 22.4698 31.3767ZM98.534 89.6233L31.3767 22.4698C39.9361 15.9042 50.2181 12.6233 60.5 12.6233C72.7681 12.6233 85.0323 17.2906 94.3708 26.6292C111.539 43.7976 112.926 70.8583 98.534 89.6233ZM0 60.5C0 68.3566 1.4934 76.0146 4.43056 83.2639C7.47847 90.7729 11.9472 97.5066 17.7222 103.282C23.4934 109.053 30.2309 113.525 37.7361 116.569C44.9892 119.51 52.6472 121 60.5 121C68.3566 121 76.0146 119.51 83.2639 116.569C90.7729 113.525 97.5066 109.053 103.282 103.282C109.053 97.5066 113.525 90.7729 116.569 83.2639C119.51 76.0146 121 68.3566 121 60.5C121 52.6472 119.51 44.9892 116.569 37.7361C113.525 30.2309 109.053 23.4934 103.282 17.7222C97.5066 11.9472 90.7729 7.47465 83.2639 4.43056C76.0146 1.4934 68.3566 0 60.5 0C52.6472 0 44.9892 1.4934 37.7361 4.43056C30.2309 7.47465 23.4934 11.9472 17.7222 17.7222C11.9472 23.4934 7.47847 30.2309 4.43056 37.7361C1.4934 44.9892 0 52.6472 0 60.5Z" fill="#DE2516"/>
</g>
</svg>
