<svg width="355" height="24" viewBox="0 0 355 24" fill="none" xmlns="http://www.w3.org/2000/svg">
<path d="M5 12.0054C5 12.2216 5.07447 12.4054 5.23404 12.5568L13.7447 20.7838C13.883 20.9243 14.0638 21 14.266 21C14.6809 21 15 20.6865 15 20.2541C15 20.0486 14.9149 19.8649 14.7979 19.7351L6.79787 12.0054L14.7979 4.27568C14.9149 4.13514 15 3.95135 15 3.74595C15 3.32432 14.6809 3 14.266 3C14.0638 3 13.883 3.07568 13.7447 3.21622L5.23404 11.4541C5.07447 11.6054 5 11.7892 5 12.0054Z" fill="#2E7CF6"/>
<path d="M99.75 12.0054C99.75 11.7892 99.6755 11.6054 99.516 11.4541L91.016 3.21622C90.867 3.07568 90.6968 3 90.484 3C90.0798 3 89.75 3.32432 89.75 3.74595C89.75 3.95135 89.8351 4.13514 89.9628 4.27568L97.9521 12.0054L89.9628 19.7351C89.8351 19.8649 89.75 20.0486 89.75 20.2541C89.75 20.6865 90.0798 21 90.484 21C90.6968 21 90.867 20.9243 91.016 20.7838L99.516 12.5568C99.6755 12.4054 99.75 12.2216 99.75 12.0054Z" fill="#2E7CF6"/>
<path d="M177.505 15.6906C177.846 15.6906 178.136 15.3993 178.136 15.0432V3.42086L178.094 1.85611L179.015 2.84892L180.772 4.75899C180.886 4.88849 181.051 4.95324 181.206 4.95324C181.527 4.95324 181.785 4.70504 181.785 4.3705C181.785 4.18705 181.713 4.05755 181.599 3.92806L177.96 0.215827C177.805 0.0539568 177.671 0 177.505 0C177.34 0 177.205 0.0539568 177.05 0.215827L173.411 3.92806C173.287 4.05755 173.215 4.18705 173.215 4.3705C173.215 4.70504 173.463 4.95324 173.794 4.95324C173.949 4.95324 174.124 4.88849 174.238 4.75899L175.996 2.84892L176.916 1.85611L176.874 3.42086V15.0432C176.874 15.3993 177.164 15.6906 177.505 15.6906ZM171.55 24H183.45C185.466 24 186.5 22.9209 186.5 20.8489V9.82014C186.5 7.73741 185.466 6.65827 183.45 6.65827H180.503V7.9964H183.419C184.567 7.9964 185.218 8.64388 185.218 9.88489V20.7734C185.218 22.0252 184.567 22.6619 183.419 22.6619H171.571C170.413 22.6619 169.782 22.0252 169.782 20.7734V9.88489C169.782 8.64388 170.413 7.9964 171.571 7.9964H174.507V6.65827H171.55C169.534 6.65827 168.5 7.72662 168.5 9.82014V20.8489C168.5 22.9317 169.534 24 171.55 24Z" fill="#2E7CF6"/>
<g clip-path="url(#clip0_0_199)">
<path d="M260.25 4.02343C259.585 3.11821 257.303 2 254.61 2C251.386 2 248.682 3.58679 248.25 4.88605V21.0948C248.25 21.7338 248.682 22 249.181 22C249.58 22 249.812 21.8829 250.045 21.7018C250.787 21.0202 252.184 20.1896 254.61 20.1896C257.081 20.1896 258.621 21.0309 259.231 21.6486C259.463 21.8403 259.74 22 260.25 22C260.749 22 261.026 21.819 261.269 21.6486C261.912 21.0522 263.419 20.1896 265.89 20.1896C268.316 20.1896 269.746 20.9989 270.455 21.7018C270.688 21.8829 270.92 22 271.319 22C271.818 22 272.25 21.7338 272.25 21.0948V4.88605C271.818 3.58679 269.114 2 265.89 2C263.197 2 260.915 3.11821 260.25 4.02343ZM249.713 5.31203C249.879 4.64111 251.84 3.3312 254.61 3.3312C257.391 3.3312 259.364 4.65176 259.519 5.31203V20.3067C258.4 19.3908 256.593 18.8797 254.61 18.8797C252.616 18.8797 250.81 19.4015 249.713 20.328V5.31203ZM270.787 5.31203V20.328C269.679 19.4015 267.884 18.8797 265.89 18.8797C263.907 18.8797 262.1 19.3908 260.981 20.3067V5.31203C261.136 4.65176 263.109 3.3312 265.89 3.3312C268.66 3.3312 270.61 4.64111 270.787 5.31203Z" fill="#2E7CF6"/>
</g>
<path d="M335.122 18.2749H337.132V19.8246C337.132 21.9271 338.18 23 340.254 23H350.878C352.942 23 354 21.9163 354 19.8246V8.88966C354 6.79803 352.942 5.72512 350.878 5.72512H348.868V4.16453C348.868 2.08374 347.81 1 345.746 1H335.122C333.048 1 332 2.06207 332 4.16453V15.1103C332 17.202 333.048 18.2749 335.122 18.2749ZM335.143 16.931C333.958 16.931 333.312 16.2916 333.312 15.0345V4.24039C333.312 2.98325 333.958 2.34384 335.143 2.34384H345.725C346.889 2.34384 347.556 2.98325 347.556 4.24039V5.72512H340.254C338.18 5.72512 337.132 6.78719 337.132 8.88966V16.931H335.143ZM340.275 21.6562C339.09 21.6562 338.444 21.0059 338.444 19.7596V8.95468C338.444 7.70837 339.09 7.05813 340.275 7.05813H350.857C352.021 7.05813 352.688 7.70837 352.688 8.95468V19.7596C352.688 21.0059 352.021 21.6562 350.857 21.6562H340.275Z" fill="#2E7CF6"/>
<defs>
<clipPath id="clip0_0_199">
<rect width="24" height="24" fill="white" transform="translate(248.25)"/>
</clipPath>
</defs>
</svg>
