<svg width="4" height="23" viewBox="0 0 4 23" fill="none" xmlns="http://www.w3.org/2000/svg">
<path d="M1.57145 23C1.37225 21.5761 1.18043 20.1522 0.999678 18.732C0.483239 14.6484 0.0663993 10.5944 0.0073777 6.49975C0.00368909 6.14931 0 5.80256 0 5.45581C0 3.89543 0.0627112 2.36086 0.295108 0.83368C0.335686 0.553329 0.379952 0.276664 0.427907 0C1.46078 0.0995992 2.16904 0.199199 2.16904 0.239775V0.243464C2.14322 0.394708 2.1174 0.549638 2.09527 0.70457C1.84443 0.627104 1.59727 0.557016 1.36119 0.497995C1.32061 0.486928 1.28003 0.483239 1.24314 0.483239C1.13248 0.483239 1.0255 0.520127 0.936968 0.586527C0.815235 0.678748 0.74146 0.822614 0.73777 0.973857C0.723015 1.30585 0.719326 1.70794 0.719326 2.13584C0.719326 2.95846 0.734081 3.8696 0.73777 4.48195C0.745148 9.04875 1.13985 13.8701 2.41989 18.3151C2.64122 19.0898 2.90681 19.8497 3.22037 20.5838C2.92157 21.5761 2.33135 22.3692 1.57145 23Z" fill="#3A587A"/>
</svg>
