<svg width="4" height="4" viewBox="0 0 4 4" fill="none" xmlns="http://www.w3.org/2000/svg">
<path d="M3.19133 3.9999C3.26164 3.86709 3.32023 3.7421 3.37492 3.62882C3.41007 3.55851 3.42961 3.48039 3.42961 3.39836V3.12883C3.42961 2.99212 3.37882 2.86321 3.28898 2.76556C3.21867 2.68744 3.14446 2.61322 3.06243 2.5351C3.24602 2.70697 3.42961 2.88274 3.62101 3.06243C3.76944 3.20695 3.82413 3.42961 3.75382 3.62882C3.68741 3.82413 3.51163 3.96866 3.30461 3.98819C3.26555 3.99209 3.22649 3.996 3.19133 3.9999ZM2.8554 2.33979C2.64447 2.14839 2.40619 1.95308 2.14448 1.75777C1.52731 1.29294 0.785137 0.828105 0 0.449208C0.117185 0.269524 0.249994 0.12109 0.402334 0C0.679671 0.285149 0.964821 0.566393 1.25388 0.84373C1.76558 1.332 2.29682 1.82027 2.8554 2.33979Z" fill="#231F20"/>
</svg>
