<svg width="6" height="9" viewBox="0 0 6 9" fill="none" xmlns="http://www.w3.org/2000/svg">
<path d="M5.38598 9.0001C4.0874 8.83191 2.84358 8.44077 1.7875 7.71717C1.22035 7.32994 0.774454 6.77843 0.469366 6.13697C0.160367 5.49941 0 4.7758 0 4.06393C0 3.55545 0.0821386 3.05088 0.246417 2.58934C0.375493 2.23731 0.567151 1.9244 0.809657 1.63887C1.17733 1.21644 1.67016 0.860505 2.21776 0.571062C2.65974 0.34029 3.13693 0.152544 3.6063 0C3.97006 0.567151 4.27906 1.2008 4.52939 1.87355C4.36511 2.3703 4.28297 2.89834 4.28297 3.43029C4.28297 4.61935 4.68584 5.82405 5.43292 6.72759C5.44074 6.98182 5.44856 7.23607 5.44856 7.48248C5.44856 8.00661 5.42509 8.519 5.38598 9.0001Z" fill="#F35B5C"/>
</svg>
