<svg width="6" height="16" viewBox="0 0 6 16" fill="none" xmlns="http://www.w3.org/2000/svg">
<path d="M0.523672 15.9999C0.385907 15.9999 0.251969 15.9463 0.152471 15.843C0.0300134 15.7205 -0.0197354 15.5483 0.0070525 15.38C0.0108791 15.3646 0.0147064 15.3532 0.0185329 15.3417C0.206046 14.6031 0.339985 13.8645 0.401214 13.126C0.401214 13.1221 0.401214 13.1183 0.401214 13.1145C0.408868 13.0303 0.416521 12.9461 0.424175 12.8657C0.424175 12.8619 0.424175 12.8619 0.424175 12.8619C0.424175 12.8581 0.424175 12.8543 0.424175 12.8504C0.428001 12.8466 0.428002 12.8466 0.428002 12.8428C0.428002 12.839 0.428002 12.8389 0.428002 12.8351C0.569593 11.27 0.776242 9.84256 1.04412 8.54527C1.04412 8.54144 1.04412 8.54144 1.04412 8.54144C1.04795 8.54144 1.04794 8.53761 1.04794 8.53379C1.28521 7.38574 1.57222 6.33337 1.90515 5.37284C2.62842 3.26044 3.57364 1.56899 4.69107 0.191341C4.79439 0.065055 4.94364 0 5.09671 0C5.15411 0 5.21152 0.00765387 5.26892 0.0267877C5.47556 0.0994973 5.61716 0.294665 5.62098 0.516619C5.62098 0.581675 5.62481 0.64673 5.62481 0.711787C5.62864 0.845725 5.62864 0.979664 5.62864 1.11743C5.63246 1.35086 5.63629 1.5843 5.63629 1.81774C5.63629 4.67636 5.44495 7.5503 4.79439 10.3745C4.56478 11.3733 4.27012 12.4218 3.76881 13.367C3.26367 14.3084 2.53657 15.1618 1.46889 15.6899C1.30051 15.7741 1.12831 15.843 0.956101 15.9004C0.852777 15.9348 0.749454 15.9616 0.64613 15.9884C0.604035 15.9961 0.565767 15.9999 0.523672 15.9999ZM4.58392 2.13536C3.94101 3.14946 3.37082 4.32812 2.89247 5.71725C2.19981 7.73016 1.70233 10.187 1.44593 13.2063C1.40766 13.677 1.34261 14.1439 1.25459 14.6108C1.95873 14.1898 2.45621 13.5928 2.84272 12.8657C3.27515 12.0583 3.5545 11.0978 3.77263 10.1372C4.37344 7.52734 4.57244 4.83709 4.58392 2.13536Z" fill="#231F20"/>
</svg>
