<svg width="2" height="2" viewBox="0 0 2 2" fill="none" xmlns="http://www.w3.org/2000/svg">
<path d="M0.0646762 1.90048C0.0497506 1.75123 0.0248755 1.597 0.00497509 1.44775V1.42785C3.18482e-07 1.41293 0 1.38307 0 1.34825C0 1.18407 0.04975 1.06467 0.0945267 0.990043C0.139302 0.915416 0.179103 0.870641 0.213929 0.83084C0.28358 0.761188 0.333332 0.726364 0.383082 0.696513C0.482584 0.631837 0.577111 0.582085 0.681587 0.532335C0.895517 0.432833 1.1592 0.32338 1.45273 0.208954C1.62685 0.139302 1.81591 0.0696506 1.99999 0C1.32337 0.572136 0.676613 1.20397 0.0646762 1.90048Z" fill="#231F20"/>
</svg>
