<svg width="17" height="14" viewBox="0 0 17 14" fill="none" xmlns="http://www.w3.org/2000/svg">
<path d="M11.5051 4.41492V4.03918H5.2716C5.03489 4.03918 4.82447 3.96028 4.68921 3.84756C4.62158 3.7912 4.56897 3.73108 4.53891 3.6672C4.5051 3.60333 4.49007 3.54321 4.49007 3.47933C4.49007 3.4117 4.5051 3.35158 4.53891 3.29146C4.58776 3.19753 4.67794 3.1036 4.80569 3.0322C4.93344 2.96457 5.095 2.91948 5.2716 2.91948H11.5051C11.7418 2.91948 11.9522 2.99839 12.0875 3.11111C12.1589 3.16747 12.2077 3.22759 12.2378 3.29146C12.2716 3.35158 12.2866 3.4117 12.2866 3.47933C12.2866 3.54321 12.2716 3.60333 12.2378 3.6672C12.1927 3.76114 12.1025 3.85507 11.9748 3.9227C11.847 3.99409 11.6854 4.03918 11.5051 4.03918V4.79066C11.9034 4.79066 12.2754 4.66291 12.5572 4.43371C12.6962 4.32099 12.8164 4.18196 12.8991 4.0204C12.9855 3.85883 13.0343 3.67096 13.0343 3.47933C13.0343 3.28395 12.9855 3.09984 12.8991 2.93827C12.7713 2.69404 12.5684 2.50241 12.328 2.37091C12.0875 2.2394 11.8057 2.16425 11.5051 2.16425H5.2716C4.87332 2.16425 4.5051 2.29576 4.22329 2.5212C4.08051 2.63768 3.96403 2.7767 3.87761 2.93827C3.79495 3.09984 3.74235 3.28395 3.74611 3.47933C3.74235 3.67096 3.79495 3.85883 3.87761 4.0204C4.00537 4.26087 4.20826 4.45625 4.44874 4.58776C4.68921 4.71927 4.97101 4.79066 5.2716 4.79066H11.5051V4.41492ZM14.4509 0.379495V0H2.20182C1.61567 0 1.07837 0.191626 0.676328 0.518518C0.47343 0.680085 0.308105 0.879227 0.187869 1.10843C0.0676328 1.33387 0 1.59313 0 1.8599C0 1.88245 0.00375762 1.90123 0.00751476 1.92378L1.72839 12.204L2.09286 12.1401H1.72088C1.72088 12.4069 1.78851 12.6661 1.90875 12.8916C2.08535 13.2335 2.37466 13.5078 2.72034 13.6994C3.06978 13.891 3.48309 14 3.9227 14H12.73C13.3162 14 13.8535 13.8084 14.2593 13.4815C14.4584 13.3199 14.6275 13.1208 14.744 12.8916C14.8642 12.6661 14.9318 12.4069 14.9318 12.1401H14.5598L14.9281 12.204L16.6489 1.92378C16.6527 1.90123 16.6527 1.88245 16.6527 1.8599C16.6527 1.59313 16.5851 1.33387 16.4648 1.10843C16.2882 0.766505 15.9989 0.492217 15.6495 0.30059C15.3038 0.108964 14.8905 0 14.4509 0V0.755233C14.8755 0.755233 15.2512 0.894256 15.5105 1.10843C15.6382 1.20988 15.7397 1.33011 15.8073 1.45786C15.8712 1.58561 15.905 1.72088 15.905 1.8599H16.2807L15.9125 1.79603L14.1916 12.0762C14.1879 12.0988 14.1879 12.1175 14.1879 12.1401C14.1841 12.2829 14.1503 12.4144 14.0864 12.5421C13.985 12.73 13.8121 12.9104 13.5754 13.0381C13.3425 13.1659 13.0494 13.2448 12.73 13.2448H3.9227C3.49812 13.2448 3.12238 13.102 2.86312 12.8953C2.73537 12.7901 2.63392 12.6661 2.56629 12.5421C2.50241 12.4144 2.4686 12.2829 2.4686 12.1401C2.4686 12.1175 2.46484 12.0988 2.46108 12.0762L0.740204 1.79603L0.375738 1.8599H0.747718C0.747718 1.72088 0.781535 1.58561 0.849168 1.45786C0.94686 1.26999 1.12346 1.0934 1.35641 0.961889C1.59313 0.834139 1.88245 0.755233 2.20182 0.755233H14.4509V0.379495Z" fill="#343434"/>
</svg>
