<svg width="22" height="24" viewBox="0 0 22 24" fill="none" xmlns="http://www.w3.org/2000/svg">
<path d="M20.5183 23.7912C20.1092 23.3711 19.7148 22.9361 19.3315 22.4607C15.9849 18.318 13.4455 13.4897 9.91455 9.31746C7.16132 6.07036 3.67096 3.81102 0.0036857 1.8834C0.0036857 1.63277 0 1.38214 0 1.14257C0 0.715028 0.00368476 0.320657 0.0184285 0C0.534426 0.125314 1.09834 0.309599 1.66962 0.530742C1.93868 0.670798 2.20405 0.818226 2.46205 0.973026C5.21896 2.59842 7.66258 4.86145 9.87769 7.35667C12.0891 9.85189 14.0757 12.5793 15.9222 15.1224C17.8572 17.8536 19.6632 20.6031 21.7788 23.1057C21.8525 23.1941 21.9263 23.2826 22 23.3674C21.9594 23.3674 21.9189 23.3674 21.8783 23.3674C21.8747 23.3674 21.8747 23.3674 21.8747 23.3674C21.355 23.3674 20.8869 23.4927 20.5183 23.7912Z" fill="#3A587A"/>
</svg>
