<svg width="15" height="6" viewBox="0 0 15 6" fill="none" xmlns="http://www.w3.org/2000/svg">
<path d="M14.5621 4.69401C14.4959 4.70872 13.1974 4.96255 11.3691 4.96255C9.77993 4.96255 7.7898 4.77126 5.85852 4.07232C3.92725 3.37338 2.0585 2.17783 0.664306 0.158266C0.550269 -0.00727239 0.322194 -0.0514152 0.156656 0.0663008C-0.00888233 0.184017 -0.0493458 0.412092 0.0646908 0.581308C1.55821 2.74434 3.5741 4.03186 5.61205 4.76758C7.65369 5.50331 9.72108 5.70195 11.3691 5.70195C13.3261 5.70195 14.6909 5.42238 14.7093 5.4187C14.9043 5.37823 15.033 5.18326 14.9925 4.98462C14.9521 4.78597 14.7608 4.65354 14.5621 4.69401Z" fill="#343434"/>
</svg>
