<svg width="1" height="4" viewBox="0 0 1 4" fill="none" xmlns="http://www.w3.org/2000/svg">
<path d="M0.0438258 4.0001C0.0438258 3.98815 0.0438258 3.9762 0.0438258 3.96425L0.0398417 3.89651C0.0199211 3.58575 0.00796808 3.27498 0.00398417 2.97219C2.55048e-07 2.87258 0 2.78095 0 2.68533C0 2.51002 0.00398442 2.33871 0.00796833 2.16739C0.00796833 2.13153 0.00796833 2.09567 0.00796833 2.05981L0.0119525 2.00802C0.0199203 1.71319 0.035858 1.42633 0.0597625 1.13947C0.0637474 1.10361 0.0677308 1.07174 0.0677308 1.03987C0.0996042 0.689261 0.135462 0.342638 0.183272 0C0.251002 0.09562 0.314749 0.19124 0.374512 0.290844C0.673324 0.808786 0.848627 1.41039 0.848627 2.07177C0.848627 2.11559 0.848627 2.15543 0.848627 2.19528C0.832691 2.6415 0.705198 3.04789 0.505989 3.39451C0.374512 3.61762 0.219128 3.82081 0.0438258 4.0001Z" fill="#231F20"/>
</svg>
