<svg width="6" height="3" viewBox="0 0 6 3" fill="none" xmlns="http://www.w3.org/2000/svg">
<path d="M4.08579 2.99998H1.4888C1.0485 2.99998 0.649249 2.80595 0.376863 2.49998C0.14179 2.23506 0 1.88431 0 1.49999C0 1.17163 0.104478 0.869397 0.279849 0.62313C0.548504 0.246267 0.99253 0 1.4888 0H4.08579C4.52609 0 4.92161 0.190298 5.194 0.496265C5.13803 0.619399 5.10817 0.753727 5.10817 0.899248C5.10817 1.24999 5.28728 1.55596 5.55966 1.73133C5.45146 2.45148 4.83206 2.99998 4.08579 2.99998ZM1.4888 1.02984C1.23133 1.02984 1.02238 1.2388 1.01865 1.49999C1.02238 1.76118 1.23133 1.97014 1.4888 1.97014H4.08579C4.34325 1.97014 4.55221 1.76118 4.55594 1.49999C4.55594 1.36939 4.5037 1.25372 4.41788 1.1679C4.33206 1.08208 4.21639 1.02984 4.08579 1.02984H1.4888Z" fill="#220905"/>
</svg>
