<svg width="13" height="24" viewBox="0 0 13 24" fill="none" xmlns="http://www.w3.org/2000/svg">
<path d="M5.02398 23.8951C4.31989 23.8951 3.6268 23.8364 2.95938 23.719C5.14499 23.2386 7.09958 22.1312 8.62877 20.5946C10.7117 18.497 11.9952 15.611 11.9952 12.4133C11.9952 9.21551 10.7117 6.32581 8.62877 4.23187C6.54951 2.13427 3.67814 0.843441 0.502398 0.843441C0.33371 0.843441 0.165022 0.847109 0 0.854443C0.80677 0.476727 1.66488 0.187023 2.55966 0C6.63018 0.67842 10.037 3.33709 11.7715 6.96389C11.9292 7.29393 12.0722 7.63131 12.2006 7.97602C12.7176 9.35486 13 10.8511 13 12.4133C13 13.4584 12.8753 14.4742 12.637 15.4423C12.5526 15.7834 12.4536 16.1207 12.3436 16.4508C11.2288 19.7622 8.78646 22.4539 5.65106 23.8804C5.44203 23.8914 5.233 23.8951 5.02398 23.8951Z" fill="#231F20"/>
</svg>
