<svg width="13" height="24" viewBox="0 0 13 24" fill="none" xmlns="http://www.w3.org/2000/svg">
<path d="M5.02256 23.8883C4.31867 23.8883 3.62944 23.8297 2.95854 23.7124C5.14721 23.2321 7.10124 22.1249 8.63 20.5888C10.7087 18.4918 11.9955 15.6066 11.9955 12.4098C11.9955 9.21292 10.7087 6.32403 8.63 4.23068C6.54766 2.13367 3.68077 0.843204 0.505922 0.843204C0.337282 0.843204 0.168641 0.84687 0 0.854202C0.810209 0.476593 1.66808 0.186971 2.55894 0C6.63198 0.678229 10.0378 3.33615 11.7719 6.96193C11.9258 7.29188 12.0725 7.62916 12.2008 7.97377C12.7177 9.35223 13 10.848 13 12.4098C13 13.4839 12.8644 14.5251 12.6114 15.5223C12.5271 15.8669 12.4244 16.2078 12.3108 16.5415C11.1816 19.8043 8.75465 22.4585 5.64946 23.8737C5.44416 23.8847 5.23519 23.8883 5.02256 23.8883Z" fill="#231F20"/>
</svg>
