<svg width="24" height="25" viewBox="0 0 24 25" fill="none" xmlns="http://www.w3.org/2000/svg">
<path d="M7.16587 12.0789C7.16587 9.39305 9.33068 7.21357 12.0018 7.21357C14.6693 7.21357 16.8378 9.39305 16.8378 12.0789C16.8378 14.7684 14.6693 16.9479 12.0018 16.9479C9.33068 16.9479 7.16587 14.7684 7.16587 12.0789ZM22.9506 7.13652C21.072 2.92799 16.8781 0 12.0018 0C7.12551 0 2.92799 2.92799 1.05305 7.13652C0.377924 8.64455 0 10.3177 0 12.0789C0 13.198 0.154105 14.2767 0.43663 15.3041C1.83458 20.4115 6.48341 24.1614 12.0018 24.1614C17.4065 24.1614 21.9783 20.562 23.479 15.6123C23.8165 14.4932 24 13.308 24 12.0789C24 10.3177 23.6221 8.64455 22.9506 7.13652Z" fill="#656263"/>
</svg>
