<svg width="3" height="24" viewBox="0 0 3 24" fill="none" xmlns="http://www.w3.org/2000/svg">
<path d="M1.67139 24.0001C1.44381 22.3884 1.2237 20.7767 1.02223 19.1613C0.492463 15.0164 0.067154 10.8752 0.00746156 6.67436C0.00373102 6.31621 0 5.95805 0 5.60363C0 3.99939 0.0634227 2.39516 0.309655 0.772271C0.346962 0.514848 0.388001 0.257424 0.43277 0C0.794655 0.0298462 1.14162 0.0559617 1.455 0.0858079C1.4065 0.365616 1.36173 0.645426 1.3207 0.928964C1.08566 2.47351 1.02223 4.02551 1.02223 5.60363C1.02223 5.95432 1.02596 6.30502 1.02969 6.65944C1.08939 10.8006 1.51096 14.9007 2.03327 19.0307C2.21608 20.467 2.41008 21.9071 2.61154 23.3472C2.32054 23.586 2.00343 23.8024 1.67139 24.0001Z" fill="#06080B"/>
</svg>
