<svg width="22" height="27" viewBox="0 0 22 27" fill="none" xmlns="http://www.w3.org/2000/svg">
<path d="M14.2686 27C11.355 27 8.38912 26.5624 5.63264 25.6985C4.75371 25.4217 3.8486 25.0738 3.01829 24.5764C2.19172 24.0827 1.43621 23.4282 0.897632 22.5455C0.194487 21.3973 0 20.0546 0 18.7268C0 17.2981 0.228148 15.8731 0.377753 14.68C0.620863 12.7613 0.759247 10.8613 0.759247 8.95388C0.759247 8.07869 0.729326 7.2035 0.665744 6.32082C0.620863 5.67004 0.56102 5.01926 0.478737 4.37596C0.938773 3.85234 1.42499 3.37734 1.93365 2.94722C2.27026 2.8238 2.61435 2.70412 2.88738 2.61061C3.14545 2.52085 3.34368 2.45353 3.39604 2.43483C4.30489 2.11692 5.22871 1.84015 6.16 1.60078C8.03754 1.1183 9.94501 0.785428 11.8375 0.497438C13.472 0.250589 16.0339 0 17.7058 0H17.7282C18.3603 0 19.0186 0.0149605 19.6656 0.0448816C18.5361 0.138385 17.3916 0.273029 16.5239 0.403934C14.6389 0.691924 12.7464 1.02106 10.895 1.49605C10.3078 1.6494 9.72434 1.81396 9.14462 1.99723C8.22455 2.17302 7.3157 2.3675 6.41433 2.59939C5.50921 2.83128 4.61158 3.10057 3.73265 3.411H3.72891C3.65037 3.43718 3.39604 3.52321 3.06317 3.63915C2.73404 3.75135 2.33384 3.89348 1.98975 4.02812C1.799 4.09919 1.62696 4.17025 1.49231 4.22635C1.58208 4.89957 1.64192 5.57654 1.6868 6.24976C1.75412 7.15487 1.78404 8.05625 1.78404 8.95388C1.78404 10.9137 1.63818 12.8548 1.39507 14.8109C1.23798 16.0265 1.02106 17.4103 1.02106 18.7268C1.02106 19.9536 1.2118 21.1056 1.76908 22.0069C2.20294 22.7138 2.81632 23.2561 3.54565 23.6937C4.26749 24.1276 5.10154 24.453 5.93559 24.7148C8.58734 25.5451 11.456 25.9677 14.2686 25.9677C14.9156 25.9677 15.5552 25.9453 16.191 25.9042C16.4715 25.8817 16.7595 25.8555 17.0625 25.8256C17.6684 25.863 18.2705 25.8817 18.8764 25.8817C19.5123 25.8817 20.1444 25.8593 20.7727 25.8181C20.7914 25.8144 20.8138 25.8144 20.8363 25.8144C21.1355 25.792 21.4534 25.762 21.7788 25.7284C19.9573 26.5026 17.904 26.813 16.2621 26.929C15.6038 26.9776 14.9381 27 14.2686 27Z" fill="#220905"/>
</svg>
