<svg width="47" height="49" viewBox="0 0 47 49" fill="none" xmlns="http://www.w3.org/2000/svg">
<path d="M46.5113 48.6995C46.4965 48.6995 46.4817 48.6995 46.4669 48.6995C45.9448 48.6995 45.3894 48.6995 44.797 48.6995C42.9013 44.4527 38.6693 41.4981 33.7486 41.4981C32.8971 41.4981 32.064 41.5869 31.2605 41.7535C30.5867 41.6425 29.8943 41.5832 29.1871 41.5832C24.2109 41.5832 19.9086 44.486 17.8536 48.6995C12.9996 48.6995 7.96046 48.6995 2.99165 48.6995C3.43966 47.3925 3.7951 46.03 3.82472 44.5341C3.82472 44.4045 3.82472 44.275 3.82472 44.1454C3.82472 42.2126 3.57295 40.3095 3.27304 38.4398C2.95092 36.433 2.63621 34.4299 2.3326 32.4231C1.92532 29.724 1.52174 27.0248 1.14779 24.322C1.91051 23.6888 2.50292 22.8928 2.80282 21.8968C3.30266 23.0668 3.92469 24.1665 4.69112 25.1513C5.93887 26.7508 7.5791 28.0356 9.67844 28.7687C12.2665 29.6796 14.9657 29.8906 17.6352 29.8906C18.6201 29.8906 19.5975 29.8647 20.5676 29.8277C20.9045 30.3423 21.3896 30.7459 21.9635 31.0236C22.6262 31.3457 23.4075 31.5086 24.2516 31.5086C24.9329 31.5086 25.6549 31.4012 26.388 31.1754C27.0248 30.9828 27.5136 30.6718 27.8764 30.3201C28.1726 30.3756 28.4873 30.4015 28.8132 30.4015C29.4426 30.4015 30.1127 30.3016 30.8014 30.0905C31.3198 29.9313 31.7085 29.6944 32.0084 29.4278C32.9341 30.1202 33.9264 30.7607 35.0038 31.3346L35.0149 31.342C36.6218 32.1491 38.4398 32.7823 40.154 33.5302C41.8646 34.2818 43.4678 35.1408 44.6452 36.3552C44.6933 36.4034 44.7415 36.4515 44.7859 36.5033C44.2046 36.7107 43.6122 36.981 43.0679 37.3401C42.6866 37.5919 42.3311 37.8881 42.0275 38.2398C41.7239 38.5916 41.4721 38.9988 41.3055 39.4654C41.1056 40.0207 41.0093 40.6131 41.0093 41.2056C41.0093 42.0312 41.1944 42.8643 41.5536 43.6122C41.9127 44.3601 42.4459 45.0266 43.1457 45.5042C44.312 46.3077 45.6486 46.7186 47 46.889C46.9778 47.0148 46.9556 47.137 46.9334 47.2518C46.8556 47.6554 46.7631 48.0108 46.6631 48.3107C46.6113 48.4551 46.5631 48.5847 46.5113 48.6995ZM4.75036 29.5092C3.9321 29.5092 3.26934 30.1757 3.26934 30.9977C3.26934 31.8196 3.9321 32.4861 4.75036 32.4861H7.32732C8.06413 32.4861 8.67875 31.9418 8.78612 31.2272C8.93793 31.3235 9.11935 31.379 9.31188 31.379H11.8889C12.4257 31.379 12.8589 30.9421 12.8589 30.4015C12.8589 29.861 12.4257 29.4241 11.8889 29.4241H9.31188C8.91571 29.4241 8.57508 29.661 8.42328 30.0017C8.15299 29.6981 7.76052 29.5092 7.32732 29.5092H4.75036ZM5.36498 3.52852C5.32425 3.5063 5.28352 3.48409 5.23909 3.46187C4.20979 2.92501 2.89168 2.3289 1.67355 1.94383C1.69576 1.78833 1.72168 1.63282 1.7476 1.48102V1.47731C1.7476 1.43659 1.04041 1.33662 0 1.23665C0.0703485 0.825666 0.144399 0.414684 0.225855 0C0.440602 0.0370259 0.655349 0.077754 0.866394 0.118481C3.05459 0.540571 5.15393 1.18481 7.03853 2.16969C6.46463 1.94754 5.89814 1.76241 5.37979 1.63652C5.36498 1.95864 5.36128 2.35482 5.36128 2.78431C5.36128 3.02498 5.36498 3.27675 5.36498 3.52852Z" fill="#F35B5C"/>
</svg>
