<svg width="6" height="9" viewBox="0 0 6 9" fill="none" xmlns="http://www.w3.org/2000/svg">
<path d="M4.90842 9.00012C4.08766 8.97991 3.47309 8.96374 3.09303 8.95161C2.79788 8.93948 2.48251 8.93543 2.15502 8.93543C2.07011 8.93543 1.98116 8.93948 1.89625 8.93948C1.8073 8.93948 1.71835 8.93948 1.6294 8.93948C1.19678 8.93948 0.752033 8.93543 0.307282 8.91117C0.105123 8.0055 0 7.06748 0 6.10116C0 3.88954 0.55796 1.81135 1.54045 0C2.74532 0 4.10383 0 5.58768 0C4.84373 1.66175 4.42729 3.50544 4.42729 5.44617C4.42729 6.67934 4.5971 7.86803 4.90842 9.00012Z" fill="#BDBCBD"/>
</svg>
