<svg width="5" height="15" viewBox="0 0 5 15" fill="none" xmlns="http://www.w3.org/2000/svg">
<path d="M3.77497 9.76578C4.46622 6.75885 4.63135 3.67513 4.60063 0.59908C4.59679 0.399387 4.59295 0.199693 4.58911 0C4.18588 0.495393 3.80954 1.03303 3.45239 1.62059L3.44087 1.63979C3.3295 1.82412 3.21814 2.01998 3.11061 2.21583L3.08757 2.25807C2.98388 2.45393 2.88019 2.65362 2.78035 2.85715L2.75347 2.91476C2.65362 3.11829 2.55761 3.32566 2.46545 3.53688L2.43856 3.60216C2.3464 3.81722 2.25423 4.03611 2.16591 4.26269L2.1467 4.31645C2.05454 4.55071 1.96621 4.7888 1.88557 5.03074L1.87789 5.05378C1.78956 5.30724 1.70507 5.56453 1.62443 5.82951V5.83719C1.54762 6.09449 1.47082 6.35947 1.40169 6.62829C1.39401 6.65133 1.38633 6.67437 1.37865 6.70125C1.31337 6.95855 1.24808 7.22352 1.18664 7.49234C1.17896 7.53075 1.16744 7.56915 1.15976 7.60371C1.09831 7.86869 1.04455 8.13751 0.986946 8.41401C0.979265 8.46009 0.971585 8.50617 0.960065 8.55225C0.9063 8.82875 0.856378 9.10909 0.810295 9.39711C0.798773 9.44319 0.794934 9.49312 0.783413 9.54304C0.73733 9.8349 0.691246 10.1306 0.649004 10.434C0.645163 10.4801 0.637484 10.5223 0.633643 10.5684C0.5914 10.8833 0.552997 11.202 0.514595 11.5285C0.510754 11.5592 0.506914 11.5899 0.506914 11.6245C0.468512 11.9662 0.433949 12.3195 0.403227 12.6805C0.387865 12.8572 0.368664 13.0377 0.345623 13.2143C0.337942 13.2566 0.334103 13.3027 0.326422 13.3449C0.307221 13.4908 0.28418 13.6406 0.261138 13.7865C0.253458 13.8172 0.249617 13.848 0.241936 13.8825C0.176652 14.255 0.0960072 14.6275 0 15H0.00384026C0.245776 14.9424 0.483873 14.8618 0.714288 14.7466C2.62674 13.7904 3.32182 11.7358 3.77497 9.76578Z" fill="#3A587A"/>
</svg>
