<svg width="5" height="8" viewBox="0 0 5 8" fill="none" xmlns="http://www.w3.org/2000/svg">
<path d="M0.426503 7.8408C0.68926 6.80501 0.830158 5.72352 0.830158 4.60776C0.830158 2.98552 0.536938 1.43183 0 0H4.35262C4.7715 1.25285 4.99999 2.5971 4.99999 3.99085C4.99999 4.99618 4.88194 5.96723 4.66107 6.90402C4.43259 7.17058 4.17364 7.38764 3.89565 7.55139H3.89184C3.8271 7.58947 3.75856 7.62374 3.68621 7.65802C3.66717 7.66182 3.61004 7.67325 3.53769 7.68086C3.36252 7.70371 3.08453 7.73037 2.71896 7.75322C2.15536 7.78368 1.38233 7.81415 0.426503 7.8408Z" fill="#666364"/>
</svg>
