<svg width="19" height="23" viewBox="0 0 19 23" fill="none" xmlns="http://www.w3.org/2000/svg">
<path d="M9.94627 22.9117C5.52775 22.1404 1.9393 18.9376 0.583994 14.7211C0.209357 13.5457 0 12.2969 0 10.9931C0 9.23005 0.381983 7.5552 1.05413 6.04563C2.24415 3.38276 4.35608 1.23043 6.98222 0.0110188C7.15118 0.00367339 7.32013 0 7.48908 0C10.6698 0 13.5421 1.29287 15.6283 3.39378C17.7108 5.49102 19 8.38528 19 11.5881C19 14.7909 17.7108 17.6814 15.6283 19.7824C14.0967 21.3213 12.139 22.4305 9.94627 22.9117ZM7.48908 6.20724C4.53973 6.20724 2.14499 8.61667 2.14499 11.5881C2.14499 14.5595 4.53606 16.9652 7.48908 16.9652C8.78195 16.9652 9.96463 16.5024 10.8902 15.7348C11.2502 15.8229 11.6285 15.867 12.0141 15.867C14.688 15.867 16.855 13.6853 16.855 10.9931C16.855 8.30447 14.688 6.12276 12.0141 6.12276C11.1877 6.12276 10.4091 6.33212 9.72589 6.69941C9.0464 6.38354 8.28611 6.20724 7.48908 6.20724Z" fill="#666364"/>
</svg>
