<svg width="10" height="9" viewBox="0 0 10 9" fill="none" xmlns="http://www.w3.org/2000/svg">
<path d="M9.59863 9.00013C9.02271 8.98507 8.57854 8.97378 8.28493 8.96248C8.02144 8.95119 7.7316 8.95119 7.43423 8.95119C7.27237 8.95119 7.11051 8.95119 6.94113 8.95119C6.32757 8.95119 5.6726 8.94366 5.0214 8.87591C4.3702 8.80439 3.72276 8.67264 3.11673 8.40915C2.71773 8.23223 2.33755 7.99509 2.00254 7.6789C0.952334 6.68516 0.255963 5.34135 0.0301133 3.91097C0.0225845 3.85827 0.0188206 3.81687 0.0150567 3.75664C0.0112927 3.70394 0.00752834 3.63995 0.00752834 3.56843C0.00376344 3.42539 0 3.24848 0 3.04898C0 2.39401 0.0263494 1.50567 0.120453 0.828117C0.150567 0.598503 0.191972 0.399001 0.248435 0.210793C0.27102 0.143038 0.297369 0.0715185 0.331247 0C0.372653 0.101632 0.414058 0.203265 0.455464 0.304898C0.530748 0.500634 0.718956 0.628616 0.929749 0.628616H1.20453C1.17066 0.76789 1.13678 0.982448 1.11043 1.21959C1.0502 1.78422 1.03138 2.5107 1.03138 3.04898C1.03138 3.22589 1.03138 3.38399 1.03515 3.5082C1.03891 3.63242 1.04644 3.72653 1.0502 3.74911C1.23841 4.94988 1.83315 6.09419 2.7102 6.9223C2.94358 7.14815 3.21836 7.32131 3.53079 7.45682C3.84321 7.59609 4.18952 7.69396 4.55841 7.76171C5.28866 7.89722 6.10548 7.91228 6.90348 7.91228C6.91478 7.91228 6.92983 7.91228 6.94113 7.91228C7.10675 7.91228 7.26861 7.91228 7.43423 7.91228C7.73913 7.91228 8.0365 7.91228 8.32257 7.92357C8.55972 7.93487 8.89849 7.94239 9.32761 7.95369C9.40289 8.30752 9.49323 8.65759 9.59863 9.00013Z" fill="#231F20"/>
</svg>
