<svg width="18" height="10" viewBox="0 0 18 10" fill="none" xmlns="http://www.w3.org/2000/svg">
<path d="M17.2628 1.96873L11.9395 7.26611C11.8802 7.32538 11.8395 7.40318 11.8321 7.48838V7.49208C11.8284 7.52172 11.7876 7.86253 11.6987 8.1737C11.6542 8.32559 11.5987 8.47006 11.5505 8.54415C11.5394 8.56267 11.5283 8.57749 11.5209 8.5886L11.5098 8.59972L11.5764 8.69233V8.5812C11.5394 8.5812 11.5098 8.59972 11.5098 8.59972L11.5764 8.69233V8.5812V8.68122L11.5876 8.5812H11.5764V8.68122L11.5876 8.5812L11.5505 8.95164L11.595 8.5812C11.569 8.5812 11.5505 8.57749 11.532 8.57749C11.4801 8.5812 11.4394 8.5849 11.3838 8.5886C11.1912 8.61083 10.8615 8.65899 10.4281 8.72567C9.77978 8.82569 8.90182 8.95905 7.9683 9.06648C7.03848 9.17391 6.05309 9.25541 5.19366 9.25541C4.57131 9.25541 4.01564 9.21095 3.61556 9.11464C3.41181 9.06277 3.24881 9.0035 3.14138 8.93682C3.02655 8.87014 2.97468 8.80717 2.94875 8.75531L2.61906 8.92201L2.95246 8.76642C2.95246 8.76642 2.92282 8.69974 2.86725 8.5849C2.67833 8.1737 2.20045 7.13645 1.74851 6.11773C1.51883 5.60651 1.29656 5.1027 1.12245 4.6841C1.03355 4.47294 0.955751 4.28402 0.89648 4.13213C0.837209 3.97655 0.792755 3.8543 0.774233 3.78762L0.418604 3.89135L0.781642 3.82096C0.777937 3.80614 0.737188 3.57647 0.737188 3.30974C0.737188 3.1875 0.744598 3.06155 0.766824 2.943C0.79646 2.76519 0.855731 2.61701 0.926116 2.53551C0.963161 2.49476 1.0002 2.46513 1.05207 2.4429C1.10393 2.42067 1.16691 2.40586 1.26693 2.40586C1.39288 2.40586 1.57069 2.43549 1.80407 2.5244C2.03375 2.6096 2.31899 2.75407 2.6561 2.96523L2.85244 2.65035L2.61165 2.93189C2.62276 2.943 3.90821 4.09139 4.63799 6.22145C4.67874 6.34 4.77505 6.43261 4.8973 6.46224C5.01955 6.49188 5.1455 6.45854 5.23811 6.36963L5.15661 6.28443L5.23441 6.36963H5.23811L5.15661 6.28443L5.23441 6.36963C5.25293 6.35481 6.19016 5.48797 9.23893 4.22104C9.36488 4.16918 9.45009 4.05064 9.4649 3.91357C9.4649 3.91357 9.46861 3.86541 9.47972 3.78392C9.50936 3.48756 9.58715 2.74296 9.67606 2.0243C9.72051 1.66496 9.76867 1.31674 9.81312 1.0352C9.83535 0.894435 9.85758 0.772188 9.8798 0.679575C9.88721 0.631418 9.89832 0.590668 9.90573 0.561033C9.91314 0.531397 9.92055 0.512874 9.92055 0.50917C9.99835 0.320242 9.90573 0.10168 9.71681 0.0275898C9.52788 -0.0502037 9.31302 0.0424084 9.23893 0.231335C9.2167 0.286902 9.20189 0.33506 9.19077 0.390627C9.16484 0.494352 9.13891 0.620304 9.11298 0.764778C9.02407 1.27229 8.93146 2.03541 8.85737 2.67999C8.78328 3.32086 8.73512 3.83948 8.73512 3.83948L9.09816 3.87653L8.95739 3.53201C5.75303 4.86932 4.77505 5.78803 4.7306 5.83248L4.9825 6.0992L5.33072 5.98066C4.53056 3.63203 3.12286 2.39845 3.09323 2.36881C3.07841 2.35399 3.0673 2.34658 3.04507 2.33547C2.67833 2.10209 2.35233 1.93539 2.05968 1.82796C1.76703 1.71682 1.50772 1.66126 1.26693 1.66126C1.01873 1.66126 0.792755 1.72423 0.611236 1.84278C0.474171 1.93168 0.363037 2.04652 0.281539 2.16877C0.159291 2.35399 0.0926118 2.55774 0.0518625 2.75037C0.0148183 2.94671 0 3.13934 0 3.30974C0.00370517 3.67278 0.0555672 3.95062 0.0592714 3.96173L0.0666803 3.99877C0.103725 4.12102 0.162997 4.27661 0.24079 4.47665C0.511216 5.16198 1.02243 6.30666 1.46697 7.28834C1.9078 8.27002 2.28565 9.0813 2.28565 9.0813L2.29306 9.09241C2.39679 9.30357 2.5709 9.46286 2.76723 9.5777C3.0673 9.75181 3.42292 9.84812 3.83412 9.9111C4.24161 9.97407 4.70096 10 5.19366 10C6.47911 10 7.97571 9.8296 9.20559 9.65919C9.82053 9.57399 10.3688 9.48879 10.7837 9.42581C10.9911 9.39247 11.169 9.36654 11.2986 9.34802C11.3653 9.34061 11.4209 9.3332 11.4616 9.3295C11.4801 9.32579 11.4987 9.32579 11.5098 9.32209H11.532V9.12946L11.5098 9.32209H11.532V9.12946L11.5098 9.32209H11.5172C11.532 9.32209 11.5505 9.32579 11.5764 9.32579C11.7283 9.32579 11.8691 9.26282 11.9654 9.18502C12.0506 9.11464 12.1099 9.03684 12.1618 8.95905C12.2507 8.81828 12.3136 8.6664 12.3618 8.51822C12.4359 8.28854 12.484 8.05887 12.5174 7.88105C12.547 7.70324 12.5618 7.57729 12.5618 7.56988L12.1988 7.52913L12.4544 7.79585L17.7814 2.49847C17.9259 2.35399 17.9259 2.12061 17.7851 1.97243C17.6407 1.82796 17.4073 1.82425 17.2628 1.96873Z" fill="#343434"/>
</svg>
