<svg width="14" height="44" viewBox="0 0 14 44" fill="none" xmlns="http://www.w3.org/2000/svg">
<path d="M5.24039 44.0001H1.16003C0.570808 42.4829 0.198863 41.0429 0 39.662C0.290928 39.6178 0.574491 39.5478 0.83964 39.4668C1.27419 39.3379 1.64982 39.1869 1.90024 39.0691C2.44159 38.815 3.07868 38.4946 3.62003 38.0342C3.71578 37.9532 3.80416 37.8648 3.89254 37.7728C3.89254 37.7765 3.89254 37.7765 3.89254 37.7801C3.89254 37.7801 3.89623 37.7801 3.89623 37.7838V37.7875C3.91464 38.06 3.93673 38.3362 3.96988 38.6161C4.16506 40.288 4.59961 42.0483 5.35455 43.9154C5.31404 43.9154 5.27721 43.9449 5.24039 44.0001ZM4.46703 31.8032H4.46335C4.45967 31.829 4.4523 31.8548 4.44862 31.8806C4.39338 32.0941 4.34182 32.3114 4.29395 32.5287C4.28658 32.5655 4.27922 32.6024 4.27185 32.6392C4.2203 32.8785 4.17242 33.1179 4.13191 33.361C4.12455 33.4052 4.11718 33.4457 4.10982 33.4899C4.07667 33.685 4.04721 33.8802 4.02144 34.0754C3.6053 33.4935 3.02712 33.0516 2.38635 32.7091C1.81186 32.4035 1.18213 32.1788 0.552395 32.0168C0.666556 31.608 0.791766 31.203 0.924341 30.8015C1.93338 27.8002 3.47272 25.0198 4.83898 22.2873C5.77805 20.3944 6.63979 18.5236 7.16272 16.6087C7.32844 16.5534 7.49416 16.4871 7.65619 16.4061C8.68365 15.8979 9.38335 15.0767 9.86946 14.1708C10.3519 13.2612 10.6354 12.2521 10.8564 11.291C11.4825 8.57317 11.6666 5.80751 11.6666 3.05659C11.6666 2.83195 11.6629 2.6073 11.6592 2.38266C11.6592 2.25009 11.6592 2.1212 11.6555 1.9923C12.3 1.22263 12.9997 0.570807 13.7546 0C13.8614 0.592904 13.924 1.17844 13.9388 1.80449C13.9424 2.04018 13.9461 2.27955 13.9461 2.51524C13.9461 3.01976 13.9351 3.52796 13.913 4.03248C13.8209 4.2203 13.7325 4.41548 13.6478 4.61066L13.6221 4.67326C13.5337 4.87949 13.4453 5.0894 13.3606 5.30667L13.3422 5.35823C13.2538 5.58287 13.1691 5.8112 13.0918 6.0432L13.0844 6.0653C12.9997 6.30835 12.9187 6.55509 12.8413 6.80919V6.81655C12.7677 7.06329 12.694 7.31739 12.6277 7.57518C12.6204 7.59727 12.613 7.61937 12.6057 7.64515C12.543 7.89188 12.4804 8.14598 12.4215 8.40377C12.4142 8.44059 12.4031 8.47742 12.3957 8.51057C12.3368 8.76467 12.2853 9.02245 12.23 9.2876C12.2227 9.33179 12.2153 9.37598 12.2042 9.42018C12.1527 9.68533 12.1048 9.95416 12.0606 10.2304C12.0496 10.2745 12.0459 10.3224 12.0348 10.3703C11.9907 10.6502 11.9465 10.9337 11.906 11.2247C11.9023 11.2689 11.8949 11.3094 11.8912 11.3536C11.8507 11.6555 11.8139 11.9612 11.7771 12.2742C11.7734 12.3037 11.7697 12.3331 11.7697 12.3663C11.7329 12.694 11.6997 13.0328 11.6703 13.379C11.6555 13.5484 11.6371 13.7215 11.615 13.8909C11.6077 13.9314 11.604 13.9756 11.5966 14.0161C11.5782 14.156 11.5561 14.2997 11.534 14.4396C11.5266 14.4691 11.523 14.4985 11.5156 14.5317C11.453 14.8889 11.3757 15.2461 11.2836 15.6033H11.2873C9.97625 20.759 6.00269 25.749 4.46703 31.8032Z" fill="white"/>
</svg>
