<svg width="5" height="7" viewBox="0 0 5 7" fill="none" xmlns="http://www.w3.org/2000/svg">
<path d="M0.079459 6.99996C0.0454044 6.71239 0.0227023 6.42861 0.00378376 6.14861V6.14483C0.00378376 6.14104 0 6.14104 0 6.14104C0 6.13726 0 6.13726 0 6.13347C0.166484 5.9632 0.314052 5.77023 0.438916 5.55834C0.628105 5.22916 0.749184 4.84321 0.764319 4.41943C0.764319 4.38159 0.764319 4.34376 0.764319 4.30213C0.764319 3.67403 0.597834 3.10268 0.314052 2.61079C0.257295 2.5162 0.196755 2.42539 0.132432 2.33458C0.158918 2.13782 0.189188 1.94107 0.223242 1.7481C0.223242 1.74053 0.223242 1.73675 0.223242 1.73296C0.23081 1.68756 0.238376 1.64594 0.245944 1.60053C0.287565 1.3508 0.336755 1.10486 0.389727 0.858913C0.397295 0.821076 0.404862 0.783238 0.41243 0.745401C0.461618 0.522159 0.514592 0.298917 0.571348 0.079459C0.575132 0.0529724 0.582699 0.0264866 0.586483 0H0.590267C2.6789 0.412431 4.91132 1.53999 4.91132 3.69673C4.91132 3.727 4.90754 3.76106 4.90754 3.79133C4.86591 5.12321 3.48484 5.87239 2.3989 6.3832C1.9335 6.60266 0.923237 6.97725 0.079459 6.99996Z" fill="white"/>
</svg>
