<svg width="3" height="20" viewBox="0 0 3 20" fill="none" xmlns="http://www.w3.org/2000/svg">
<path d="M2.48854 20.0001C2.17655 19.2696 1.91228 18.5135 1.69206 17.7428C0.418426 13.3199 0.0256933 8.52269 0.018352 3.97872C0.0146819 3.36943 0 2.46284 0 1.64434C0 1.21858 0.00367041 0.818501 0.018352 0.488164C0.0220232 0.337678 0.0954299 0.194531 0.216554 0.102771C0.304644 0.0367036 0.411085 0 0.521198 0C0.557902 0 0.598276 0.00367017 0.638651 0.0146816C0.873557 0.0734082 1.11947 0.143145 1.36906 0.220225C1.32135 0.557902 1.2773 0.89925 1.2406 1.2406C1.15985 1.21491 1.08277 1.18921 1.00936 1.16719C1.00936 1.31768 1.00569 1.47917 1.00569 1.64434C1.00569 2.45183 1.02037 3.35475 1.02404 3.97505C1.03138 8.46029 1.42412 13.1731 2.65738 17.4601C2.67206 17.5042 2.68307 17.5519 2.69408 17.5959C2.7161 17.8235 2.72711 18.0547 2.72711 18.286C2.72711 18.8072 2.66839 19.332 2.52891 19.8532C2.5179 19.901 2.50322 19.9523 2.48854 20.0001Z" fill="#06080B"/>
</svg>
