<svg width="8" height="26" viewBox="0 0 8 26" fill="none" xmlns="http://www.w3.org/2000/svg">
<path d="M2.12806 26C2.13183 25.9963 2.1356 25.9963 2.14313 25.9925C3.05839 25.6008 3.92091 25.0848 4.62524 24.4068C5.33334 23.7289 5.88701 22.8776 6.1582 21.8494C6.31639 21.2618 6.38042 20.678 6.38042 20.1055C6.38042 19.2091 6.22976 18.339 6.04897 17.4953C5.86818 16.6516 5.65349 15.8268 5.50283 15.0358C5.03202 12.5273 4.742 9.94352 4.67421 7.39361C4.66667 7.03579 4.66291 6.67421 4.66291 6.31639C4.66291 4.59134 4.77214 2.86629 5.05462 1.18268C5.05839 1.15254 5.06215 1.12618 5.06215 1.09605C5.06215 0.994352 5.02826 0.90019 4.99436 0.843693C4.92656 0.719399 4.86253 0.6855 4.82487 0.655368C4.7872 0.629003 4.75707 0.617704 4.73447 0.606404C4.69304 0.587572 4.66291 0.580038 4.63654 0.572506C4.58381 0.55744 4.53485 0.54614 4.47835 0.534841C4.26743 0.493409 3.93598 0.451978 3.49906 0.403014C2.62147 0.305085 1.34087 0.195857 0 0.135593C0.96422 0.0564975 1.91337 0 2.66667 0C2.6742 0 2.68174 0 2.68927 0C2.69304 0 2.69304 0 2.69304 0C3.91338 0 5.23918 0.0677965 6.37666 0.154426C6.33146 0.414314 6.29003 0.674201 6.25236 0.934088C6.00378 2.57251 5.93975 4.1921 5.93975 5.81169C5.93975 6.1695 5.94351 6.53108 5.94728 6.89267C6.00754 11.1337 6.43692 15.3145 6.97176 19.4991C7.17515 21.13 7.39738 22.7571 7.62713 24.3842C5.98871 25.3447 3.90961 25.7967 2.12806 26Z" fill="#3A587A"/>
</svg>
