<svg width="2" height="3" viewBox="0 0 2 3" fill="none" xmlns="http://www.w3.org/2000/svg">
<path d="M1.10348 2.99997C0.755605 2.99997 0.389024 2.99997 0 2.99997C0.0523681 2.88401 0.100997 2.75309 0.153365 2.60721C0.254362 2.30422 0.347878 1.94512 0.42643 1.53739C0.448874 1.42143 0.471317 1.29799 0.493761 1.17081C0.673311 1.19326 0.85286 1.21196 1.03241 1.22692C1.04363 1.23066 1.0586 1.23066 1.07356 1.23066C1.33166 1.23066 1.54862 1.03615 1.58228 0.774307C1.61221 0.523686 1.63465 0.265584 1.65335 0C1.5748 1.14089 1.38777 2.15833 1.11844 2.94386C1.1147 2.96257 1.10722 2.98127 1.10348 2.99997Z" fill="#220905"/>
</svg>
