<svg width="19" height="26" viewBox="0 0 19 26" fill="none" xmlns="http://www.w3.org/2000/svg">
<path d="M16.336 26.0001C13.7118 26.0001 11.1248 25.7845 8.69023 24.9296C6.776 24.2568 5.30037 23.1046 4.14812 21.6289C3.0256 20.1905 2.21902 18.4435 1.66148 16.5627C1.54253 15.1466 1.0965 13.7379 0.840031 12.3551C0.371696 9.84992 0.0780557 7.27779 0.0148678 4.72796C0.00371671 4.37113 0 4.01431 0 3.65748C0 2.43832 0.0557552 1.21173 0.189565 0C1.27863 0.360545 2.49408 0.910652 3.43075 1.40129C3.63518 1.50536 3.83589 1.61316 4.03661 1.72095C4.03661 1.88078 4.04033 2.03317 4.04033 2.1707C4.04776 6.74255 4.44547 11.556 5.71667 15.968C6.85406 19.9266 9.08423 23.4019 13.1023 24.8144C13.1134 24.8181 13.1283 24.8218 13.1394 24.8292C13.1431 24.8292 13.1469 24.8292 13.1469 24.8292C14.9979 25.4723 16.9158 25.7548 18.8561 25.8588C18.8598 25.8886 18.8672 25.9183 18.871 25.948C18.0272 25.9778 17.1835 26.0001 16.3434 26.0001C16.3434 26.0001 16.3397 26.0001 16.336 26.0001Z" fill="#F35B5C"/>
</svg>
