<svg width="5" height="7" viewBox="0 0 5 7" fill="none" xmlns="http://www.w3.org/2000/svg">
<path d="M2.44027 6.3832C3.52621 5.87239 4.90728 5.12321 4.9489 3.79133C5.01701 1.57404 2.75053 0.419998 0.631629 0H0.627845C0.624061 0.0264866 0.616494 0.0529724 0.61271 0.079459C0.555954 0.298917 0.502981 0.522159 0.453792 0.745401C0.446224 0.783238 0.438657 0.821076 0.431089 0.858913C0.378117 1.10486 0.328927 1.3508 0.287306 1.60053C0.279738 1.64594 0.272172 1.68756 0.264604 1.73296C0.177577 2.25512 0.10947 2.78485 0.0640646 3.32214C0.0640646 3.35241 0.0602816 3.38268 0.0564971 3.41674C0.033795 3.68917 0.018659 3.9616 0.011092 4.24159L0.0073082 4.29078C-0.00782684 4.86213 -0.000258839 5.44483 0.0375783 6.0351L0.041362 6.09942C0.0602806 6.39834 0.0867664 6.69726 0.120821 6.99996C0.964599 6.97725 1.97108 6.60266 2.44027 6.3832Z" fill="white"/>
</svg>
