<svg width="21" height="23" viewBox="0 0 21 23" fill="none" xmlns="http://www.w3.org/2000/svg">
<path d="M20.6114 22.86C20.5208 22.8185 20.434 22.777 20.3435 22.7355C20.0945 22.6261 19.8417 22.5242 19.5927 22.4375C19.3852 22.2073 19.1852 21.9696 18.9815 21.7206L19.3814 21.3924L18.9815 21.7168C15.4802 17.3704 12.8807 12.4393 9.36057 8.2853C6.78745 5.25188 3.52766 3.0636 0.0113187 1.18092C0.00754605 0.822493 0.00377363 0.411246 0 0C3.75404 1.97323 7.32698 4.28602 10.1453 7.60995C13.7598 11.8809 16.3593 16.8234 19.7851 21.0641C20.1775 21.5508 20.5812 21.996 21 22.4261C20.8528 22.5431 20.7246 22.6865 20.6114 22.86Z" fill="#06080B"/>
</svg>
