<svg width="24" height="25" viewBox="0 0 24 25" fill="none" xmlns="http://www.w3.org/2000/svg">
<path d="M7.16478 12.077C7.16478 9.39162 9.32925 7.21247 12 7.21247C14.6707 7.21247 16.8352 9.39162 16.8352 12.077C16.8352 14.7661 14.6707 16.9453 12 16.9453C9.32925 16.9453 7.16478 14.7661 7.16478 12.077ZM22.9471 7.13543C21.0688 2.92754 16.8756 0 12 0C7.12442 0 2.93121 2.92754 1.05289 7.13543C0.381534 8.64323 0 10.3161 0 12.077C0 13.3794 0.209111 14.6267 0.583308 15.8007C2.14246 20.6506 6.66218 24.1577 12 24.1577C17.3672 24.1577 21.9126 20.6102 23.446 15.7163C23.8056 14.568 24 13.3464 24 12.077C24 10.3161 23.6221 8.64323 22.9471 7.13543Z" fill="#656263"/>
</svg>
