<svg width="20" height="15" viewBox="0 0 20 15" fill="none" xmlns="http://www.w3.org/2000/svg">
<path d="M18.4773 0.32732L17.0071 12.8721V12.8869C17.0034 12.9238 16.9628 13.3375 16.8556 13.7106C16.8002 13.8953 16.73 14.0689 16.6599 14.165C16.6266 14.2167 16.5971 14.2425 16.5823 14.2536L16.5712 14.2573H16.5638L16.5306 14.6267L16.5675 14.2573C16.5453 14.2573 16.4678 14.2462 16.3606 14.2315C15.5369 14.117 12.711 13.6848 9.96636 13.0568C8.5922 12.7465 7.23651 12.3808 6.17264 11.9892C5.63702 11.7934 5.17896 11.5903 4.82803 11.3908C4.65442 11.2911 4.51035 11.195 4.39584 11.099C4.28502 11.0066 4.20744 10.9217 4.16681 10.8515L3.85652 11.0509L4.1705 10.8626C4.1705 10.8626 4.12618 10.7813 4.04122 10.6409C3.74939 10.1385 3.02168 8.87889 2.32351 7.63771C1.97259 7.01712 1.63274 6.40392 1.35938 5.89415C1.22271 5.63926 1.1045 5.41024 1.01215 5.21815C0.916108 5.03345 0.845922 4.882 0.81637 4.79704L0.47283 4.93002L0.827452 4.83398C0.823757 4.83028 0.735102 4.47566 0.735102 4.09149C0.735102 3.95112 0.746184 3.81074 0.775736 3.68145C0.794206 3.58541 0.823757 3.50045 0.860698 3.42657C0.919801 3.31575 0.986293 3.23448 1.08972 3.17168C1.18946 3.10889 1.33353 3.06456 1.55517 3.06456C1.97628 3.06086 2.67075 3.24556 3.6792 3.78858L3.85282 3.46351L3.63488 3.76272C3.66812 3.78489 5.57052 5.21076 6.71935 7.81871C6.77845 7.9517 6.90774 8.03666 7.05181 8.03666C7.0555 8.03666 7.15524 8.03666 7.37319 8.04774C8.02333 8.08468 9.70778 8.23244 12.7221 8.81609C12.8255 8.83825 12.9289 8.81239 13.0102 8.7496C13.0952 8.6868 13.1469 8.59445 13.158 8.48732C13.158 8.48732 13.1617 8.443 13.169 8.36173C13.1986 8.0736 13.2725 7.34588 13.3648 6.63664C13.4128 6.28202 13.4646 5.93109 13.5126 5.64665C13.5347 5.50628 13.5606 5.38069 13.5828 5.28095C13.6049 5.1849 13.6308 5.10733 13.6382 5.08886C13.7194 4.90047 13.6308 4.68252 13.4461 4.60126C13.2577 4.52368 13.0434 4.60864 12.9659 4.79704C12.9179 4.90416 12.892 5.01867 12.8587 5.16274C12.8033 5.41024 12.7516 5.73161 12.6999 6.08254C12.5521 7.12794 12.4266 8.41344 12.4266 8.41714L12.7923 8.45408L12.8624 8.08837C8.80276 7.30156 7.10722 7.29417 7.05181 7.29417V7.66726L7.38796 7.51581C6.1357 4.68252 4.09662 3.18646 4.06707 3.1643L4.02275 3.13474C2.95519 2.56218 2.17575 2.32576 1.55517 2.32207C1.26334 2.32207 1.00476 2.38117 0.790512 2.49199C0.627977 2.57695 0.491299 2.68777 0.384174 2.81706C0.225333 3.01284 0.12929 3.23448 0.0738796 3.45243C0.0184706 3.67037 0 3.88832 0 4.09149C0.00369374 4.60126 0.114513 5.01129 0.118207 5.02976L0.132983 5.0667C0.188393 5.21076 0.277049 5.40285 0.39895 5.63926C0.820064 6.47041 1.60319 7.86673 2.28288 9.05989C2.96257 10.2494 3.53883 11.2393 3.53883 11.2393L3.54622 11.2504C3.65335 11.4166 3.79372 11.5644 3.96364 11.6974C4.27763 11.9523 4.69136 12.1776 5.18635 12.3919C6.04335 12.7686 7.14416 13.1122 8.32623 13.4188C10.0957 13.8842 12.0461 14.2684 13.5975 14.5418C14.3733 14.6784 15.053 14.7856 15.5554 14.8631C15.8102 14.9001 16.0208 14.9333 16.1759 14.9555C16.3348 14.9776 16.4382 14.9887 16.4936 14.9961H16.4973C16.5195 14.9998 16.5453 14.9998 16.5712 14.9998C16.7337 15.0035 16.8889 14.9444 17.0034 14.8594C17.1068 14.7893 17.1844 14.7006 17.2509 14.6082C17.3654 14.4457 17.443 14.2647 17.5058 14.0837C17.5981 13.8103 17.6535 13.5333 17.6905 13.319C17.7237 13.1048 17.7385 12.957 17.7385 12.9497L17.3728 12.9164L17.7385 12.9607L19.205 0.415975C19.2309 0.212806 19.0868 0.0281064 18.8836 0.00224929C18.6842 -0.0199151 18.4995 0.12415 18.4773 0.32732Z" fill="#343434"/>
</svg>
