<svg width="17" height="26" viewBox="0 0 17 26" fill="none" xmlns="http://www.w3.org/2000/svg">
<path d="M9.79331 26.0001C9.18358 26.0001 8.57761 25.9812 7.96788 25.9436C8.93893 25.8345 10.0041 25.65 11.0278 25.3452C12.3602 24.9537 13.6135 24.3553 14.498 23.5047C15.0889 22.9326 15.5217 22.2589 15.7476 21.4271C15.8793 20.9416 15.932 20.4523 15.932 19.9555C15.932 19.1801 15.8003 18.3784 15.6234 17.5655C15.4502 16.7525 15.2319 15.9245 15.0739 15.0852C14.5959 12.522 14.2948 9.8874 14.2308 7.27911L14.7464 7.26782L15.2583 7.25277C15.326 9.80083 15.6158 12.3828 16.0863 14.8894C16.2369 15.6798 16.4514 16.5041 16.6321 17.3472C16.8127 18.1903 16.9633 19.0597 16.9633 19.9555C16.9633 20.5275 16.8993 21.1109 16.7412 21.6981C16.4702 22.7256 15.9169 23.5762 15.2094 24.2537C14.5055 24.9311 13.6436 25.4468 12.729 25.8382C12.7215 25.842 12.7177 25.842 12.714 25.8457C12.3865 25.8796 12.0666 25.9097 11.7655 25.9323C11.7429 25.9323 11.7204 25.9323 11.7015 25.9361C11.0692 25.9775 10.4331 26.0001 9.79331 26.0001ZM14.2308 7.27911C14.2195 6.91403 14.2157 6.54518 14.2157 6.17633C14.2157 4.57673 14.3098 2.96208 14.5432 1.36625C14.5168 1.36625 14.4905 1.35872 14.4604 1.35495C14.0915 1.30603 13.5608 1.24957 12.936 1.19688C11.694 1.08773 10.0794 0.989869 8.63783 0.989869H8.61525C7.02694 0.989869 4.45253 1.24204 2.86422 1.48292C1.90823 1.62971 0.948468 1.78402 0 1.96468C0.583383 1.78026 1.17053 1.61465 1.76144 1.46034C3.6245 0.982341 5.52896 0.65113 7.4259 0.361321C8.29909 0.229589 9.4508 0.0940938 10.5875 0C11.9274 0.0602202 13.207 0.169369 14.084 0.267227C14.5206 0.316156 14.8518 0.357557 15.0626 0.398959C15.119 0.410249 15.168 0.421541 15.2206 0.436596C15.247 0.444123 15.2771 0.451651 15.3185 0.47047C15.3411 0.481762 15.3712 0.493052 15.4088 0.519399C15.4465 0.549509 15.5105 0.583383 15.5782 0.707587C15.6121 0.764044 15.646 0.858137 15.646 0.959759C15.646 0.989869 15.6422 1.01622 15.6384 1.04633C15.3561 2.72873 15.247 4.45253 15.247 6.17633C15.247 6.53389 15.2508 6.89521 15.2583 7.25277L14.7464 7.26782L14.2308 7.27911Z" fill="#06080B"/>
</svg>
