<svg width="3" height="9" viewBox="0 0 3 9" fill="none" xmlns="http://www.w3.org/2000/svg">
<path d="M0 9.00008C0.0935393 8.69506 0.178945 8.38598 0.252149 8.07689C0.280617 8.04436 0.309085 8.00776 0.337554 7.97522C0.601903 7.64173 0.833717 7.25131 1.02486 6.82835C1.41122 5.98243 1.6349 5.01857 1.71217 4.19706C1.71624 4.18486 1.7203 4.10352 1.7203 4.00184C1.72437 3.89611 1.72844 3.75783 1.72844 3.59922C1.72844 2.96071 1.6959 1.96839 1.5739 1.27701C1.53729 1.0452 1.48849 0.849985 1.43969 0.727978C1.43562 0.719843 1.43562 0.71171 1.43155 0.703576H1.6105C1.79758 0.703576 1.97652 0.605971 2.07819 0.447361C2.1636 0.309085 2.24494 0.162677 2.31814 0C2.38728 0.101673 2.43201 0.207412 2.47675 0.313152C2.59062 0.61817 2.65976 0.967926 2.71263 1.35022C2.8143 2.1148 2.84277 2.98918 2.84277 3.59922C2.84277 3.76596 2.83871 3.91237 2.83464 4.03031C2.83464 4.15232 2.83057 4.23366 2.82244 4.30686C2.7533 5.00637 2.59876 5.78315 2.33848 6.54367C2.07413 7.30418 1.7081 8.04842 1.19974 8.6788C1.1184 8.78047 1.033 8.87807 0.943524 8.97568C0.64664 8.98381 0.32942 8.99195 0 9.00008Z" fill="#231F20"/>
</svg>
