<svg width="20" height="25" viewBox="0 0 20 25" fill="none" xmlns="http://www.w3.org/2000/svg">
<path d="M12.0286 24.9765C9.78715 24.8333 7.54568 24.434 5.43228 23.7823C5.42475 23.7785 5.41722 23.7785 5.40968 23.7747C5.40968 23.7747 5.40591 23.7747 5.40215 23.771C5.39838 23.771 5.39085 23.771 5.38708 23.7672C5.37954 23.7634 5.36824 23.7634 5.36071 23.7597C5.36071 23.7597 5.35694 23.7597 5.35317 23.7559C5.34187 23.7521 5.3268 23.7484 5.31173 23.7446C3.58636 23.2021 1.80825 22.3959 0.825014 20.7911C0.192127 19.7627 0 18.5044 0 17.216C0 15.8373 0.222264 14.4208 0.376719 13.2078C0.621587 11.2601 0.764739 9.32379 0.764739 7.37615C0.764739 6.48333 0.734601 5.58674 0.670559 4.68638C0.614051 3.90657 0.542475 3.123 0.433227 2.34696C0.433227 2.18497 2.83293 1.38256 3.07403 1.29968C3.398 1.18666 3.72198 1.07742 4.05349 0.975702C5.00283 0.794877 5.96346 0.640421 6.92032 0.493502C8.51008 0.252402 11.0868 0 12.6766 0H12.6992C14.142 0 15.7581 0.0979471 17.0013 0.207195C17.6267 0.259936 18.1578 0.316444 18.527 0.365417C18.5572 0.369184 18.5835 0.376719 18.6099 0.376719C18.3763 1.97401 18.2822 3.59013 18.2822 5.19118C18.2822 5.56037 18.2859 5.92955 18.2972 6.29497C18.3613 8.90563 18.6626 11.5427 19.1411 14.1081C19.2993 14.9482 19.5178 15.777 19.6911 16.5907C19.8681 17.4044 20 18.2068 20 18.9829C20 19.4801 19.9473 19.9699 19.8154 20.4558C19.5894 21.2884 19.1562 21.9627 18.5647 22.5353C17.6794 23.3867 16.4249 23.9857 15.0914 24.3775C14.0667 24.6826 13.0006 24.8672 12.0286 24.9765Z" fill="#3A587A"/>
</svg>
