<svg width="6" height="2" viewBox="0 0 6 2" fill="none" xmlns="http://www.w3.org/2000/svg">
<path d="M3.33066 1.93549C2.30243 1.93549 1.41936 1.6613 0.830649 1.21775C0.532261 0.995973 0.306453 0.733874 0.149194 0.431454C0.0887098 0.31855 0.0403223 0.197582 0 0.0685487C0.366937 0.0766138 0.733874 0.0806456 1.10081 0.0806456C2.23388 0.0806456 3.36695 0.0443556 4.49599 0.00403228C4.50002 0.00403228 4.50405 0.00403228 4.50405 0.00403228C4.54034 0.00403228 4.57663 0 4.60889 0C4.61293 0.00403202 4.61293 0.00806481 4.61696 0.0120968C4.62099 0.0201609 4.62502 0.0241931 4.62502 0.0322582H4.62905C4.91535 0.588713 5.39115 1.03226 6.00003 1.34275C5.81454 1.44759 5.5968 1.54436 5.34277 1.62501C4.64115 1.83872 3.96373 1.93549 3.33873 1.93549C3.33469 1.93549 3.33469 1.93549 3.33066 1.93549Z" fill="#F35B5C"/>
</svg>
