<svg width="6" height="3" viewBox="0 0 6 3" fill="none" xmlns="http://www.w3.org/2000/svg">
<path d="M4.08952 2.99998H1.49253C0.667906 2.99998 0 2.32834 0 1.49999C0 0.671637 0.667906 0 1.49253 0H4.08952C4.52609 0 4.92161 0.190298 5.194 0.496265C5.13803 0.619399 5.10817 0.753727 5.10817 0.899248C5.10817 1.24999 5.28728 1.55596 5.55966 1.73133C5.45146 2.45148 4.83206 2.99998 4.08952 2.99998ZM1.49253 1.02984C1.23134 1.02984 1.02238 1.2388 1.02238 1.49999C1.02238 1.76118 1.23134 1.97014 1.49253 1.97014H4.08952C4.34699 1.97014 4.55594 1.76118 4.55594 1.49999C4.55594 1.2388 4.34699 1.02984 4.08952 1.02984H1.49253Z" fill="#220905"/>
</svg>
