<svg width="19" height="23" viewBox="0 0 19 23" fill="none" xmlns="http://www.w3.org/2000/svg">
<path d="M9.94819 22.9161C5.35615 22.1116 1.66048 18.6841 0.437162 14.2243C0.154293 13.1957 0 12.1156 0 10.9952C0 9.23183 0.378384 7.55666 1.05433 6.0468C2.24091 3.38341 4.35693 1.23067 6.98357 0.0110209C7.14888 0.0036741 7.31787 0 7.48686 0C10.6682 0 13.5447 1.29312 15.6276 3.39443C17.7142 5.49208 19 8.3869 19 11.5903C19 14.7937 17.7142 17.6849 15.6276 19.7862C14.0957 21.3254 12.1377 22.4349 9.94819 22.9161ZM7.48686 6.20844C4.53693 6.20844 2.1454 8.61834 2.1454 11.5903C2.1454 14.5623 4.53693 16.9685 7.48686 16.9685C8.77998 16.9685 9.96656 16.5056 10.8923 15.7378C11.2523 15.826 11.627 15.8701 12.0164 15.8701C14.6872 15.8701 16.8583 13.6879 16.8583 10.9952C16.8583 8.30608 14.6872 6.12394 12.0164 6.12394C11.1862 6.12394 10.4074 6.33334 9.7241 6.7007C9.04448 6.38477 8.28771 6.20844 7.48686 6.20844Z" fill="#666364"/>
</svg>
