<svg width="22" height="24" viewBox="0 0 22 24" fill="none" xmlns="http://www.w3.org/2000/svg">
<path d="M22 23.1848C21.415 22.964 20.8336 22.8205 20.2964 22.7985C20.2228 22.7138 20.1492 22.6255 20.0756 22.5372C17.9635 20.0388 16.1606 17.2939 14.2288 14.5673C12.3854 12.0284 10.4021 9.30557 8.19435 6.81452C5.98294 4.32347 3.5434 2.06423 0.791102 0.441545C0.533535 0.287004 0.268607 0.139822 0 0C0.883091 0.338518 1.7809 0.757986 2.51313 1.14066C3.71634 1.76986 4.89748 2.43218 6.03813 3.14969C7.05369 4.09165 8.02141 5.09985 8.94498 6.14116C11.1969 8.68005 13.1985 11.4287 15.042 13.9712L15.0457 13.9749C16.9921 16.7199 18.7804 19.4464 20.8409 21.8823C21.2199 22.3275 21.6026 22.7617 22 23.1848Z" fill="#06080B"/>
</svg>
