<svg width="4" height="5" viewBox="0 0 4 5" fill="none" xmlns="http://www.w3.org/2000/svg">
<path d="M2.93143 4.81885C2.45241 4.73697 2.01434 4.59367 1.62539 4.40124C1.89561 4.24567 2.10441 4.06552 2.28046 3.87719C2.5302 3.60288 2.70625 3.304 2.85364 3.01332C2.47698 2.64484 1.91608 2.19858 1.27329 1.78097C0.872061 1.52304 0.442171 1.27329 0 1.0563C0.0163757 0.974415 0.0368479 0.892531 0.0573185 0.806554C0.0614125 0.798365 0.0655069 0.786083 0.0655069 0.777894C0.151484 0.470831 0.266122 0.216991 0.405324 0C1.22825 0.397135 2.00615 0.884344 2.65303 1.37155C2.92734 1.57626 3.17709 1.78097 3.39817 1.98158C3.47187 2.04709 3.54556 2.11669 3.61516 2.18629C3.70114 2.26818 3.77893 2.34597 3.85262 2.42785C3.94679 2.5302 4.00001 2.66531 4.00001 2.80861V3.09111C4.00001 3.17709 3.97954 3.25897 3.9427 3.33266C3.88538 3.45139 3.82397 3.58241 3.75027 3.72161C3.5906 4.0123 3.38589 4.33164 3.10339 4.6428C3.05017 4.70421 2.99285 4.76153 2.93143 4.81885Z" fill="#231F20"/>
</svg>
