<svg width="5" height="2" viewBox="0 0 5 2" fill="none" xmlns="http://www.w3.org/2000/svg">
<path d="M0 2.00012C0.118328 1.65277 0.225205 1.29779 0.312996 0.938987C1.27107 0.912267 2.04592 0.881732 2.61084 0.851195C2.97728 0.828294 3.25592 0.801574 3.4315 0.778672C3.50402 0.771037 3.56128 0.759587 3.58036 0.75577C3.65289 0.721417 3.72159 0.687064 3.78648 0.648893H3.7903C4.06894 0.484761 4.3285 0.267191 4.55752 0C4.48882 0.290093 4.40866 0.580187 4.32087 0.866463C4.22926 1.15274 4.13001 1.43138 4.02314 1.71002C4.01169 1.71384 4.00024 1.72148 3.98879 1.72529H3.98497C3.92008 1.75583 3.87046 1.76728 3.82084 1.77873C3.77122 1.79018 3.72159 1.80163 3.66816 1.80927C3.55746 1.82835 3.4315 1.8398 3.27882 1.85507C2.97727 1.88179 2.57649 1.90851 2.08028 1.93141C1.51154 1.95431 0.809208 1.97722 0 2.00012Z" fill="#231F20"/>
</svg>
