<svg width="27" height="27" viewBox="0 0 27 27" fill="none" xmlns="http://www.w3.org/2000/svg">
<path d="M19.7885 24.8982C20.6457 21.6972 25.1898 24.1072 27 25.7518C25.7159 24.5487 24.5422 23.5148 23.4384 22.1461C20.0607 17.959 17.5256 13.1464 14.045 9.03651C11.3296 5.83179 7.85997 3.59474 4.17693 1.67043C2.97378 1.04126 1.33646 0.320105 0.0155702 0C-0.0175447 0.930878 0.0118901 2.54244 0.0155702 3.477C0.0229285 8.00261 0.416621 12.7674 1.67496 17.1348C2.80085 21.0533 5.00846 24.4935 8.98585 25.8917C12.496 27.1242 16.2599 27.0396 19.9283 26.9035C19.6523 26.3479 19.5824 25.6709 19.7885 24.8982Z" fill="#3A587A"/>
</svg>
