<svg width="21" height="37" viewBox="0 0 21 37" fill="none" xmlns="http://www.w3.org/2000/svg">
<path d="M0 37C0.433623 35.288 1.05415 33.6656 1.74945 32.1106C3.08396 29.1275 4.69135 26.3763 5.83522 23.696C6.27632 22.6531 6.65014 21.6251 6.91181 20.5971C6.88564 20.7616 6.93423 20.9298 7.05385 21.0494C7.15105 21.1504 7.28188 21.2027 7.41645 21.2027C7.45757 21.2027 7.49495 21.1989 7.53607 21.1915C7.637 21.1653 7.73793 21.1391 7.83886 21.1055C7.30805 23.0493 6.43332 24.9483 5.4801 26.8697C4.09325 29.6434 2.53071 32.4657 1.50647 35.5123C1.37189 35.9197 1.2448 36.3309 1.12892 36.7458C0.949485 36.701 0.770055 36.6599 0.594363 36.6262C0.56072 36.6187 0.527076 36.615 0.493433 36.615C0.265408 36.615 0.063549 36.7683 0 37ZM7.92484 13.9208V13.9171C7.92484 13.9171 7.92484 13.9171 7.92484 13.9208ZM7.92858 13.9096C8.47434 11.2817 9.27431 9.18459 10.2911 7.48C11.8237 4.90069 13.8498 3.24096 16.1226 2.01859C17.6178 1.21489 19.2215 0.590624 20.8812 0C18.6346 0.79996 16.4926 1.65599 14.5825 2.94565C14.4068 3.06527 14.3208 3.28582 14.3731 3.49515C14.4329 3.74935 14.4853 3.9998 14.5301 4.24652C13.7638 4.82593 13.0536 5.48758 12.3994 6.26885C12.3994 6.2053 12.3956 6.14175 12.3956 6.0782C12.3919 5.86139 12.2536 5.67075 12.0517 5.59972C11.9957 5.58103 11.9396 5.57355 11.8835 5.57355C11.734 5.57355 11.5882 5.6371 11.4873 5.76046C10.3957 7.10619 9.47243 8.75844 8.76592 10.8219C8.4407 11.7602 8.16034 12.7882 7.92858 13.9096Z" fill="#231F20"/>
</svg>
