<svg width="6" height="6" viewBox="0 0 6 6" fill="none" xmlns="http://www.w3.org/2000/svg">
<path d="M2.82333 5.26015C2.4994 5.26015 2.18651 5.23438 1.89203 5.17916C1.94725 5.12763 1.99878 5.0761 2.04664 5.02088C2.30062 4.74113 2.48467 4.45401 2.62823 4.19266C2.66136 4.18898 2.69817 4.18529 2.73498 4.18161C2.93007 4.16321 3.09572 4.02701 3.1583 3.84296C3.22456 3.65523 3.17302 3.44541 3.03314 3.30922C2.85277 3.13989 2.67977 2.97425 2.50676 2.81228C2.44418 2.74971 2.37793 2.68713 2.31167 2.62823C1.78528 2.13866 1.28467 1.67853 0.802458 1.21841C0.530064 0.957059 0.261351 0.692027 0 0.423315C0.3681 0.125153 0.835587 0 1.35461 0C1.35461 0 1.35461 0 1.35829 0C1.39878 0 1.43927 0 1.47976 0C2.81965 1.56074 4.29204 3.01474 6.00003 4.29204C5.70187 4.55708 5.31536 4.79266 4.80002 4.95094C4.11536 5.16076 3.4491 5.26015 2.82333 5.26015Z" fill="#A7A5A6"/>
</svg>
