<svg width="20" height="17" viewBox="0 0 20 17" fill="none" xmlns="http://www.w3.org/2000/svg">
<path d="M19.2658 0.338227L17.9339 14.5684V14.5832C17.9339 14.6276 17.8932 15.1012 17.7859 15.5341C17.7304 15.7487 17.6564 15.9522 17.5824 16.0706C17.5454 16.1298 17.5121 16.1631 17.4936 16.1742L17.4825 16.1853L17.4751 16.1816L17.4455 16.5516L17.4825 16.1853C17.4566 16.1816 17.3752 16.1705 17.2605 16.1557C16.3947 16.041 13.4125 15.597 10.5117 14.931C9.06128 14.598 7.62938 14.2095 6.49718 13.784C5.93478 13.5694 5.44639 13.3474 5.07269 13.1254C4.88769 13.0144 4.73229 12.9071 4.61019 12.7998C4.48809 12.6962 4.40299 12.5963 4.35489 12.5149L4.04039 12.7073L4.35859 12.5223C4.35859 12.5223 4.31049 12.4335 4.22169 12.2744C3.90719 11.712 3.11539 10.2949 2.35689 8.9037C1.97949 8.2044 1.6095 7.51251 1.3135 6.93901C1.1655 6.65411 1.036 6.39511 0.936097 6.18051C0.832498 5.96961 0.754797 5.79941 0.717798 5.69951L0.377399 5.83271L0.739998 5.79941C0.739998 5.78831 0.736298 5.72171 0.736298 5.61441C0.736298 5.33691 0.773298 4.79671 0.976797 4.37492C1.073 4.16402 1.2062 3.98642 1.3838 3.86062C1.5614 3.73852 1.79079 3.65342 2.13119 3.64972C2.54559 3.64972 3.12649 3.78662 3.89979 4.17512L4.06259 3.84212L3.80729 4.10852C3.84799 4.14552 5.74238 6.00661 7.01148 8.9703C7.07068 9.1109 7.20758 9.196 7.35928 9.1923L7.35558 9.0924V9.196L7.35928 9.1923L7.35558 9.0924V9.196L7.37408 9.1923C7.57388 9.1923 9.34617 9.2182 13.3348 9.9841C13.4532 10.01 13.5753 9.973 13.6641 9.8842C13.7492 9.7954 13.7862 9.6733 13.764 9.5512C13.764 9.5512 13.7455 9.455 13.7122 9.2774C13.6012 8.6558 13.3163 7.08331 13.0573 5.51451C12.9315 4.73011 12.8094 3.94572 12.7243 3.28342C12.6799 2.95412 12.6429 2.65072 12.617 2.39912C12.5911 2.14382 12.58 1.93662 12.58 1.80342C12.58 1.75532 12.5837 1.71462 12.5837 1.69242L12.5874 1.67392L12.4653 1.64802L12.58 1.69612L12.5874 1.67392L12.4653 1.64802L12.58 1.69612C12.654 1.50372 12.5578 1.28912 12.3691 1.21512C12.1804 1.14112 11.9658 1.23732 11.8918 1.42972C11.8659 1.50372 11.8585 1.55922 11.8511 1.61842C11.8474 1.67762 11.8437 1.73682 11.8437 1.80342C11.8474 2.00692 11.8659 2.26962 11.8992 2.58782C12.0139 3.69782 12.2988 5.46641 12.5578 6.96491C12.8131 8.4634 13.0425 9.6881 13.0425 9.6881L13.4014 9.6215L13.4717 9.2552C9.44607 8.4819 7.62938 8.4523 7.37408 8.4523C7.35558 8.4523 7.34448 8.4523 7.34078 8.4523L7.34818 8.8223L7.68488 8.6743C6.33068 5.52191 4.33639 3.59422 4.31789 3.57202C4.28829 3.54612 4.25869 3.52392 4.22539 3.50912C3.38549 3.09102 2.70469 2.90972 2.13119 2.90602C1.6613 2.90602 1.2654 3.03552 0.961997 3.25382C0.732598 3.41662 0.558699 3.62012 0.429199 3.83842C0.2331 4.16402 0.1295 4.51181 0.0702998 4.83001C0.0147997 5.14451 0 5.42571 0 5.61441C0 5.76241 0.00740022 5.85491 0.0111 5.86231C0.0111 5.89931 0.0184999 5.92891 0.0332999 5.96221C0.0924997 6.12131 0.188699 6.33591 0.321899 6.60601C0.776998 7.53841 1.6243 9.1035 2.36059 10.4429C3.09689 11.7823 3.72219 12.8886 3.72219 12.8886L3.72589 12.8997C3.83689 13.0847 3.98859 13.2438 4.16619 13.3955C4.49919 13.673 4.93949 13.9209 5.46118 14.1577C6.37508 14.5684 7.53688 14.9384 8.78378 15.2714C10.656 15.7672 12.7169 16.1705 14.356 16.4554C15.1737 16.596 15.8878 16.707 16.4206 16.7884C16.6907 16.8254 16.909 16.8587 17.0755 16.8809C17.2457 16.9031 17.353 16.9179 17.4122 16.9216H17.4159C17.4344 16.9253 17.4566 16.9253 17.4825 16.9253C17.6564 16.929 17.8192 16.8587 17.9376 16.7662C18.0448 16.6848 18.1262 16.5886 18.1891 16.485C18.3038 16.3074 18.3815 16.1076 18.4444 15.9041C18.5369 15.597 18.5924 15.2862 18.6257 15.042C18.6553 14.8015 18.6664 14.6313 18.6701 14.6276L18.3001 14.6017L18.6664 14.6387L19.9984 0.408527C20.0169 0.205027 19.8689 0.0237273 19.6654 0.00152782C19.4619 -0.0169728 19.2843 0.134727 19.2658 0.338227Z" fill="#343434"/>
</svg>
