<svg width="19" height="28" viewBox="0 0 19 28" fill="none" xmlns="http://www.w3.org/2000/svg">
<path d="M16.0712 27.912C13.405 27.912 10.7092 27.7012 8.12436 26.7915C6.02763 26.0593 4.38944 24.7761 3.14324 23.1786C2.37777 22.195 1.75652 21.0967 1.2573 19.9282C1.27209 19.8801 1.28688 19.8283 1.29797 19.7802C1.4385 19.2551 1.49766 18.7263 1.49766 18.2012C1.49766 17.9682 1.48657 17.7353 1.46438 17.506C2.01907 19.3772 2.82152 21.1152 3.9383 22.5463C5.08466 24.0144 6.55274 25.1607 8.45717 25.8301C10.8793 26.6806 13.4531 26.8951 16.0638 26.8951C16.0675 26.8951 16.0712 26.8951 16.0712 26.8951C16.9069 26.8951 17.7464 26.8729 18.5858 26.8433C18.645 27.1132 18.7337 27.3647 18.8595 27.6014C18.9038 27.6864 18.9482 27.7715 19 27.8491C18.0311 27.8861 17.0549 27.912 16.0712 27.912ZM3.82736 2.74017C3.62767 2.63293 3.42798 2.52569 3.2246 2.42215C2.29272 1.93402 1.08349 1.38673 0 1.02802C0.0369798 0.684118 0.0813547 0.34021 0.129428 0C1.34605 0.384585 2.66251 0.979952 3.69054 1.51615C3.73491 1.53834 3.77559 1.56053 3.81627 1.58271C3.81996 1.98579 3.82366 2.38886 3.82736 2.74017Z" fill="#220905"/>
</svg>
