<svg width="2" height="7" viewBox="0 0 2 7" fill="none" xmlns="http://www.w3.org/2000/svg">
<path d="M0.312746 7.00009C0.536687 6.05027 0.656379 5.06571 0.656379 4.04639C0.656379 2.63324 0.424717 1.27029 0 0H1.43245C1.43631 0.00772162 1.43631 0.0154437 1.44017 0.0231663C1.48651 0.138998 1.53284 0.324328 1.56759 0.544409C1.68342 1.20079 1.71431 2.14289 1.71431 2.74907C1.71431 2.89965 1.71045 3.03093 1.70659 3.13132C1.70659 3.22784 1.70273 3.30506 1.69886 3.31665C1.62551 4.09658 1.41315 5.01165 1.04635 5.81475C0.864876 6.2163 0.644796 6.58696 0.393828 6.90357C0.3668 6.93446 0.339773 6.96921 0.312746 7.00009Z" fill="#BDBCBD"/>
</svg>
