<svg width="2" height="13" viewBox="0 0 2 13" fill="none" xmlns="http://www.w3.org/2000/svg">
<path d="M0 13C0.0940607 10.9032 0.235152 8.81428 0.419354 6.7371C0.560445 5.13023 0.701536 3.5312 0.760324 1.93608C0.764243 1.92825 0.768163 1.92433 0.772082 1.91649L0.799516 1.8577C0.901416 1.64998 1.00723 1.44618 1.11305 1.24631L1.13657 1.20319C1.2463 1.00332 1.35996 0.803436 1.47362 0.615314L1.48538 0.595718C1.61079 0.39192 1.7362 0.19204 1.86554 0C1.86946 0.105818 1.86946 0.215557 1.86946 0.321374C1.86946 2.51221 1.67742 4.68344 1.4893 6.83508C1.36388 8.23032 1.26198 9.63731 1.17968 11.0443C0.889658 11.7654 0.513415 12.4395 0 13Z" fill="#06080B"/>
</svg>
