<svg width="16" height="24" viewBox="0 0 16 24" fill="none" xmlns="http://www.w3.org/2000/svg">
<path d="M13.2133 23.9086C10.408 23.9086 7.54674 23.487 4.90184 22.6589C4.06994 22.3977 3.23805 22.0732 2.51807 21.6404C1.79062 21.204 1.17883 20.6631 0.746094 19.958C0.190254 19.059 0 17.91 0 16.6864C0 15.3733 0.216368 13.993 0.373047 12.7806C0.615528 10.8295 0.761016 8.89344 0.761016 6.93867C0.761016 6.04336 0.731171 5.14432 0.664023 4.24154C0.619258 3.57006 0.55957 2.89484 0.470039 2.22336C0.604336 2.1674 0.775937 2.09652 0.966191 2.02564C1.30939 1.89135 1.70855 1.74959 2.03684 1.63768C2.36885 1.52203 2.62252 1.43623 2.70086 1.41012H2.70459C3.58125 1.10049 4.47656 0.831894 5.37934 0.600605C6.27838 0.369316 7.18488 0.175331 8.10258 0C7.7743 0.100722 7.45348 0.208907 7.13266 0.32082C6.89391 0.40289 4.5176 1.19748 4.5176 1.35789C4.62578 2.12637 4.69666 2.9023 4.75262 3.67451C4.81603 4.56609 4.84588 5.45395 4.84588 6.33807C4.84588 8.26672 4.70412 10.1842 4.46164 12.1128C4.30869 13.314 4.08859 14.7167 4.08859 16.0821C4.08859 17.3579 4.27885 18.6038 4.90557 19.6223C5.87922 21.2114 7.64 22.0098 9.34855 22.547C9.36348 22.5507 9.3784 22.5544 9.38959 22.5581C9.39332 22.5619 9.39705 22.5619 9.39705 22.5619C9.40451 22.5656 9.4157 22.5656 9.42316 22.5693C9.42689 22.5731 9.43435 22.5731 9.43809 22.5731C9.44182 22.5768 9.44555 22.5768 9.44555 22.5768C9.45301 22.5805 9.46047 22.5805 9.46793 22.5843C11.5607 23.2296 13.7804 23.6251 16 23.7668C15.6978 23.7967 15.4106 23.8228 15.1308 23.8452C14.4966 23.8862 13.8587 23.9086 13.2133 23.9086Z" fill="#F35B5C"/>
</svg>
