<svg width="25" height="26" viewBox="0 0 25 26" fill="none" xmlns="http://www.w3.org/2000/svg">
<path d="M23.3088 6.75662C23.2564 4.66787 23.3462 2.55291 23.6906 0.486626C23.7018 0.389301 20.1345 0 17.211 0C15.5864 0.00374304 13.0222 0.2508 11.4164 0.494113C9.52976 0.782345 7.63566 1.11175 5.78274 1.58715C4.86563 1.82298 3.95227 2.09998 3.05763 2.41067C2.81806 2.49302 0.411134 3.29408 0.433594 3.4513C0.542148 4.22242 0.613271 5.00102 0.66942 5.77588C0.871557 8.62451 0.733056 11.417 0.377445 14.2432C0.0817263 16.5677 -0.479766 19.6559 0.822894 21.7784C1.79989 23.373 3.56672 24.1741 5.28114 24.7131C8.60891 25.7575 12.2586 26.1692 15.7324 25.9259C18.9478 25.6976 23.8104 24.6794 24.7986 20.9773C25.3863 18.7875 24.5403 16.5827 24.1398 14.4378C23.6681 11.9149 23.3724 9.3245 23.3088 6.75662Z" fill="#3A587A"/>
</svg>
