<svg width="11" height="7" viewBox="0 0 11 7" fill="none" xmlns="http://www.w3.org/2000/svg">
<path d="M0.301214 6.93173C0.301214 6.78303 0.297401 6.63433 0.293588 6.48563C0.278337 5.62012 0.175391 4.8118 0 3.98822C1.76534 2.852 3.78233 2.04749 5.94802 1.2773C7.61042 0.743502 9.29187 0.320278 11 0C10.8246 0.0533802 10.6531 0.110572 10.4815 0.163952C7.65236 1.17054 5.02913 2.24576 2.84819 4.08354C2.70711 4.13692 2.56222 4.1903 2.42877 4.24368C2.20382 4.33138 2.00174 4.41526 1.83779 4.49152C1.75772 4.52965 1.68527 4.56777 1.60902 4.61734C1.57089 4.64022 1.53276 4.66691 1.47938 4.72029C1.45269 4.75079 1.42219 4.78511 1.38787 4.8423C1.35356 4.89949 1.31543 4.991 1.31543 5.11682C1.31543 5.14351 1.31543 5.16639 1.31924 5.17783V5.19308C1.33449 5.30746 1.35356 5.42566 1.36499 5.54005C1.26205 5.65824 1.16291 5.78026 1.05997 5.90227C0.949396 6.03953 0.842636 6.17679 0.735877 6.32168C0.587176 6.51613 0.442289 6.72202 0.301214 6.93173Z" fill="white"/>
</svg>
