<svg width="20" height="24" viewBox="0 0 20 24" fill="none" xmlns="http://www.w3.org/2000/svg">
<path d="M14.7349 24C12.8057 23.8966 10.8987 23.6157 9.05822 22.9763C9.05822 22.9763 9.05452 22.9763 9.05083 22.9763C9.03974 22.9689 9.02496 22.9652 9.01387 22.9615C5.01879 21.5572 2.80136 18.1017 1.67047 14.1657C0.40653 9.77888 0.0110867 4.99292 0.00369572 0.447183C0.00369572 0.310441 0 0.158916 0 0C3.44441 1.84417 6.63752 3.98769 9.158 6.95905C12.6061 11.028 15.1525 15.8584 18.5821 20.1158L18.9738 19.798L18.5821 20.1195C18.7817 20.3634 18.9775 20.5963 19.1808 20.8217C18.571 20.6074 17.9575 20.4706 17.3662 20.4706H17.3625C16.8118 20.4706 16.2649 20.5963 15.8029 20.9215C15.5738 21.0841 15.3705 21.2948 15.2042 21.5461C15.0379 21.8011 14.9122 22.0967 14.8235 22.4293C14.7312 22.7731 14.6831 23.1094 14.6831 23.4309C14.6831 23.6268 14.7016 23.8189 14.7349 24Z" fill="#3A587A"/>
</svg>
