<svg width="3" height="12" viewBox="0 0 3 12" fill="none" xmlns="http://www.w3.org/2000/svg">
<path d="M0.0038192 11.9999H0C0.0954808 11.6295 0.175684 11.259 0.24061 10.8886C0.248249 10.8542 0.252068 10.8236 0.259706 10.7931C0.282622 10.6479 0.305537 10.499 0.324632 10.3539C0.332271 10.3119 0.336089 10.266 0.343728 10.224C0.366643 10.0483 0.385739 9.86882 0.401016 9.69314C0.43157 9.33414 0.465943 8.98277 0.504135 8.64286C0.504135 8.60849 0.507953 8.57793 0.511773 8.54738C0.549965 8.22275 0.588158 7.90575 0.630169 7.59258C0.633989 7.54675 0.641626 7.50474 0.645446 7.45891C0.687456 7.15719 0.733287 6.86311 0.779118 6.57285C0.790576 6.5232 0.794394 6.47355 0.805852 6.42772C0.851682 6.14128 0.901332 5.86248 0.954801 5.5875C0.966258 5.54167 0.973897 5.49584 0.981535 5.45C1.03882 5.17502 1.09229 4.90768 1.1534 4.64415C1.16104 4.60978 1.1725 4.57159 1.18013 4.5334C1.24124 4.26605 1.30617 4.00253 1.37109 3.74664C1.37873 3.71991 1.38637 3.69699 1.39401 3.67407C1.46276 3.40673 1.53914 3.14321 1.61552 2.88732V2.87968C1.69573 2.61615 1.77975 2.36027 1.86759 2.1082L1.87523 2.08529C1.95543 1.84468 2.04327 1.60788 2.13494 1.37491L2.15403 1.32144C2.24187 1.09611 2.33353 0.878417 2.42519 0.664542L2.45193 0.599615C2.53977 0.397197 2.63143 0.19478 2.72691 0C2.66962 1.55442 2.53213 3.11265 2.39464 4.67853C2.21514 6.7027 2.07765 8.73834 1.98599 10.7816C1.63462 11.1674 1.21451 11.4958 0.710372 11.7479C0.48122 11.8624 0.244428 11.9427 0.0038192 11.9999Z" fill="#3A587A"/>
</svg>
