<svg width="8" height="11" viewBox="0 0 8 11" fill="none" xmlns="http://www.w3.org/2000/svg">
<path d="M6.75306 10.9999C6.73782 10.9999 6.72259 10.9999 6.71116 10.9961C6.52834 10.9809 6.34551 10.9618 6.16269 10.939C4.77247 10.7638 3.39748 10.341 2.1977 9.51446C1.47783 9.02312 0.929355 8.33753 0.559898 7.56815C0.190442 6.79877 0 5.94178 0 5.09241C0 4.48299 0.0990301 3.87358 0.304707 3.30226C0.476104 2.82234 0.735105 2.40337 1.04743 2.04153C1.35975 1.6797 1.7254 1.37499 2.11771 1.11599C2.67761 0.746531 3.28702 0.468486 3.88501 0.255192C4.12497 0.171398 4.36111 0.0952215 4.59345 0.0304707L4.6163 0.022853L4.65058 0.0152353C4.69248 0.00761718 4.73438 0 4.77247 0C4.93625 0 5.09622 0.0799855 5.19525 0.217103C5.54566 0.708442 5.85037 1.24168 6.10556 1.80539C5.84275 2.1139 5.62945 2.46812 5.48472 2.86424C5.4771 2.89852 5.46567 2.92899 5.45425 2.95946C5.21048 2.30434 4.90959 1.68731 4.55536 1.13503C4.0983 1.28358 3.63363 1.4664 3.20323 1.69112C2.66999 1.97297 2.19008 2.31958 1.83205 2.73093C1.5959 3.00898 1.40927 3.31368 1.28358 3.65648C1.1236 4.10592 1.04362 4.59726 1.04362 5.09241C1.04362 5.78561 1.19978 6.49025 1.50068 7.11109C1.79777 7.73574 2.23198 8.27278 2.78426 8.64986C3.81264 9.35449 5.02385 9.73537 6.28838 9.89915C6.32647 9.43067 6.34932 8.93171 6.34932 8.42133C6.34932 8.18137 6.34171 7.9338 6.33409 7.68622C6.57785 7.98712 6.86352 8.24993 7.18346 8.46703C7.25202 8.51655 7.32058 8.56225 7.38913 8.60415C7.38913 8.66128 7.38913 8.71842 7.38913 8.77555C7.38152 9.10692 7.36628 9.43067 7.34343 9.7468C7.32438 10.0172 7.30153 10.28 7.27106 10.5352C7.23678 10.8018 7.01587 10.9999 6.75306 10.9999Z" fill="#220905"/>
</svg>
