<svg width="31" height="49" viewBox="0 0 31 49" fill="none" xmlns="http://www.w3.org/2000/svg">
<path d="M29.8679 48.9999C28.2151 48.9999 26.5696 48.9999 24.9425 48.9999C24.1859 48.9999 23.433 48.9999 22.6837 48.9999C20.8032 44.7871 16.6051 41.8561 11.7238 41.8561C10.8754 41.8561 10.0527 41.9443 9.25566 42.1096C8.58719 41.9994 7.89669 41.9406 7.19517 41.9406C5.13469 41.9406 3.18806 42.4438 1.47283 43.3326C1.18267 41.7203 0.936584 40.1005 0.745595 38.4661C0.506857 36.4644 0.330559 34.4479 0.209354 32.4242C0.477474 32.7254 0.870472 32.9164 1.30387 32.9164H3.8602C4.59477 32.9164 5.20447 32.3764 5.31099 31.6676C5.46157 31.7631 5.63787 31.8182 5.82886 31.8182H8.38519C8.91775 31.8182 9.35115 31.3848 9.35115 30.8485C9.35115 30.3123 8.91775 29.8789 8.38519 29.8789H5.82886C5.43586 29.8789 5.10163 30.1139 4.95104 30.4519C4.68292 30.1507 4.2936 29.9634 3.8602 29.9634H1.30387C0.815379 29.9634 0.378307 30.2058 0.113859 30.5767C0.036729 28.8468 0 27.1095 0 25.3759C0 22.8306 0.0808036 20.289 0.231391 17.7584C0.484821 17.1156 0.672137 16.4288 0.826398 15.7567C1.4361 13.1012 1.61974 10.3796 1.61974 7.66163C1.61974 7.43758 1.61607 7.21354 1.61607 6.98949C1.61239 6.7985 1.60872 6.60751 1.60505 6.41652C1.70422 6.29899 1.79971 6.18146 1.89888 6.0676C1.97968 6.69934 2.03845 7.33842 2.08252 7.9775C2.14496 8.8443 2.17435 9.70375 2.17435 10.5632C2.17435 12.4364 2.03845 14.3022 1.79971 16.1864C1.6528 17.358 1.42875 18.7574 1.42875 20.1604C1.42875 21.4643 1.61974 22.7829 2.31024 23.9105C2.83914 24.7773 3.58106 25.42 4.39277 25.9048C5.20814 26.3933 6.09698 26.7349 6.96011 27.0067C9.66702 27.8551 12.5796 28.2849 15.4408 28.2849C16.0982 28.2849 16.752 28.2628 17.3984 28.2151C19.0108 28.1012 21.0272 27.7964 22.8159 27.0361C24.5532 26.8377 26.5806 26.397 28.1783 25.4604C28.5309 27.98 28.9056 30.4959 29.2839 33.0082C29.5851 35.0026 29.8972 36.9933 30.2205 38.984C30.5143 40.8204 30.753 42.6532 30.753 44.4823C30.753 44.6071 30.753 44.7283 30.753 44.8495C30.7273 46.2967 30.3527 47.6409 29.8679 48.9999ZM3.32763 4.66456C5.42852 2.89423 7.95546 1.85848 10.6807 0.888837C10.846 0.837416 11.0113 0.782324 11.1802 0.730903C13.8394 0.235065 16.561 0 19.3414 0C19.9731 0 20.6085 0.0146911 21.2476 0.0367288C23.2089 0.113859 25.2217 0.249755 27.194 0.532568C27.1132 0.965967 27.0324 1.39937 26.9589 1.83277C25.8497 1.74829 24.5569 1.68218 23.3669 1.68218C23.3669 1.68218 23.3669 1.68218 23.3632 1.68218C23.3558 1.68218 23.3485 1.68218 23.3412 1.68218C22.6066 1.68218 21.681 1.73727 20.7408 1.8144C20.1053 1.78502 19.4589 1.77033 18.8382 1.77033H18.8162C17.1744 1.77033 14.6585 2.01641 13.0534 2.25882C11.1949 2.54163 9.32177 2.86852 7.47799 3.34232C6.56344 3.57739 5.65624 3.84918 4.76373 4.16137C4.71231 4.17974 4.51764 4.24585 4.26421 4.334C3.99609 4.42582 3.65819 4.54335 3.32763 4.66456Z" fill="#F35B5C"/>
</svg>
