<svg width="8" height="3" viewBox="0 0 8 3" fill="none" xmlns="http://www.w3.org/2000/svg">
<path d="M4.25264 2.87082C3.37991 2.87082 2.57225 2.7024 1.88708 2.36938C1.29378 2.0823 0.792346 1.66507 0.44402 1.13302C0.390432 1.05263 0.344497 0.964595 0.298565 0.876556C0.168421 0.63158 0.0765551 0.371293 0.015311 0.0918661C0.0114835 0.0612441 0.00382751 0.030622 0 0C0.35981 0.022967 0.723445 0.0344503 1.08325 0.0421053C1.12153 0.164593 1.16747 0.279426 1.22488 0.386603C1.37416 0.673684 1.58852 0.92249 1.87177 1.13302C2.43063 1.55407 3.2689 1.81436 4.24498 1.81436C4.24881 1.81436 4.24881 1.81436 4.25264 1.81436C4.84594 1.81436 5.489 1.72249 6.15503 1.51962C6.39618 1.44306 6.60288 1.3512 6.77895 1.25168C7.14259 1.43158 7.55216 1.56555 8.00001 1.64211C7.62489 2.00574 7.11963 2.32727 6.46125 2.52632C5.70336 2.75981 4.95694 2.87082 4.25264 2.87082Z" fill="#220905"/>
</svg>
