<svg width="6" height="4" viewBox="0 0 6 4" fill="none" xmlns="http://www.w3.org/2000/svg">
<path d="M1.19839 3.8978C0.819102 3.88973 0.435779 3.87762 0.0564898 3.85341C0.0201752 3.6557 0 3.44588 0 3.23202C0 2.88098 0.0524551 2.5138 0.15333 2.13854C0.250169 1.77539 0.387358 1.4526 0.568933 1.17418C0.750507 0.899803 0.972432 0.669808 1.2226 0.492268C1.72698 0.13719 2.32415 0 2.92537 0H2.9294C3.575 0 4.24481 0.149294 4.91058 0.383324C5.17689 0.476128 5.44723 0.585073 5.71354 0.702088C5.81038 0.746473 5.90319 0.790857 6.00003 0.835242C5.86284 1.0491 5.74986 1.29927 5.66512 1.60189C5.66512 1.60996 5.66109 1.62206 5.65705 1.63013C5.63688 1.71487 5.6167 1.79557 5.60056 1.87627C5.2132 1.68662 4.82181 1.52119 4.43849 1.39611C3.8978 1.21453 3.37728 1.11366 2.93344 1.11366H2.9294C2.5945 1.11366 2.31205 1.17015 2.07802 1.27506C1.84399 1.384 1.65434 1.54137 1.49295 1.7875C1.384 1.95293 1.2912 2.16275 1.21857 2.42906C1.1419 2.71958 1.10559 2.98589 1.10559 3.23202C1.10559 3.47412 1.13787 3.69605 1.19839 3.8978Z" fill="#06080B"/>
</svg>
