<svg width="4" height="6" viewBox="0 0 4 6" fill="none" xmlns="http://www.w3.org/2000/svg">
<path d="M0.0695653 5.93237C0.0231884 5.39518 0 4.86957 0 4.34783C0.00386449 2.83672 0.189372 1.39517 0.510146 0C1.36039 0.216425 2.19131 0.556522 2.81353 1.01643C3.18454 1.29082 3.48213 1.60387 3.6831 1.95169C3.88793 2.29952 4.00001 2.68213 4.00001 3.13817C4.00001 3.16909 4.00001 3.19614 4.00001 3.22319C3.99228 3.47054 3.92658 3.6831 3.81063 3.88793C3.63286 4.19324 3.3314 4.4831 2.95653 4.73817C2.58165 4.99324 2.1488 5.21353 1.73913 5.40291C1.53044 5.50339 1.17102 5.65025 0.772948 5.76619C0.544928 5.83576 0.30145 5.89373 0.0695653 5.93237Z" fill="white"/>
</svg>
