<svg width="9" height="11" viewBox="0 0 9 11" fill="none" xmlns="http://www.w3.org/2000/svg">
<path d="M5.46434 11C2.44487 11 0 8.54014 0 5.50189C0 2.46365 2.44862 0 5.46434 0C6.2793 0 7.0567 0.180267 7.75148 0.503245C7.38719 0.702289 7.04919 0.946402 6.74499 1.22431C6.33938 1.10038 5.91125 1.03653 5.46434 1.03653C4.23627 1.03653 3.13214 1.53602 2.32845 2.34347C1.52476 3.15467 1.02902 4.26632 1.02902 5.50189C1.02902 6.73372 1.52476 7.84912 2.32845 8.65656C3.13214 9.46777 4.23627 9.9635 5.46434 9.96726C6.31685 9.96726 7.11303 9.72314 7.78528 9.30628C8.14956 9.49781 8.53639 9.64428 8.94199 9.74192C7.99559 10.5268 6.7863 11 5.46434 11Z" fill="#231F20"/>
</svg>
