<svg width="15" height="10" viewBox="0 0 15 10" fill="none" xmlns="http://www.w3.org/2000/svg">
<path d="M14.9963 9.41264C14.7472 8.86246 14.4498 8.34201 14.1078 7.86246C14.0112 7.72863 13.855 7.65056 13.6952 7.65056C13.658 7.65056 13.6171 7.658 13.5762 7.66543L13.5428 7.67287L13.5205 7.6803C13.2937 7.7435 13.0632 7.81785 12.829 7.89963C12.7844 7.84759 12.7361 7.79926 12.6877 7.75093C11.5056 6.5316 9.89592 5.66915 8.17844 4.9145C6.45725 4.16357 4.63197 3.52788 3.01859 2.71747L3.00744 2.71004C1.92565 2.13383 0.929368 1.49071 0 0.795539C0.282527 0.546468 0.483271 0.267658 0.643123 0C1.52045 0.654275 2.46097 1.25651 3.47956 1.80297C5.00372 2.57249 6.81785 3.20446 8.58365 3.9777C10.3494 4.74721 12.0744 5.66171 13.4164 7.03346C14.0744 7.71004 14.5948 8.52045 15 9.40893C14.9963 9.41264 14.9963 9.41264 14.9963 9.41264Z" fill="#220905"/>
</svg>
