<svg width="5" height="3" viewBox="0 0 5 3" fill="none" xmlns="http://www.w3.org/2000/svg">
<path d="M1.26929 2.97168C0.879068 2.97168 0.488848 2.96739 0.0986271 2.95881C0.0343048 2.74441 0 2.50856 0 2.25127C0 1.9897 0.038593 1.70668 0.120068 1.39793C0.197254 1.11492 0.295881 0.891933 0.411661 0.716119C0.583187 0.454543 0.78473 0.287305 1.03344 0.171525C1.28215 0.0600334 1.58232 0 1.93824 0H1.94253C2.41422 0 2.96739 0.107204 3.542 0.30017C3.94937 0.433102 4.36532 0.608915 4.77698 0.810458C4.72124 1.06775 4.6998 1.31646 4.6998 1.55659C4.6998 2.04544 4.807 2.49141 4.99997 2.88592C4.96566 2.88592 4.92707 2.8902 4.88848 2.8902C4.88848 2.8902 4.88419 2.8902 4.8799 2.8902C3.67922 2.93309 2.47425 2.97168 1.26929 2.97168Z" fill="#3A587A"/>
</svg>
