<svg width="11" height="30" viewBox="0 0 11 30" fill="none" xmlns="http://www.w3.org/2000/svg">
<path d="M6.15211 29.9999C3.16972 29.9999 1.4275 29.9999 1.40877 29.9999C0.640691 28.1004 0.198578 26.3094 2.2697e-06 24.6084C0.835519 24.5859 1.83589 24.215 2.29674 23.9977C3.37205 23.4919 4.7396 22.7501 4.78081 21.4312C4.78081 21.4012 4.78456 21.3675 4.78456 21.3375C4.78456 19.2019 2.574 18.0854 0.505809 17.677C2.06819 11.5174 6.11089 6.4406 7.44472 1.1952C7.68077 1.139 7.91306 1.06032 8.13787 0.947919C8.63243 0.700636 9.04457 0.378418 9.38927 0C9.3031 1.96328 9.25439 3.9303 9.25439 5.90108C9.25439 10.4121 9.49792 14.9269 10.0225 19.3743C10.236 21.1839 10.5095 22.9786 10.8392 24.762C8.83476 26.0322 7.20494 27.8456 6.15211 29.9999Z" fill="#F35B5C"/>
</svg>
