<svg width="9" height="8" viewBox="0 0 9 8" fill="none" xmlns="http://www.w3.org/2000/svg">
<path d="M8.99998 7.94645C8.53447 7.9342 8.16696 7.92603 7.9097 7.91378C7.59935 7.90153 7.27676 7.90153 6.946 7.90153C6.76632 7.90153 6.59073 7.90153 6.41106 7.90153C6.39881 7.90153 6.38247 7.90153 6.37022 7.90153C5.50453 7.90153 4.61841 7.88519 3.82622 7.73819C3.42604 7.66469 3.05036 7.55852 2.71143 7.40743C2.3725 7.26042 2.07441 7.07258 1.82123 6.82757C0.869781 5.92921 0.224591 4.68783 0.0204174 3.3852C0.0163331 3.3607 0.00816669 3.25861 0.00408348 3.12386C2.61405e-07 2.9891 0 2.8176 0 2.62568C0 2.04174 0.0204174 1.25363 0.085753 0.641106C0.114337 0.383847 0.151089 0.151088 0.18784 0H4.55308C4.44691 1.09846 4.45916 2.58076 4.49999 2.8176C4.7205 4.24273 5.42286 5.59028 6.46823 6.57848C7.12975 7.20734 8.00362 7.5136 8.93873 7.66469C8.95915 7.75861 8.97957 7.85253 8.99998 7.94645Z" fill="white"/>
</svg>
