<svg width="15" height="20" viewBox="0 0 15 20" fill="none" xmlns="http://www.w3.org/2000/svg">
<path d="M5.3906 0.580166C5.39432 0.580166 6.40859 2.12572 7.60863 3.9202C8.20679 4.8193 8.84953 5.77784 9.43654 6.63236C10.0198 7.49059 10.5437 8.24479 10.9078 8.74264C11.231 9.18476 11.5134 9.79406 11.766 10.5148C12.1413 11.596 12.4496 12.9298 12.784 14.3304C13.1221 15.7311 13.4862 17.2023 13.984 18.577L14.3333 18.4507L14.0435 18.2203C14.0286 18.2352 13.8094 18.5064 13.449 18.759C13.2707 18.8891 13.0552 19.0117 12.8175 19.1046C12.5797 19.1937 12.3159 19.2532 12.0335 19.2532C11.7029 19.2532 11.3425 19.1751 10.9412 18.9634C10.3394 18.6439 9.6446 18.0048 8.90897 16.8457C8.16963 15.6865 7.39686 14.0109 6.63151 11.6406C6.60922 11.5663 6.56463 11.5031 6.50147 11.4585C6.45317 11.4214 5.49463 10.6932 4.30203 9.44483C3.11314 8.19649 1.68647 6.43173 0.701918 4.33632C0.612751 4.15055 0.393549 4.06882 0.211501 4.15798C0.0257372 4.24715 -0.0522842 4.47006 0.0368826 4.65583C1.08831 6.89243 2.58928 8.73521 3.83018 10.0244C5.07109 11.3136 6.05192 12.0492 6.06307 12.0567L6.28227 11.7594L5.93303 11.8746C6.9696 15.0883 8.03217 17.0946 9.06502 18.3244C9.58144 18.9374 10.0941 19.3572 10.5957 19.621C11.0973 19.8885 11.5877 19.9999 12.0335 19.9999C12.4311 19.9999 12.7914 19.9145 13.1072 19.7882C13.5828 19.6024 13.9543 19.3275 14.2107 19.1008C14.467 18.8742 14.6119 18.6959 14.6231 18.681C14.7011 18.5807 14.7234 18.4432 14.6788 18.3206C14.0361 16.5559 13.6125 14.5756 13.1704 12.7811C12.9512 11.8821 12.7246 11.0275 12.4608 10.2659C12.197 9.50427 11.8923 8.83552 11.4985 8.2968C11.1456 7.81753 10.6254 7.06333 10.0421 6.20882C9.16904 4.93076 8.15849 3.41864 7.37085 2.22604C6.97331 1.63159 6.63151 1.11517 6.39001 0.751069C6.14852 0.383256 6.00734 0.167769 6.00734 0.167769C5.89217 -0.00684903 5.66553 -0.0514324 5.49463 0.0637416C5.32744 0.1752 5.27915 0.405548 5.3906 0.580166Z" fill="#343434"/>
</svg>
