<svg width="16" height="13" viewBox="0 0 16 13" fill="none" xmlns="http://www.w3.org/2000/svg">
<path d="M10.9269 3.96201H4.8068C4.17966 3.96201 3.67427 3.54884 3.67427 3.04344C3.67427 2.53436 4.17966 2.12488 4.8068 2.12488H10.9269C11.554 2.12488 12.0631 2.53436 12.0631 3.04344C12.0631 3.54884 11.554 3.96201 10.9269 3.96201ZM13.8191 0H1.79287C0.800518 0 0 0.649268 0 1.45348L1.68588 11.5466C1.68588 12.3509 2.49009 13.0001 3.48244 13.0001H12.1295C13.1219 13.0001 13.9261 12.3509 13.9261 11.5466L15.6156 1.45348C15.6156 0.649268 14.8114 0 13.8191 0Z" fill="#343434"/>
</svg>
